<svg id="visual" viewBox="0 0 540 960" width="540" height="960" xmlns="http://www.w3.org/2000/svg" xmlns:xlink="http://www.w3.org/1999/xlink" version="1.1"><rect x="0" y="0" width="540" height="960" fill="#f5f5f5"></rect><defs><linearGradient id="grad1_0" x1="0%" y1="100%" x2="100%" y2="0%"><stop offset="30%" stop-color="#f5f5f5" stop-opacity="1"></stop><stop offset="70%" stop-color="#f5f5f5" stop-opacity="1"></stop></linearGradient></defs><defs><linearGradient id="grad2_0" x1="0%" y1="100%" x2="100%" y2="0%"><stop offset="30%" stop-color="#f5f5f5" stop-opacity="1"></stop><stop offset="70%" stop-color="#f5f5f5" stop-opacity="1"></stop></linearGradient></defs><g transform="translate(540, 960)"><path d="M-415 0C-421.5 -54.3 -428 -108.6 -421.3 -174.5C-414.6 -240.4 -394.6 -317.8 -343.7 -343.7C-292.7 -369.5 -210.9 -343.7 -148.5 -358.5C-86.1 -373.3 -43 -428.6 0 -484L0 0Z" fill="#cbe6ee"></path></g><g transform="translate(0, 0)"><path d="M486 0C478.4 64.2 470.9 128.4 445.3 184.5C419.8 240.5 376.2 288.5 328.1 328.1C280 367.7 227.3 399.1 171.8 414.8C116.4 430.6 58.2 430.8 0 431L0 0Z" fill="#cbe6ee"></path></g></svg>