<svg xmlns="http://www.w3.org/2000/svg" viewBox="0 0 1080 1080"><path fill="#2A94F4" d="M816.536 598.624c-48.692-35.461-61.575-55.593-61.575-55.593 186.715-223.284-190.58-296.175-264.086-142.657-30.64 63.992-93.035 62.629-199.144 82.732-98 18.567-94.943 119.404-14.163 198.31h584.126c13.707-47.564-22.936-66.609-45.158-82.792z" opacity=".05"/><path fill="#2A94F4" d="M450.822 351.139s-5.338-7.013-8.609-10.227c-5.892-5.788-12.649-16.018-34.259-8.478-1.68.586-3.307 1.363-4.924 2.146-1.905.922-7.806.946-13.85-4.535-9.603-8.71-13.359-15.282-26.517-15.486-15.309-.238-17.717 21.561-29.616 27.14-7.572 3.551-27.55 7.08-31.682 8.653l149.457.787z" opacity=".1"/><path fill="#2A94F4" d="M296.201 643.923c1.009.062 26.483-2.997 27.641-26.686 1.158-23.688-15.076-29.555-10.803-55.926 4.273-26.372 15.48-33.949-9.638-53.197 0 0-11.2-7.75-11.722-18.622-.624-13.013-23.089-28.117-38.157-19.436-15.068 8.681-11.527 22.094 1.375 43.797 12.902 21.703.469 25.492-2.011 32.508-2.479 7.016-8.23 14.378 4.939 31.148s-2.52 37.245 8.69 53.303c.001.001 9.838 11.887 29.686 13.111z"/><g fill="#0B4870"><path d="M292.222 680.232a1.075 1.075 0 0 1-.791-1.242c13.684-72.305-14.21-170.91-14.493-171.897a1.074 1.074 0 1 1 2.067-.593c.285.992 28.317 100.089 14.539 172.89a1.076 1.076 0 0 1-1.322.842z"/><path d="M286.51 545.797a1.077 1.077 0 0 1-.718-1.482c.057-.128 5.743-12.906 8.076-23.817a1.076 1.076 0 0 1 2.104.45c-2.38 11.136-8.158 24.115-8.216 24.245-.217.484-.748.73-1.246.604zM290.189 567.671a1.076 1.076 0 0 1-.42-.214c-5.407-4.472-19.009-12.891-19.146-12.976a1.075 1.075 0 0 1-.349-1.48 1.068 1.068 0 0 1 1.48-.349c.563.348 13.864 8.582 19.386 13.148a1.074 1.074 0 0 1-.951 1.871zM293.243 588.969a1.076 1.076 0 0 1-.696-1.529l7.581-14.975a1.076 1.076 0 1 1 1.919.973l-7.581 14.975a1.076 1.076 0 0 1-1.223.556z"/></g><path fill="#FFF" d="m528.442 405.742-.941-2.685-.941 2.685c-.793 2.264-2.678 4.175-5.23 5.303 2.552 1.129 4.436 3.04 5.23 5.303l.941 2.686.941-2.686c.793-2.264 2.678-4.174 5.23-5.303-2.552-1.128-4.436-3.039-5.23-5.303zM686.133 375.362l-1.579-4.503-1.578 4.503c-1.33 3.796-4.49 7-8.769 8.893 4.279 1.893 7.439 5.097 8.769 8.893l1.578 4.503 1.579-4.503c1.33-3.796 4.49-7 8.769-8.893-4.279-1.894-7.439-5.098-8.769-8.893z"/><g opacity=".5"><path fill="#2A94F4" d="M765.797 657.866H369.778V444.052a3.485 3.485 0 0 1 3.485-3.485h389.049a3.485 3.485 0 0 1 3.485 3.485v213.814zM784.314 680.841H351.261a3.588 3.588 0 0 1-3.588-3.588v-19.386h440.23v19.386a3.59 3.59 0 0 1-3.589 3.588z"/><path fill="#FFF" d="m516.339 657.866 4.635 4.458a9.87 9.87 0 0 0 6.843 2.757h80.62a9.869 9.869 0 0 0 7.42-3.362l3.38-3.853H516.339z"/><path fill="#F7F7F7" d="M384.511 454.942h366.552v190.482H384.511z"/></g><path fill="none" stroke="#102236" stroke-linecap="round" stroke-linejoin="round" stroke-miterlimit="10" stroke-width=".375" d="M246.876 680.841h647.077"/><circle cx="577.418" cy="355.733" r="49.541" fill="#FFBE55"/><path fill="#FFBE55" d="M577.418 397.65c-23.114 0-41.917-18.804-41.917-41.917 0-23.113 18.804-41.917 41.917-41.917 23.113 0 41.917 18.804 41.917 41.917 0 23.113-18.804 41.917-41.917 41.917z"/><path fill="#FFF" d="M586.299 354.256c3.05-1.069 4.988-4.219 4.988-8.116 0-5.439-3.708-9.028-9.632-9.414v-4.859h-5.946v4.823h-2.73v-4.823h-5.947v4.823h-4.431v7.637h4.24v22.153h-4.24v7.633h4.431v5.485h5.947v-5.485h2.73v5.485h5.946v-5.495c6.482-.211 10.58-4.166 10.58-10.397-.001-4.806-2.268-8.488-5.936-9.45zm-11.956-9.929h5.814c.558 0 1.062.093 1.498.275 1.18.49 1.881 1.613 1.881 3.246 0 1.713-.701 2.914-1.881 3.44-.436.193-.94.297-1.498.297h-5.814v-7.258zm7.312 22.021a5.77 5.77 0 0 1-1.498.186l-5.814-.054v-7.848h5.814c.544 0 1.044.064 1.498.186 1.748.465 2.789 1.791 2.789 3.658 0 2.034-1.041 3.397-2.789 3.872z"/><circle cx="369.698" cy="446.947" r="32.075" fill="#FFBE55"/><path fill="#FFBE55" d="M369.698 474.086c-14.965 0-27.139-12.175-27.139-27.139s12.175-27.139 27.139-27.139 27.139 12.175 27.139 27.139-12.174 27.139-27.139 27.139z"/><path fill="#FFF" d="M385.577 445.054c-.469-2.804-3.124-4.803-5.949-4.487a5.422 5.422 0 0 0-4.695 4.244l-2.072.249a6.684 6.684 0 0 1-5.52-1.909l-1.475-1.475a5.423 5.423 0 0 0-1.069-6.238c-2.026-1.994-5.348-2.062-7.45-.148a5.423 5.423 0 0 0-.188 7.849 5.423 5.423 0 0 0 6.206 1.038l1.02 1.02a6.68 6.68 0 0 1 1.813 6.105l-.334 1.577a5.42 5.42 0 0 0-4.643 4.3c-.565 2.786 1.19 5.607 3.941 6.324a5.42 5.42 0 0 0 4.162-9.892 6.68 6.68 0 0 1 5.74-5.252l.29-.035a5.42 5.42 0 0 0 10.223-3.27z"/><path fill="#FFBE55" d="M550.715 725.612h64.149v9.148h-64.149z"/><path fill="#FFBE55" d="M582.79 712.641c-17.715 0-32.075 9.903-32.075 22.118 0 12.216 14.361 22.119 32.075 22.119 17.714 0 32.074-9.903 32.074-22.119.001-12.215-14.359-22.118-32.074-22.118z"/><ellipse cx="582.79" cy="725.612" fill="#FFBE55" rx="32.075" ry="22.119"/><path fill="#FFBE55" d="M582.79 744.327c-14.965 0-27.139-8.395-27.139-18.715s12.175-18.715 27.139-18.715c14.964 0 27.139 8.395 27.139 18.715s-12.174 18.715-27.139 18.715z"/><path fill="#FFF" d="M598.669 724.307c-.469-1.934-3.124-3.312-5.949-3.094-2.38.183-4.216 1.402-4.695 2.927l-2.072.172c-2.036.168-4.07-.317-5.52-1.317l-1.476-1.018c.99-1.403.638-3.143-1.069-4.301-2.026-1.375-5.348-1.422-7.45-.102-2.304 1.447-2.367 3.91-.188 5.412 1.679 1.158 4.184 1.394 6.206.716l1.02.703c1.598 1.102 2.279 2.686 1.813 4.21l-.334 1.088c-2.245.193-4.167 1.347-4.643 2.965-.565 1.921 1.19 3.867 3.941 4.361 3.016.542 6.042-.766 6.679-2.845.491-1.603-.589-3.179-2.517-3.977.591-1.93 2.9-3.387 5.74-3.622l.29-.024c.982 1.395 3.163 2.276 5.521 2.081 3.061-.253 5.218-2.216 4.703-4.335z"/><path fill="#B8B8B8" d="M565.036 535.714H421.361a1.032 1.032 0 0 1-1.031-1.031v-45.648a1.03 1.03 0 0 1 1.031-1.031h143.674c.569 0 1.031.462 1.031 1.031v45.648a1.03 1.03 0 0 1-1.03 1.031z" opacity=".16"/><path fill="#FFBE55" d="M576.284 522.383H438.478a1.01 1.01 0 0 1-1.01-1.01v-45.691c0-.558.452-1.01 1.01-1.01h137.806c.558 0 1.01.452 1.01 1.01v45.691a1.011 1.011 0 0 1-1.01 1.01z"/><path fill="#FFF" d="M554.528 492.392h-98.686a1.548 1.548 0 0 1-1.549-1.549c0-.857.692-1.549 1.549-1.549h98.686c.857 0 1.549.692 1.549 1.549a1.547 1.547 0 0 1-1.549 1.549zM501.441 507.762h-45.599a1.548 1.548 0 0 1-1.549-1.549c0-.856.692-1.549 1.549-1.549h45.599c.857 0 1.549.692 1.549 1.549s-.692 1.549-1.549 1.549z"/><path fill="#B8B8B8" d="M503.029 617.792H369.778V567.61c0-.566.459-1.025 1.025-1.025h132.226c.566 0 1.025.459 1.025 1.025v49.156c0 .567-.459 1.026-1.025 1.026z" opacity=".16"/><path fill="#FFBE55" d="M526.28 603.484H338.284a1.221 1.221 0 0 1-1.221-1.221v-48.765c0-.674.547-1.221 1.221-1.221H526.28c.674 0 1.221.547 1.221 1.221v48.765a1.22 1.22 0 0 1-1.221 1.221z"/><path fill="#FFF" d="M504.916 571.295H398.998a1.66 1.66 0 01-1.662-1.662 1.66 1.66 0 011.662-1.662h105.918a1.66 1.66 0 011.662 1.662 1.66 1.66 0 01-1.662 1.662zM447.938 587.792h-48.94c-.919 0-1.662-.743-1.662-1.662s.743-1.662 1.662-1.662h48.94c.919 0 1.662.743 1.662 1.662s-.742 1.662-1.662 1.662zM382.903 592.188H352.26c-.6 0-1.087-.487-1.087-1.087v-27.63c0-.6.487-1.087 1.087-1.087h30.643c.6 0 1.087.487 1.087 1.087v27.63c0 .601-.487 1.087-1.087 1.087z"/><path fill="#EBEDFD" d="M720.024 632.546H580.738a1.345 1.345 0 0 1-1.345-1.345v-80.64c0-.743.602-1.345 1.345-1.345h139.286c.743 0 1.345.602 1.345 1.345v80.64c0 .743-.602 1.345-1.345 1.345z"/><path fill="#FFF" d="M688.465 567.864h.988v49.446h-.988zM673.542 567.864h.988v49.446h-.988zM658.619 567.864h.988v49.446h-.988zM643.697 567.864h.988v49.446h-.988zM628.774 567.864h.988v49.446h-.988zM613.851 567.864h.988v49.446h-.988zM602.036 623h98.017v.988h-98.017z"/><path fill="#FFBE55" d="M636.798 615.666c-.396 0-.801-.049-1.209-.149-5.686-1.398-8.619-6.622-10.979-10.818-1.645-2.928-3.198-5.695-4.897-5.695-5.537 0-9.021 6.541-11.823 11.797a85.423 85.423 0 01-1.533 2.799 1.863 1.863 0 01-2.566.677 1.874 1.874 0 01-.677-2.566c.462-.795.947-1.705 1.464-2.675 3.1-5.818 7.345-13.786 15.135-13.786 3.898 0 5.973 3.697 8.172 7.609 2.21 3.935 4.495 8.003 8.6 9.013.344.086.58.049.858-.135 2.426-1.599 3.835-10.089 4.966-16.909 1.702-10.264 3.054-18.399 8.086-18.399.066 0 .135 0 .204.006 5.06.215 6.576 6.811 8.178 13.795 1.337 5.832 2.853 12.443 6.128 12.922 3.872.571 5.376-.746 7.288-2.402 1.774-1.536 3.998-3.439 8.011-3.077 3.585.33 5.614 2.692 7.402 4.776 2.448 2.847 4.736 5.534 11.298 4.874 1.039-.063 1.952.649 2.058 1.679a1.88 1.88 0 01-1.679 2.058c-8.499.864-11.837-3.034-14.524-6.162-1.808-2.104-2.925-3.304-4.9-3.487-2.437-.227-3.594.784-5.207 2.179-2.104 1.826-4.716 4.087-10.293 3.278-5.815-.85-7.557-8.447-9.242-15.795-1.105-4.808-2.477-10.792-4.679-10.887h-.023c-1.869 0-3.579 10.298-4.4 15.258-1.447 8.706-2.81 16.926-6.605 19.429a4.706 4.706 0 01-2.612.793zM507.387 721.216l-96.768-15.249a1.507 1.507 0 11.47-2.978l96.768 15.249a1.509 1.509 0 01-.47 2.978zM474.904 727.744H387.83a1.34 1.34 0 010-2.68h87.074a1.34 1.34 0 010 2.68z"/><path fill="#2A94F4" d="M606.705 274.343s2.678-3.08 4.319-4.491c2.956-2.542 6.345-7.035 17.185-3.723.843.257 1.659.599 2.47.943.956.405 3.916.415 6.948-1.992 4.817-3.825 6.701-6.711 13.301-6.801 7.68-.105 8.888 9.469 14.856 11.919 3.799 1.559 13.82 3.109 15.893 3.8l-74.972.345z" opacity=".1"/><path fill="#FA968C" d="M808.645 703.144s3.819 11.265 4.604 13.131c.648 1.54 2.038 2.573 3.356 3.601.422.329.841 1.072 1.197 1.698.286.503.268 1.097.039 1.629-3.999 9.286-14.825 12.511-15.035 11.786-.378-1.308 1.339-3.804 3.636-4.974 2.312-1.177 3.741-3.586 3.982-6.169a12.004 12.004 0 0 0-.991-6.009l-3.873-8.445 3.085-6.248zM792.617 716.098l-3.299 11.626a15.466 15.466 0 0 0 .846 10.715 3.378 3.378 0 0 1-2.1 4.67c-6.409 1.896-18.831 5.488-19.349 4.997-2.64-2.501 4.896-5.965 10.532-9.735 3.801-2.542 5.902-15.249 6.767-25.036l5.724 1.781c.443.151.777.524.879.982z"/><path fill="#0B4870" d="M780.295 741.786c-2.65.713-5.518.833-8.15 1.011-.302.02-.595.121-.844.293-2.615 1.805-3.988 3.69-2.588 5.016.563.533 15.161-3.748 20.856-5.444a2.027 2.027 0 0 0 1.252-2.807l-.954-2.052c-3.021 1.697-6.214 3.08-9.572 3.983zM794.903 584.782c6.87 1.327 12.327 9.632 10.619 18.475-.981 5.081-6.756 23.146-12.796 37.344-2.318 5.449-1.844 11.798 1.672 16.563a14.427 14.427 0 0 1 1.443 2.377c1.963 4.143 9.061 28.372 13.123 44.503-.508 2.054-1.891 4.617-3.495 5.447-7.942-13.945-20.709-39.306-22.796-43.713-1.159-2.448-2.418-5.274-3.305-7.911-5.212-7.752-1.831-49.271-.247-57.475 1.709-8.842 8.912-16.936 15.782-15.61z"/><ellipse cx="795.766" cy="534.844" fill="#0B4870" rx="13.768" ry="10.673" transform="rotate(-86.841 795.78 534.828)"/><path fill="#0B4870" d="M798.244 536.403c.589-7.6 7.102-13.656 14.725-13.671 6.762-.014 12.355 4.438 14.208 10.456.649 2.109 2.601 3.566 4.806 3.655.916.037 1.852.173 2.8.422 5.506 1.448 9.57 6.391 9.845 12.078.248 5.129-2.392 9.573-6.371 11.973-1.697 1.023-2.73 2.818-3.109 4.763-1.755 9-10.404 15.205-19.794 13.65-8.031-1.33-14.13-8.336-14.371-16.472-.148-4.991 1.809-9.453 4.994-12.671-4.976-2.699-8.202-8.131-7.733-14.183zM796.773 516.586s-6.204 3.443-5.755 8.567c0 0-3.077-2.445-3.371-10.296-.204-5.441 9.126 1.729 9.126 1.729z"/><path fill="#FAB9AF" d="M791.25 547.353c-.142 1.782-.533 3.755-1.591 5.71a10.664 10.664 0 0 1-2.157 2.677 10.44 10.44 0 0 1-2.891 1.752c-2.02.782-3.938.921-5.666.856-1.741-.067-3.349-.342-4.883-.707-3.064-.746-5.861-1.838-8.565-3.036a88.656 88.656 0 0 1-7.819-3.968c-5.042-2.863-9.848-6.01-14.52-9.323-4.673-3.316-9.197-6.798-13.479-10.652a1.145 1.145 0 0 1 1.432-1.783l.015.011c2.261 1.633 4.624 3.17 7.006 4.661a222.431 222.431 0 0 0 7.211 4.365c4.861 2.807 9.824 5.428 14.881 7.705 2.533 1.123 5.071 2.2 7.629 3.104 2.551.906 5.136 1.658 7.622 2.07 1.238.211 2.45.319 3.543.283 1.098-.023 2.049-.235 2.655-.541.604-.32.859-.616 1.132-1.155.247-.568.439-1.43.457-2.47a4.003 4.003 0 1 1 7.993.375l-.005.066z"/><path fill="#FFBE55" d="M786.901 573.536c-2.001-7.362-5.982-22.938-5.293-27.919a6.18 6.18 0 0 1 6.472-5.321l20.869 1.151a6.398 6.398 0 0 1 6.05 6.555c-.157 6.054-3.701 19.657-5.664 26.771l-22.434-1.237z"/><path fill="#0B4870" d="M785.999 715.881a1.081 1.081 0 0 1-.447-.984c1.288-15.325 3.3-34.839 3.845-38.57.062-.427.137-.847.222-1.259-2.288-18.326-.634-57.362-.584-64.211.066-9.006 6.035-18.843 13.031-18.791 6.997.051 14.173 7.692 15.96 16.045 1.179 5.512-6.132 34.097-13.482 54.701-1.547 4.337-2.008 8.963-1.602 13.55.28 3.172.237 6.423-.123 8.889-.536 3.672-5.498 18.47-10.084 31.122a1.08 1.08 0 0 1-.831.707c-2.03.331-4.113.033-5.905-1.199z"/><path fill="#FFBE55" d="M811.215 584.07a19.868 19.868 0 0 1-.429-9.512c1.461-7.338 4.069-21.17 4.226-27.094a5.844 5.844 0 0 0-5.532-5.987l-3.094-.171c-1.329 2.669-3.943 4.643-7.826 4.428-3.877-.214-6.258-2.463-7.288-5.262l-2.906-.16c2.785 6.935 1.158 15.791-4.562 20.696.813 3.624 1.464 7.262 1.938 10.208.643 3.99.036 8.077-1.721 11.716-3.021 6.254-5.7 16.403-5.295 20.506 21.61 7.433 37.399-2.742 37.399-2.742l-4.91-16.626z"/><path fill="#FAB9AF" d="m795.364 542.139 9.522-.472-2.424-10.525-6.165.42z"/><path fill="#FA968C" d="m796.297 531.562 6.165-.42.757 3.286c-1.456 1.47-3.402 4.711-5.63 4.588a3.553 3.553 0 0 1-1.899-.673l.607-6.781z"/><path fill="#FAB9AF" d="M795.809 536.558c2.079.114 4.385-.802 7.632-3.337 1.864-1.456 3.331-4.092 3.432-5.923l.558-10.124-15.587-.86s-1.466 5.311-.625 10.708c.633 4.049 2.955 9.447 4.59 9.536z"/><path fill="#FAB9AF" d="M804.337 525.238c-.109 1.975.748 3.629 1.915 3.693 1.166.064 2.595-2.454 2.704-4.429.109-1.975-1.143-2.66-2.31-2.724-1.166-.065-2.2 1.484-2.309 3.46z"/><path fill="#0B4870" d="M809.286 518.507a5.732 5.732 0 0 0-5.409-6.038l-5.261-.288a8.606 8.606 0 0 1-4.182-1.353c-1.798-1.156-4.164-.934-5.525.714-1.471 1.781-2.2 4.235 1.144 6.729 1.662 1.24 4.255.111 5.905.753.104.001.197-.01.305-.004l4.637.256c1.611.089 2.772 1.474 2.729 3.087a1.894 1.894 0 0 0 1.789 1.94l.206.011.874-2.338 2.396 3.633.392-7.102z"/><path fill="#FAB9AF" d="M730.587 524.279s2.498 4.898 1.255 6.156c-1.242 1.258-2.307 1.875-4.206.135-1.899-1.74-3.674-5.031-4.344-7.218s-.245-6.326.093-6.738c1.231-1.504 2.028 2.585 2.511 4.546.483 1.961 1.223 4.128 2.101 3.629.878-.499-.329-4.185.488-5.09.816-.904 2.102 4.58 2.102 4.58zM775.783 587.392s5.467-.586 6.199 1.024c.732 1.609.928 2.824-1.374 3.977-2.303 1.153-6.011 1.638-8.293 1.483-2.282-.154-5.997-2.028-6.262-2.491-.966-1.686 3.138-.972 5.142-.724 2.004.249 4.292.331 4.139-.668-.153-.998-4.027-1.186-4.581-2.272-.553-1.085 5.03-.329 5.03-.329z"/><path fill="#0B4870" d="M793.018 516.201c.395 2.342-.446 3.564 6.936 7.592s9.866 2.618 12.02 6.635c0 0-.68-6.495-4.745-8.935-4.065-2.441-11.247-4.285-13.294-9.53-.001-.001-1.187 2.638-.917 4.238z"/><path fill="#FAB9AF" d="M814.188 546.136c1.067 1.588 1.917 3.04 2.783 4.601a76.217 76.217 0 0 1 2.405 4.705c1.477 3.207 2.768 6.531 3.719 10.034.92 3.506 1.509 7.213 1.266 11.113-.137 1.945-.508 3.939-1.223 5.868a15.89 15.89 0 0 1-3.213 5.291c-1.394 1.536-3.049 2.76-4.773 3.682-1.728.926-3.522 1.569-5.31 2.044-1.792.471-3.581.733-5.357.932-1.775.142-3.541.223-5.285.176-6.985-.115-13.718-1.344-20.299-2.95a1.146 1.146 0 0 1 .394-2.253l.013.002c6.628.713 13.292 1.198 19.744.682 3.214-.273 6.37-.8 9.234-1.778 2.845-.995 5.345-2.512 6.896-4.568 1.574-2.031 2.261-4.601 2.289-7.419.015-2.823-.629-5.807-1.561-8.74-.92-2.946-2.173-5.861-3.614-8.698a84.586 84.586 0 0 0-2.26-4.217 85.55 85.55 0 0 0-2.455-3.997l-.052-.078a3.999 3.999 0 0 1 6.659-4.432z"/><path fill="#0B4870" d="M794.452 516.713s-.717 7.775-7.731 11.141c0 0 3.325-5.723 3.333-9.584s4.994-4.193 4.398-1.557zM820.2 726.044a1.39 1.39 0 0 0 .117-1.807c-.338-.449-1.234-1.678-1.908-2.601-.293-.401-.889-.345-1.127.091-2.699 4.928-6.958 8.652-12.267 9.087-1.773 1.061-3.006 3.61-2.707 4.646.07.243 2.407.405 4.943-.866 11.259-5.647 12.949-8.55 12.949-8.55z"/><circle cx="724.003" cy="492.392" r="34.551" fill="#FFBE55"/><path fill="#FFBE55" d="M724.003 521.625c-16.12 0-29.234-13.114-29.234-29.234 0-16.119 13.114-29.234 29.234-29.234 16.119 0 29.234 13.114 29.234 29.234s-13.115 29.234-29.234 29.234z"/><g fill="#FFF"><path d="m724.003 473.736-10.63 17.095 10.63 4.986 10.63-4.986z"/><path d="m724.003 511.047 10.63-17.095-10.63 6.957-10.63-6.957z"/></g></svg>