<svg xmlns="http://www.w3.org/2000/svg" width="793.75" height="710.142" viewBox="0 0 793.75 710.142">
  <g id="man-reading-book" transform="translate(-52.255 -126.594)">
    <path id="Path_878" data-name="Path 878" d="M793.75,793.75h0Z" transform="translate(52.255 42.985)" fill="#fff"/>
    <g id="Group_3154" data-name="Group 3154">
      <g id="Group_3137" data-name="Group 3137" transform="translate(-425.071 -333.541)">
        <ellipse id="Ellipse_108" data-name="Ellipse 108" cx="11.195" cy="10.894" rx="11.195" ry="10.894" transform="translate(1078.132 536.795)" fill="#ffeba6"/>
        <path id="Path_773" data-name="Path 773" d="M1015.048,598.03s42.793-47.072,46.858-45.36,28.885,36.588,28.885,36.588,30.383-32.737,33.164-30.811,4.493,6.2,4.493,6.2l-3,36.588-41.3-3.209-44.077.856Z" fill="#c4f1d3"/>
        <path id="Path_774" data-name="Path 774" d="M1073.68,462.952a4.605,4.605,0,0,0-1.023.02,4.224,4.224,0,0,0-1.833.8,30.875,30.875,0,0,0-11.226,4.974c-6.1,4.063-12.216,10.012-18.024,16.389s-11.3,13.189-16.088,18.961c-4.728,5.7-8.809,10.405-11.6,12.563-2,.2-3.992.428-5.987.712l-.513.073-.288.437c-2.456,3.684-4.545,10.489-6.427,19.027a292.912,292.912,0,0,0-4.643,28.959c-1.158,10.2-1.877,20.378-1.976,28.856s.339,15.153,1.8,18.815a1.743,1.743,0,0,0,.95.95,5.069,5.069,0,0,0,1.089.361,21.738,21.738,0,0,0,3.114.45c2.544.224,6.026.33,10.194.338,8.335.013,19.372-.336,30.66-.837,22.577-1,46.074-2.6,51.047-3.1a50.959,50.959,0,0,1,8.88.626c3.933.5,8.558,1.181,13.123,1.724a98.548,98.548,0,0,0,12.835.877c3.77-.072,6.856-.465,8.668-2.277a4.992,4.992,0,0,0,1.125-2.2,32.265,32.265,0,0,0,.851-3.492c.55-2.786,1.077-6.47,1.575-10.779,1-8.619,1.873-19.72,2.542-30.862s1.129-22.321,1.274-31.094c.072-4.386.058-8.171-.038-11.061-.051-1.445-.116-2.662-.215-3.637a8.385,8.385,0,0,0-.437-2.277,1.41,1.41,0,0,0-.877-.841,3.391,3.391,0,0,0-.761-.212,14.231,14.231,0,0,0-1.926-.175c-1.492-.056-3.4-.022-5.368.05-3.232.118-5.881.286-7.6.361l.013-.01c-4.486-4.486-14.959-17.18-25.07-28.883-5.055-5.851-10.038-11.464-14.195-15.747-2.078-2.142-3.949-3.956-5.544-5.305a11.04,11.04,0,0,0-4.091-2.575,14.77,14.77,0,0,0-1.973-.338,5.411,5.411,0,0,0-2.019-.622Zm-.341,2.873a13.331,13.331,0,0,1,1.658.033c.045.029.09.047.136.079a11.2,11.2,0,0,1,3.627,6.043c.641,2.538.44,5.089-.688,6.54s-3.257,2.262-7.629,1.013c-2.637-.754-4.67-3.7-5.4-6.454-.578-2.169-.266-3.116.513-3.9a10.133,10.133,0,0,1,4.342-1.9h.338l.348-.414a5.844,5.844,0,0,1,.834-.817,15.694,15.694,0,0,1,1.926-.222Zm6.285,1.946c.211.165.416.317.639.506,1.5,1.266,3.318,3.03,5.365,5.14,4.094,4.219,9.056,9.824,14.1,15.661,9.162,10.6,18.5,21.883,23.7,27.433h-48.611c-11.086,0-22.219-.584-33.384-.765-7.865-.127-15.743-.042-23.621.566,2.721-2.648,5.891-6.4,9.472-10.723,4.8-5.789,10.281-12.568,16.025-18.875s11.755-12.135,17.574-16.012c.615-.41,1.225-.785,1.833-1.148a7.558,7.558,0,0,0,.07,4.137c.893,3.349,3.209,7.011,7,8.1,4.869,1.391,8.333.475,10.134-1.84s1.866-5.557,1.112-8.542a15.847,15.847,0,0,0-1.413-3.634Zm-46.391,50.289c2.718-.022,5.441,0,8.165.04,11.109.179,22.254.748,33.42.748h50.074c1.411,0,5.455-.294,9.343-.437,1.944-.071,3.827-.1,5.2-.05a12.5,12.5,0,0,1,1.552.139,8,8,0,0,1,.212,1.261c.09.891.168,2.067.215,3.478.095,2.824.095,6.583.026,10.945-.144,8.724-.594,19.885-1.261,31s-1.554,22.172-2.542,30.72c-.494,4.274-1.01,7.929-1.539,10.607a30.525,30.525,0,0,1-.788,3.23,6.818,6.818,0,0,1-.55,1.251c-.847.848-3.491,1.531-7.056,1.6a97.207,97.207,0,0,1-12.52-.861c-4.519-.538-9.125-1.225-13.1-1.728a48.677,48.677,0,0,0-9.406-.626c-4.736.473-28.386,2.086-50.925,3.088-11.269.5-22.292.857-30.557.841-4.133-.006-7.579-.115-9.995-.328a20.428,20.428,0,0,1-2.763-.387,2.61,2.61,0,0,1-.44-.149c-1.105-2.893-1.708-9.424-1.612-17.686.1-8.368.812-18.487,1.963-28.621s2.733-20.293,4.59-28.721c1.808-8.2,3.944-14.59,5.931-17.749a190.347,190.347,0,0,1,24.359-1.6Zm71.907,7.807c-11.49.008-23.361.338-25.768.338a442.806,442.806,0,0,0-63.405,4.541l-.513.073-.288.44a15,15,0,0,0-1.675,5.153c-.468,2.319-.889,5.227-1.264,8.519-.75,6.584-1.33,14.715-1.764,22.654s-.725,15.674-.877,21.463c-.076,2.894-.111,5.3-.122,7.006-.005.851,0,1.516.013,2,.005.241,0,.442.013.6.005.08.013.147.026.238a1.1,1.1,0,0,0,.038.185c.013.043.064.162.064.166s.25.359.252.361a1.657,1.657,0,0,0,1.125.5,5.567,5.567,0,0,0,.99.026,21.875,21.875,0,0,0,2.264-.252c.789-.12,1.577-.254,2.214-.361s1.224-.175,1.2-.175c25.261,0,50.8,2.1,76.041,0a46.179,46.179,0,0,1,6.517.5c3.062.379,6.742.913,10.319,1.44s7.056,1.048,9.757,1.387c1.35.169,2.5.291,3.392.351.448.03.829.045,1.162.036a1.868,1.868,0,0,0,1.052-.2,1.8,1.8,0,0,0,.811-.837,5.155,5.155,0,0,0,.4-.953,19.824,19.824,0,0,0,.6-2.664c.37-2.158.7-5.075.986-8.529.58-6.907,1.016-15.934,1.314-24.931s.464-17.966.49-24.756c.013-3.395-.006-6.245-.066-8.29-.026-1.023-.067-1.834-.113-2.439-.026-.3-.038-.559-.076-.778a3.135,3.135,0,0,0-.073-.324,1.576,1.576,0,0,0-.089-.225,1.449,1.449,0,0,0-.073-.162,2.415,2.415,0,0,0-.176-.212,2.861,2.861,0,0,0-1.427-.728,14.578,14.578,0,0,0-1.876-.374c-1.463-.212-3.358-.361-5.567-.477-4.417-.232-10.078-.315-15.823-.311Zm0,2.34h0c5.723,0,11.361.07,15.7.3,2.169.114,4.015.269,5.352.463a12.723,12.723,0,0,1,1.575.314c.167.048.111.024.189.063.013.1.026.154.038.288.038.534.073,1.325.1,2.327.051,2,.074,4.837.064,8.218-.026,6.761-.189,15.716-.487,24.69-.058,1.788-.149,3.49-.218,5.262a27.4,27.4,0,0,1-5.663-6.712c-1.754-2.832-2.85-5.46-4.392-7.255a4.9,4.9,0,0,0-2.965-1.791,6.032,6.032,0,0,0-3.876.99c-2.8,1.61-6.355,5.035-11.785,11.17-9.055,10.229-10.892,11.956-11.971,13.06-1,1.025-1.637,1.933-6.116,7.837-2.916-4.244-6.059-9.17-9.217-14-3.274-5.009-6.561-9.888-9.644-13.748s-5.863-6.747-8.707-7.695a3.669,3.669,0,0,0-2.5.215,17.172,17.172,0,0,0-2.79,1.35,68.009,68.009,0,0,0-6.752,4.64,140.347,140.347,0,0,0-11.236,9.508c-5,4.937-12.444,14.309-17.9,21.148.154-5.741.44-13.332.867-21.138.433-7.912,1.009-16.011,1.751-22.515.371-3.252.779-6.106,1.224-8.317a15.764,15.764,0,0,1,1.188-3.866,440.51,440.51,0,0,1,62.406-4.465c2.605,0,14.319-.329,25.765-.338Zm-21.721,12.835a11.4,11.4,0,0,0-9.962,6.639,8.918,8.918,0,0,0-.364,6.579,10.083,10.083,0,0,0,5.266,5.544,14.755,14.755,0,0,0,6.732,1.413h.013l-.013-2.34.288,2.3a11.423,11.423,0,0,0,8.343-10.243,9.237,9.237,0,0,0-1.714-6.318,9.411,9.411,0,0,0-6.556-3.488,12.271,12.271,0,0,0-2.032-.086Zm.089,2.33a9.971,9.971,0,0,1,1.655.07,6.461,6.461,0,0,1,6.219,7.317,9.138,9.138,0,0,1-6.48,8.082,12.371,12.371,0,0,1-5.491-1.129,7.646,7.646,0,0,1-4.1-4.226,6.565,6.565,0,0,1,.288-4.865,9.05,9.05,0,0,1,7.913-5.249ZM1052.38,554.2c1.809.6,4.63,3.2,7.619,6.944s6.243,8.581,9.505,13.573,6.537,10.134,9.581,14.536a74.86,74.86,0,0,0,6.4,8.29c-22.4,1.126-45.148-.536-67.823-.536a9.526,9.526,0,0,0-1.589.2c-.653.109-1.427.25-2.178.364s-1.484.2-2.012.225c-.032,0-.045,0-.076,0-.006-.435-.005-.986,0-1.728.006-.983.045-2.645.073-4.074l.325.261c5.507-6.884,14.072-17.766,19.278-22.906a141.866,141.866,0,0,1,11.008-9.293,66.55,66.55,0,0,1,6.5-4.478,15.513,15.513,0,0,1,2.4-1.175,3.983,3.983,0,0,1,.986-.2Zm61.29,2.476a1.92,1.92,0,0,1,.427.017,2.469,2.469,0,0,1,1.526,1c1.119,1.3,2.327,3.961,4.18,6.953a29.116,29.116,0,0,0,7.533,8.35c-.263,6.079-.566,11.948-.963,16.68-.287,3.418-.614,6.3-.963,8.33a18.6,18.6,0,0,1-.526,2.353,2.507,2.507,0,0,1-.149.364c-.211,0-.507,0-.89-.026-.81-.054-1.936-.184-3.263-.351-2.655-.333-6.129-.85-9.707-1.377s-7.266-1.065-10.369-1.45a40.847,40.847,0,0,0-6.993-.5c-1.607.134-3.217.246-4.829.348a49.237,49.237,0,0,1-6.586-7.923c5.126-6.751,5.417-7.235,6.384-8.224.993-1.017,2.973-2.883,12.047-13.132,5.377-6.074,8.928-9.393,11.193-10.7a4.712,4.712,0,0,1,1.949-.715Z" fill="#add3d8"/>
      </g>
      <path id="Path_775" data-name="Path 775" d="M413.565,164.592a1.169,1.169,0,0,0-.814.374,65.686,65.686,0,0,1-11.746,9.644,117.787,117.787,0,0,0-13.635,10.4,1.166,1.166,0,1,0,1.566,1.728,117.014,117.014,0,0,1,13.321-10.144,67.994,67.994,0,0,0,12.222-10.045,1.166,1.166,0,0,0-.914-1.953Zm.851,10.693a1.169,1.169,0,0,0-.639.228L395.8,188.785a1.167,1.167,0,1,0,1.386,1.877L415.163,177.4a1.171,1.171,0,0,0-.748-2.115ZM304.027,165.2a1.169,1.169,0,0,0-.814.374,65.69,65.69,0,0,1-11.746,9.644,117.784,117.784,0,0,0-13.635,10.4,1.166,1.166,0,1,0,1.566,1.728,117.005,117.005,0,0,1,13.321-10.144,67.992,67.992,0,0,0,12.222-10.045,1.166,1.166,0,0,0-.914-1.953Zm.851,10.693a1.169,1.169,0,0,0-.639.228L286.265,189.39a1.167,1.167,0,1,0,1.387,1.877l17.974-13.262a1.171,1.171,0,0,0-.748-2.115Z" fill="#add3d8"/>
      <path id="Path_776" data-name="Path 776" d="M246.391,126.594l-.337.563c-1.694,2.794-3.041,7.646-4.316,14.211s-2.425,14.81-3.439,24.13c-2.028,18.64-3.533,41.6-4.518,63.968s-1.445,44.147-1.35,60.43c.045,8.141.236,14.9.563,19.7a57.106,57.106,0,0,0,.6,5.693,9.72,9.72,0,0,0,.44,1.724,2.77,2.77,0,0,0,.351.675,1.523,1.523,0,0,0,.887.639,6.094,6.094,0,0,0,1.277.126c.573.032,1.33.051,2.264.073,1.868.038,4.452.069,7.655.076,6.406.013,15.287-.038,25.828-.126,21.082-.18,48.791-.533,76.518-.95s55.472-.894,76.627-1.3c10.578-.2,19.509-.385,25.967-.539,3.229-.078,5.839-.152,7.731-.212s2.958-.091,3.478-.149a1.566,1.566,0,0,0,1.013-.563,2.655,2.655,0,0,0,.427-.7,8.958,8.958,0,0,0,.5-1.764,54.851,54.851,0,0,0,.712-5.865c.409-4.961.692-11.965.877-20.364.37-16.8.351-39.158.162-61.631s-.551-45.062-.864-62.293c-.156-8.616-.3-15.886-.4-21.142s-.176-8.573-.176-9.005a1.358,1.358,0,0,0-.712-1.188,2.918,2.918,0,0,0-.738-.311,13.964,13.964,0,0,0-1.976-.4c-1.646-.241-3.993-.461-6.97-.665-5.954-.408-14.427-.751-24.59-1.049-20.327-.6-47.4-.986-74.489-1.251-54.172-.53-108.34-.539-108.34-.539Zm1.476,2.34c.8,0,53.749.013,107.5.539,27.078.265,54.156.656,74.453,1.251,10.148.3,18.6.646,24.491,1.049,2.947.2,5.267.415,6.795.639a12.375,12.375,0,0,1,1.436.288c.005.938.065,3.5.162,8.343.105,5.255.258,12.538.414,21.152.312,17.227.662,39.8.851,62.257s.22,44.814-.149,61.565c-.185,8.376-.475,15.36-.877,20.228a53.182,53.182,0,0,1-.688,5.59,7.747,7.747,0,0,1-.311,1.178c-.38.026-1.236.07-2.876.122-1.882.058-4.492.138-7.718.215-6.452.155-15.382.333-25.957.536-21.151.407-48.89.885-76.614,1.3s-55.432.77-76.5.95c-10.536.09-19.415.141-25.8.126-3.195-.006-5.765-.032-7.605-.073-.92-.019-1.659-.032-2.191-.064-.3-.013-.32-.025-.473-.038a8.126,8.126,0,0,1-.3-1.211c-.218-1.225-.416-3.076-.576-5.431-.321-4.71-.5-11.449-.549-19.563-.094-16.227.357-37.981,1.34-60.317s2.5-45.259,4.514-63.819c1.01-9.28,2.147-17.466,3.4-23.928,1.2-6.191,2.555-10.572,3.839-12.884Zm9.631,15.174-.113,1.1s-1.665,16.646-2.952,33.837c-.644,8.6-1.2,17.323-1.4,24.193-.1,3.435-.11,6.4,0,8.678a26.974,26.974,0,0,0,.275,2.9,4.3,4.3,0,0,0,.652,1.989,3.107,3.107,0,0,0,2.111,1.138,23.32,23.32,0,0,0,3.24.526c2.6.274,6.071.416,10.157.463,8.173.1,18.775-.208,29.383-.738s21.212-1.286,29.373-2.1c4.08-.408,7.545-.83,10.117-1.251,1.286-.21,2.338-.422,3.164-.639a3.555,3.555,0,0,0,1.989-.887,3.156,3.156,0,0,0,.814-1.777,21.4,21.4,0,0,0,.388-2.552c.213-2.019.342-4.672.414-7.768.143-6.191.053-14.127-.139-21.966-.379-15.678-1.139-30.971-1.139-30.971l-.053-1.076Zm2.115,2.413,81.919,2.952c.053,1.008.737,14.737,1.1,29.833.189,7.82.277,15.746.136,21.867-.07,3.06-.2,5.663-.4,7.566a20.253,20.253,0,0,1-.337,2.267,3.314,3.314,0,0,1-.212.609,5.466,5.466,0,0,1-.9.341c-.7.185-1.709.382-2.952.586-2.487.407-5.93.823-9.982,1.228-8.1.81-18.683,1.573-29.257,2.1s-21.142.819-29.234.725c-4.046-.047-7.482-.19-9.945-.45a21.48,21.48,0,0,1-2.889-.463,4.3,4.3,0,0,1-.814-.324,5.03,5.03,0,0,1-.235-.913,25.058,25.058,0,0,1-.238-2.641c-.105-2.172-.1-5.091,0-8.492.2-6.8.744-15.514,1.387-24.09,1.243-16.6,2.751-31.678,2.853-32.7Zm101.869.626-.064,1.139s-.76,15.293-1.139,30.971c-.189,7.839-.282,15.775-.139,21.966.071,3.1.2,5.749.414,7.768a21.027,21.027,0,0,0,.4,2.552,3.139,3.139,0,0,0,.8,1.777,3.294,3.294,0,0,0,2.025.851c.828.18,1.888.33,3.167.473,2.559.286,6,.521,10.055.7,8.106.361,18.626.513,29.158.437s21.069-.372,29.184-.923c4.057-.276,7.506-.616,10.081-1.026a24.493,24.493,0,0,0,3.2-.688,3.266,3.266,0,0,0,2.052-1.175,4.409,4.409,0,0,0,.675-1.84,21.84,21.84,0,0,0,.311-2.578c.145-2,.169-4.574.126-7.529-.086-5.911-.484-13.354-.976-20.665-.985-14.622-2.34-28.707-2.34-28.707l-.1-1.026-1.036-.023Zm2.241,2.4,82.518,2.363c.093.965,1.307,13.559,2.254,27.609.491,7.289.892,14.706.976,20.539.042,2.917,0,5.432-.139,7.318a20.127,20.127,0,0,1-.275,2.3,4.1,4.1,0,0,1-.252.851,4.411,4.411,0,0,1-.851.387,23.194,23.194,0,0,1-2.889.6c-2.45.39-5.864.727-9.882,1-8.036.546-18.534.851-29.032.927s-21-.082-29.045-.44c-4.022-.179-7.429-.412-9.9-.688-1.233-.138-2.232-.286-2.926-.437a5.114,5.114,0,0,1-.861-.285,3.223,3.223,0,0,1-.2-.589,19.687,19.687,0,0,1-.337-2.264c-.2-1.9-.33-4.509-.4-7.569-.141-6.121-.053-14.047.136-21.867.364-15.058,1.049-28.682,1.1-29.757Zm-18.2,79.268-1.152.063-91.288,4.9.013,1.115s.147,15.28.374,31.094c.113,7.907.249,15.948.391,22.28.071,3.166.15,5.907.225,7.993s.123,3.443.225,4.154a3.366,3.366,0,0,0,1.7,2.277,12.8,12.8,0,0,0,3.214,1.374,61.24,61.24,0,0,0,10.283,1.89,291.889,291.889,0,0,0,30.372,1.44c11.035.038,22.113-.326,30.657-.963,4.272-.318,7.9-.7,10.607-1.152a26.477,26.477,0,0,0,3.339-.738,3.358,3.358,0,0,0,2.115-1.2,4.489,4.489,0,0,0,.675-1.976,29.021,29.021,0,0,0,.351-2.952c.178-2.326.26-5.361.275-8.88.026-7.038-.222-16-.562-24.819-.681-17.643-1.738-34.751-1.738-34.751Zm-2.191,2.449c.067,1.078,1.02,16.525,1.678,33.549.34,8.8.578,17.731.549,24.706-.011,3.488-.092,6.492-.261,8.717-.085,1.113-.191,2.034-.314,2.7a6.171,6.171,0,0,1-.261.97,5.521,5.521,0,0,1-.913.407,25.556,25.556,0,0,1-3.051.652c-2.581.428-6.166.823-10.4,1.139-8.459.63-19.506.988-30.485.95a290.006,290.006,0,0,1-30.094-1.426,60.087,60.087,0,0,1-9.869-1.787,11.024,11.024,0,0,1-2.628-1.115c-.547-.354-.655-.6-.662-.649-.051-.348-.141-1.838-.215-3.905s-.141-4.793-.212-7.953c-.142-6.32-.273-14.363-.387-22.267-.219-15.241-.354-28.935-.364-29.972Zm18.15,2.416-.064,1.152s-.76,15.28-1.139,30.958c-.189,7.839-.282,15.775-.139,21.966.071,3.1.2,5.762.414,7.781a20.766,20.766,0,0,0,.4,2.538,3.167,3.167,0,0,0,.8,1.787,3.282,3.282,0,0,0,2.025.841c.828.18,1.888.343,3.167.486,2.559.286,6,.508,10.055.688,8.106.361,18.626.513,29.158.437s21.069-.376,29.184-.927c4.057-.276,7.506-.613,10.081-1.023a24.667,24.667,0,0,0,3.2-.678,3.283,3.283,0,0,0,2.052-1.188,4.337,4.337,0,0,0,.675-1.824,22.1,22.1,0,0,0,.311-2.591c.145-2,.169-4.561.126-7.516-.086-5.911-.484-13.367-.976-20.678-.985-14.622-2.34-28.694-2.34-28.694l-.1-1.026-1.036-.037Zm2.241,2.413,82.518,2.353c.092.955,1.307,13.55,2.254,27.605.491,7.289.892,14.706.976,20.539.042,2.917,0,5.445-.139,7.331a20.2,20.2,0,0,1-.275,2.3,4.059,4.059,0,0,1-.244.834,4.586,4.586,0,0,1-.857.391,22.89,22.89,0,0,1-2.889.612c-2.45.39-5.864.727-9.882,1-8.036.546-18.534.838-29.032.913s-21-.066-29.045-.424c-4.022-.179-7.429-.412-9.9-.688-1.233-.138-2.232-.286-2.926-.437a4.6,4.6,0,0,1-.861-.295,3.081,3.081,0,0,1-.2-.582,19.687,19.687,0,0,1-.337-2.264c-.2-1.9-.33-4.519-.4-7.579-.141-6.121-.053-14.033.136-21.853.364-15.058,1.049-28.685,1.1-29.76Z" fill="#add3d8"/>
      <path id="Path_777" data-name="Path 777" d="M349.42,230.147a1.458,1.458,0,0,0-1.466,1.45v4.14a1.456,1.456,0,0,0,2.912,0V231.6A1.454,1.454,0,0,0,349.42,230.147Zm-8.34,8.324a1.456,1.456,0,0,0,0,2.912h4.14a1.456,1.456,0,0,0,0-2.912Zm12.523,0a1.456,1.456,0,0,0,0,2.912h4.14a1.456,1.456,0,0,0,0-2.912Zm-4.183,4.2a1.455,1.455,0,0,0-1.466,1.446v4.14a1.456,1.456,0,0,0,2.912,0v-4.14A1.451,1.451,0,0,0,349.42,242.671Z"/>
      <path id="Path_778" data-name="Path 778" d="M305.8,602.7c26.986-72.47,81.37-57.163,74.657-102.429-2.209-14.9-22.466-20.124-22.658-29.829-.552-28,17.392-38.22,16.85-65.654-13.438-78.345-99.6,7.77-68.846,77.564-8.772,22.907-11.791,152,0,120.349Z" fill="#add3d8"/>
      <g id="Group_3138" data-name="Group 3138" transform="translate(519.796 -498.05)">
        <path id="Path_779" data-name="Path 779" d="M-131.46,979.633l6.363,24.53-3.231,32.885s25.816,5.183,50.089,5.692,25.034-28.257,25.034-28.257l-25.248-17.692-25.462-1.474Z" fill="#a0bfce"/>
        <path id="Path_780" data-name="Path 780" d="M-40.408,1017.57c3.877,13.773,58.668,208.317,62.16,216.347,3.618,8.319,5.663,6.8,7.8,3,2.058-3.651-36.994-211.137-40.1-227.621Zm-100.288,13.7c-12.427,42.363-55.331,197.4-56.932,205.214-1.854,9.052.567,9.381,4.329,8.035,3.426-1.226,68.928-173.106,81.578-203.871-8.932-1.634-22.451-6.776-28.975-9.376Zm56.018,12.26c.641,12.761,9.72,193.018,11.283,200.782,1.62,8.043,3.939,7.28,6.863,4.6,2.811-2.573,11.851-189.735,12.565-204.607Z" fill="#f09b00"/>
        <path id="Path_781" data-name="Path 781" d="M-97.321,1041.547l.125,1.331c.6,6.381,5.162,54.637,9.807,102.27,2.322,23.816,4.671,47.466,6.555,65.66.942,9.1,1.763,16.829,2.414,22.533.326,2.852.607,5.2.838,6.962s.392,2.88.55,3.525a21.167,21.167,0,0,0,1.651,4.755,4.781,4.781,0,0,0,2.264,2.384,3.4,3.4,0,0,0,2.8-.215,9.8,9.8,0,0,0,2.289-1.737,1.337,1.337,0,0,0,.438-.761,5.416,5.416,0,0,0,.15-.66c.092-.49.171-1.113.25-1.89.158-1.553.31-3.709.45-6.416.281-5.414.536-13,.763-22.077.455-18.152.8-42.25,1.076-66.738.542-48.977.758-99.5.788-106.936v-1.154Zm2.577,2.435,28.282.723c-.033,8.278-.239,57.3-.776,105.732-.271,24.483-.622,48.583-1.076,66.713-.227,9.065-.484,16.641-.763,22.014-.139,2.686-.275,4.824-.425,6.3-.075.739-.156,1.316-.225,1.686-.023.124-.045.185-.063.254a8.207,8.207,0,0,1-1.564,1.217c-.456.23-.653.231-.876.139a2.689,2.689,0,0,1-1.088-1.293,19.364,19.364,0,0,1-1.438-4.21c-.08-.324-.285-1.533-.513-3.272s-.5-4.066-.826-6.911c-.649-5.689-1.473-13.415-2.414-22.508-1.882-18.186-4.232-41.847-6.555-65.66-4.584-47.007-8.987-93.559-9.682-100.925Zm76.2-19.947-.813.259-28.132,8.619.325.991s15.733,48.835,31.922,98.616c8.095,24.89,16.3,50.01,22.716,69.4,3.206,9.693,5.96,17.955,8.031,24.032,1.035,3.039,1.9,5.539,2.564,7.4s1.1,3.034,1.388,3.634a22.773,22.773,0,0,0,2.527,4.338,4.054,4.054,0,0,0,2.414,1.709,2.612,2.612,0,0,0,2.239-.905,9.994,9.994,0,0,0,1.551-2.327,1.348,1.348,0,0,0,.163-.79,6.866,6.866,0,0,0-.025-.718c-.042-.547-.121-1.26-.25-2.141-.259-1.761-.7-4.2-1.276-7.254-1.153-6.106-2.886-14.631-5.028-24.751C17.489,1183.9,11.6,1157.252,5.663,1130.71c-11.878-53.084-23.979-105.726-23.979-105.726Zm-1.2,2.4c.214.931,12,52.164,23.767,104.764,5.938,26.538,11.817,53.182,16.1,73.405,2.141,10.111,3.881,18.618,5.028,24.693.574,3.038,1,5.477,1.251,7.182.125.853.2,1.528.238,1.982.016.207.026.35.025.445a8.58,8.58,0,0,1-1.163,1.767c-.37.383-.594.474-.876.431s-.754-.309-1.388-1.106a21.206,21.206,0,0,1-2.289-3.95c-.169-.355-.656-1.606-1.313-3.448s-1.518-4.322-2.552-7.355c-2.067-6.066-4.826-14.328-8.031-24.018-6.41-19.38-14.609-44.509-22.7-69.4-16.023-49.269-31.281-96.615-31.6-97.6Z"/>
        <path id="Path_782" data-name="Path 782" d="M-70.589,988.945l-91.1,2.432-.334.569c-2.895,5.005-4.374,9.58-4.569,13.793a19.2,19.2,0,0,0,3.034,11.347c4.21,6.633,12.185,11.448,21.979,15.514h.013c24.212,9.825,61.2,16.2,97.672,3.328,30.835-10.882,41.46-21.5,44.279-30.089a14.949,14.949,0,0,0-2.823-14.49l-.31-.327ZM-70.6,991.6l66.84,2.048c.407.419,4.21,4.458,1.981,11.248-2.348,7.15-12.224,17.694-42.793,28.483-35.838,12.648-72.4,6.375-96.211-3.285h-.013c-9.608-3.991-17.2-8.762-20.889-14.575a16.038,16.038,0,0,1-2.588-9.641c.159-3.434,1.508-7.419,3.987-11.874Z"/>
        <ellipse id="Ellipse_109" data-name="Ellipse 109" cx="80.184" cy="13.555" rx="80.184" ry="13.555" transform="translate(-162.141 979.935)"/>
        <path id="Path_783" data-name="Path 783" d="M-153.951,1023.277l-.367,1.612s-12.107,52.647-23.985,105.733c-5.939,26.543-11.822,53.2-16.108,73.438-2.143,10.121-3.886,18.638-5.04,24.75-.577,3.056-1.007,5.506-1.268,7.278-.13.886-.218,1.6-.261,2.163a7.171,7.171,0,0,0-.026.768,1.589,1.589,0,0,0,.215.962,10.235,10.235,0,0,0,1.608,2.41,2.942,2.942,0,0,0,2.5,1.007,4.36,4.36,0,0,0,2.608-1.836,23.083,23.083,0,0,0,2.575-4.413c.3-.632.716-1.75,1.354-3.531s1.462-4.164,2.452-7.066c1.98-5.8,4.616-13.683,7.685-22.953,6.137-18.539,14.009-42.63,21.85-66.73,15.682-48.2,31.232-96.43,32.48-100.3l.506-1.566-1.44-.232c-10.406-1.658-26.043-10.737-26.043-10.737Zm1.539,3.839c1.885,1.094,13.828,7.844,24.084,9.928-1.624,5.037-16.56,51.37-32.02,98.888-7.84,24.1-15.715,48.185-21.85,66.714-3.067,9.265-5.7,17.139-7.675,22.926-.987,2.894-1.81,5.266-2.439,7.024s-1.1,2.965-1.241,3.269a21.025,21.025,0,0,1-2.247,3.884c-.607.762-1.022.962-1.195.988s-.295,0-.622-.338a8.5,8.5,0,0,1-1.046-1.612c0-.084,0-.154.013-.3.033-.436.114-1.1.238-1.95.249-1.695.675-4.126,1.248-7.161,1.146-6.069,2.887-14.572,5.027-24.682,4.281-20.22,10.16-46.867,16.1-73.4,11.7-52.3,23.282-102.671,23.627-104.175Z"/>
      </g>
      <path id="Path_784" data-name="Path 784" d="M252.515,592.558c-25.191-6.707-102.577-11.706-97.5-47.91,1.67-11.914,28.349-17.093,27.765-24.791-1.683-22.212-26.6-29.388-28.25-51.151,11.218-62.755,134.077,1.057,98.921,57.924,13.73,17.7,41.367,56.282-.933,65.928Z" fill="#add3d8"/>
      <path id="Path_785" data-name="Path 785" d="M345.51,399.875q-.048,0-.1,0a1.169,1.169,0,0,0-.927.6c-13.624,24.265-28.928,71.441-40.9,112.665s-20.576,76.438-20.576,76.438a1.17,1.17,0,1,0,2.274.553s8.593-35.173,20.553-76.342,27.337-88.394,40.691-112.179a1.178,1.178,0,0,0-1.016-1.741ZM192.981,466.451a1.17,1.17,0,0,0-.626,2.151c26.64,17.361,46.966,47.562,60.569,73.45a330.9,330.9,0,0,1,20.5,47.4,1.171,1.171,0,0,0,2.227-.725A333.27,333.27,0,0,0,255,540.963c-13.7-26.072-34.145-56.584-61.367-74.324a1.169,1.169,0,0,0-.652-.189Zm171.252,33.894-.07,0a1.169,1.169,0,0,0-.437.126c-41.179,21.511-58.98,78.368-58.98,78.368a1.175,1.175,0,1,0,2.241.712s17.9-56.163,57.815-77.014a1.161,1.161,0,0,0-.569-2.194Z" fill="#fff"/>
      <path id="Path_786" data-name="Path 786" d="M284.145,589.859c-22.768-14.433-97.556-40.682-81.307-81.306,5.347-13.368,33.275-12.319,35.09-21.4,5.238-26.191-17.114-41.1-11.982-66.757,2.9-14.493,23.742-10.459,26.532-18.829,3.267-9.8-2.67-58.773,28.243-40.225,7.6,4.563,12.156,11.561,15.405,19.685,5.6,14-1.076,30.15,3.423,43.649,5.538,16.615,20.918,24.749,17.973,45.361-1.641,11.484-15.675,32.571-11.982,43.649,8.048,24.144,23.328,76.171-21.4,76.171Z" fill="#2bb65e"/>
      <path id="Path_787" data-name="Path 787" d="M266.39,432.089a1.17,1.17,0,0,0-1.038,1.476c24.435,89.944,2.227,170.469,2.227,170.469a1.168,1.168,0,1,0,2.252.625s22.395-81.077-2.227-171.707a1.169,1.169,0,0,0-1.213-.863Z" fill="#fff"/>
      <path id="Path_788" data-name="Path 788" d="M261.048,356.624a11.977,11.977,0,0,0-7.73,1.213c-4.307,2.395-6.627,7.421-8.056,13.134A105.911,105.911,0,0,0,242.91,388.9c-.387,5.692-.7,10.661-1.388,12.734-.551,1.652-2.009,2.76-4.265,3.728s-5.189,1.7-8.193,2.639a28.651,28.651,0,0,0-8.681,4.015,13.763,13.763,0,0,0-5.429,8.581c-2.639,13.193,1.813,23.656,6.1,33.861s8.427,20.158,5.879,32.9c-.34,1.7-2.012,3.139-4.841,4.466a99.346,99.346,0,0,1-10.595,3.74,63.183,63.183,0,0,0-11.6,4.7c-3.532,2-6.524,4.608-7.993,8.281-4.193,10.483-2.495,20.227,2.727,28.858s13.887,16.243,23.717,23.016c19.66,13.547,44.16,23.781,55.326,30.859l.275.175h.35c11.408,0,19.226-3.365,24.2-8.894s7.053-13.064,7.443-21.24c.78-16.351-5.11-35.47-9.144-47.57-1.636-4.907.733-12.822,3.965-20.865s7.2-16.148,8.068-22.253c1.516-10.609-1.749-18.17-5.979-24.955s-9.361-12.886-12.046-20.94c-2.151-6.452-1.646-13.713-1.238-21.2s.7-15.209-2.214-22.5c-3.3-8.259-8.006-15.536-15.886-20.264a28.931,28.931,0,0,0-10.432-4.14Zm-.25,2.3a26.889,26.889,0,0,1,9.482,3.853c7.329,4.4,11.727,11.124,14.923,19.113,2.684,6.709,2.445,14.055,2.039,21.515s-.985,15.019,1.363,22.065c2.854,8.561,8.175,14.851,12.284,21.44s7.07,13.389,5.641,23.391c-.768,5.379-4.659,13.561-7.931,21.7s-6.072,16.306-4.015,22.478c4.015,12.044,9.793,31.022,9.044,46.72-.374,7.849-2.37,14.808-6.855,19.789-4.447,4.94-11.44,8.042-22.241,8.093-11.711-7.339-35.643-17.362-54.851-30.6-9.682-6.671-18.1-14.135-23.041-22.3s-6.5-16.94-2.564-26.769c1.2-3.011,3.715-5.282,6.98-7.13a61.716,61.716,0,0,1,11.17-4.5,98.128,98.128,0,0,0,10.857-3.853c3.086-1.447,5.574-3.278,6.142-6.117,2.69-13.451-1.724-24.051-6.017-34.261s-8.448-20.03-5.954-32.5a11.191,11.191,0,0,1,4.528-7.167,26.759,26.759,0,0,1,7.981-3.653c2.917-.911,5.891-1.644,8.418-2.727s4.722-2.608,5.566-5.141c.943-2.828,1.116-7.655,1.5-13.322a104.539,104.539,0,0,1,2.277-17.512c1.36-5.436,3.553-9.781,6.93-11.658a9.66,9.66,0,0,1,6.342-.951Z" fill="#0f0603"/>
      <path id="Path_789" data-name="Path 789" d="M241.16,579.083c.645,29.233,41.922,29.883,14.835,77.306s-10.962,90.49-10.962,90.49h76.1s16.126-43.067-10.962-90.49S324.36,608.316,325,579.083H241.16Z" fill="#f09b00"/>
      <path id="Path_790" data-name="Path 790" d="M219.632,579.2l.025,1.179c.167,7.475,3,13.189,6.617,18.136s7.992,9.2,11.42,13.891,5.924,9.772,5.992,16.572-2.336,15.393-9.044,26.963C207.3,703.1,223.61,746.088,223.61,746.088l.275.745H301.6l.288-.745s16.3-42.989-11.045-90.148c-6.707-11.57-9.112-20.162-9.044-26.963s2.576-11.88,6-16.572,7.792-8.943,11.408-13.891,6.462-10.661,6.63-18.136l.026-1.179H219.632Zm2.6,2.321h81.031a29.054,29.054,0,0,1-5.942,15.641c-3.459,4.733-7.834,8.97-11.42,13.878s-6.369,10.552-6.442,17.913,2.52,16.35,9.357,28.142c26.138,45.084,11.864,85.321,11.1,87.417H225.574c-.769-2.1-15.042-42.333,11.1-87.417,6.836-11.792,9.43-20.781,9.357-28.142s-2.856-13-6.442-17.913-7.949-9.145-11.408-13.878a29.054,29.054,0,0,1-5.942-15.641Z" fill="#2bb65e"/>
      <path id="Path_791" data-name="Path 791" d="M401.409,540.282l19.12,4.86,1.984,12.708s-10.137,1.967-10.893,1.891-12.406-2.95-12.406-2.95Z" fill="#fff"/>
      <path id="Path_792" data-name="Path 792" d="M560.092,688.684s17.7-21.8,18.448-21.387,35.247,13.562,35.247,13.562c96.566,88.362-49.338,37.214-53.694,7.825Z" fill="#2bb65e"/>
      <path id="Path_793" data-name="Path 793" d="M545.956,685.277l-.042.363c-.216,2.317,1.394,4.483,3.846,6.832a66.405,66.405,0,0,0,10.124,7.541,284.668,284.668,0,0,0,30.979,16.346c11.339,5.249,22.758,9.962,31.476,13.127,4.359,1.582,8.041,2.773,10.734,3.459a20.492,20.492,0,0,0,3.314.635,4.668,4.668,0,0,0,1.222-.042,1.65,1.65,0,0,0,1.253-.942,2.611,2.611,0,0,0-.108-2.08,16.756,16.756,0,0,0-1.032-2.37c-.93-1.817-2.325-4.125-4.032-6.777-3.414-5.3-8.094-11.971-12.831-18.509-9.474-13.077-19.146-25.645-19.146-25.645l-.215-.259-.3-.119s-8.626-3.285-17.343-6.624c-4.358-1.67-8.733-3.351-12.071-4.641-1.669-.645-3.076-1.2-4.087-1.6-.506-.2-.911-.35-1.2-.466s-.608-.274-.409-.166l-.265-.117s-.167-.026-.24-.032a1.342,1.342,0,0,0-.716.165,2.354,2.354,0,0,0-.4.266,9.736,9.736,0,0,0-.774.718c-.587.588-1.337,1.418-2.227,2.42-1.78,2-4.065,4.692-6.327,7.395-4.525,5.407-8.965,10.859-8.965,10.859Zm2.409.754c.346-.426,4.24-5.216,8.563-10.38,2.255-2.694,4.537-5.377,6.286-7.346.875-.984,1.621-1.8,2.145-2.322.144-.145.213-.2.318-.3.3.117.675.269,1.16.46,1.019.4,2.433.945,4.1,1.591,3.342,1.292,7.722,2.977,12.082,4.647,8.558,3.278,16.713,6.389,17.022,6.507.19.247,9.563,12.424,18.916,25.334,4.724,6.521,9.393,13.167,12.762,18.4,1.685,2.617,3.051,4.881,3.916,6.572a15.321,15.321,0,0,1,.9,2.04,19.589,19.589,0,0,1-2.886-.558c-2.557-.648-6.2-1.828-10.513-3.4-8.634-3.134-20.008-7.832-31.288-13.054a283.208,283.208,0,0,1-30.711-16.185,64.905,64.905,0,0,1-9.764-7.259c-2.176-2.085-3.02-3.8-3.01-4.755Z"/>
      <g id="Group_3139" data-name="Group 3139" transform="translate(-224.87 -184.975)">
        <path id="Path_794" data-name="Path 794" d="M771.959,870.717c-1.212,12.979,89.033,50.359,90.7,46.4.445-1.06-2.032-5.472-5.842-11.3a278.245,278.245,0,0,1-80.92-39.872c-1.347,1.645-3.939,4.779-3.939,4.779Z" fill="#fff"/>
        <path id="Path_795" data-name="Path 795" d="M775.719,864.624l-.57.7c-1.344,1.641-3.936,4.775-3.936,4.775l-.2.228-.032.3c-.205,2.2,1.345,4.337,3.781,6.671a66.358,66.358,0,0,0,10.1,7.52,284.464,284.464,0,0,0,30.95,16.324c11.333,5.247,22.756,9.961,31.468,13.124,4.356,1.581,8.028,2.777,10.71,3.46a20.514,20.514,0,0,0,3.283.621,4,4,0,0,0,1.16-.032,1.462,1.462,0,0,0,1.108-.829,2.61,2.61,0,0,0-.165-2.092,19.745,19.745,0,0,0-1.191-2.6c-1.066-2.013-2.654-4.592-4.568-7.52l-.187-.29-.342-.1a277.4,277.4,0,0,1-80.627-39.723Zm.383,2.589A277.224,277.224,0,0,0,856.159,906.6c1.807,2.776,3.341,5.247,4.319,7.1a18.5,18.5,0,0,1,1.077,2.341c.111.318.1.259.114.383a1.85,1.85,0,0,1-.249,0,19.74,19.74,0,0,1-2.952-.57c-2.568-.654-6.214-1.829-10.534-3.4-8.641-3.137-20.017-7.837-31.3-13.061a283.276,283.276,0,0,1-30.732-16.21,65.106,65.106,0,0,1-9.8-7.282c-2.209-2.117-3.12-3.888-3.087-4.951.3-.368,1.819-2.2,3.087-3.739Z"/>
      </g>
      <g id="Group_3140" data-name="Group 3140" transform="translate(-201.377 134.441) rotate(-61.467)">
        <path id="Path_796" data-name="Path 796" d="M-101.621,926.929l24.148-37.956,15.822,32-32.658,40.987Z" fill="#fff"/>
        <path id="Path_797" data-name="Path 797" d="M41.935,1028.284l-5.874,4.183,8.572,15.462,8.591,2.585,19.592-6.669-5.891-13.94Z" transform="translate(797.725 387.14) rotate(61.467)" fill="#2bb65e"/>
        <path id="Path_798" data-name="Path 798" d="M-77.341,886.607l-25.518,40.1.1.463,7.818,37.476,34.662-43.518Zm-.263,4.741,14.573,29.483-30.646,38.464-6.7-32.122Z"/>
      </g>
      <path id="Path_799" data-name="Path 799" d="M398.959,551.934s27.6,5.135,27.6,5.991,4.921,37.444,4.921,37.444c-31.5,127.045-56.261-25.569-32.523-43.435Z" fill="#2bb65e"/>
      <path id="Path_800" data-name="Path 800" d="M395.2,537.887l-.338.138c-2.139.917-3.272,3.366-4.165,6.642a66.419,66.419,0,0,0-1.789,12.5,284.669,284.669,0,0,0,.438,35.024c.8,12.469,2.118,24.752,3.5,33.924.692,4.586,1.4,8.389,2.089,11.083a20.759,20.759,0,0,0,1.026,3.215,4.228,4.228,0,0,0,.625,1.051,1.65,1.65,0,0,0,1.426.65,2.613,2.613,0,0,0,1.776-1.088,16.787,16.787,0,0,0,1.589-2.039c1.152-1.685,2.513-4.013,4.028-6.78,3.029-5.532,6.65-12.829,10.132-20.114,6.963-14.57,13.384-29.07,13.384-29.07l.125-.312-.037-.325s-1.234-9.148-2.464-18.4c-.615-4.626-1.228-9.273-1.689-12.821-.231-1.774-.416-3.275-.55-4.353-.067-.539-.127-.968-.163-1.276s-.048-.664-.048-.438c0,0-.026-.284-.026-.287s-.057-.16-.087-.225a1.164,1.164,0,0,0-.188-.287,1.311,1.311,0,0,0-.3-.263,2.33,2.33,0,0,0-.425-.225,9.7,9.7,0,0,0-1-.337c-.8-.235-1.885-.5-3.19-.8-2.61-.607-6.063-1.33-9.519-2.026-6.912-1.393-13.822-2.689-13.822-2.689Zm.488,2.477c.54.1,6.608,1.234,13.209,2.564,3.444.694,6.891,1.417,9.457,2.014,1.283.3,2.353.565,3.065.776.2.058.278.092.413.138.037.317.086.721.15,1.238.135,1.086.332,2.589.563,4.366.461,3.553,1.073,8.206,1.689,12.834,1.208,9.085,2.37,17.735,2.414,18.063-.126.285-6.347,14.336-13.222,28.72-3.472,7.265-7.081,14.541-10.069,20-1.495,2.73-2.831,5.012-3.9,6.58a15.326,15.326,0,0,1-1.363,1.764,19.479,19.479,0,0,1-.888-2.8c-.65-2.556-1.354-6.316-2.039-10.858-1.371-9.082-2.677-21.319-3.477-33.723a283.208,283.208,0,0,1-.45-34.712,64.891,64.891,0,0,1,1.714-12.046c.792-2.907,1.893-4.468,2.739-4.916Z"/>
      <g id="Group_3141" data-name="Group 3141" transform="translate(-224.87 -184.975)">
        <path id="Path_801" data-name="Path 801" d="M620.2,724.081c-11.982,5.135-1.714,102.274,2.565,101.846,1.144-.115,3.837-4.4,7.139-10.531a278.231,278.231,0,0,1-3.624-90.137c-2.089-.4-6.08-1.178-6.08-1.178Z" fill="#fff"/>
        <path id="Path_802" data-name="Path 802" d="M620.094,723.073l-.279.114c-2.029.869-3.163,3.251-4.05,6.5a66.325,66.325,0,0,0-1.782,12.461,284.586,284.586,0,0,0,.435,35c.8,12.463,2.118,24.748,3.5,33.912.691,4.582,1.4,8.38,2.082,11.062a20.6,20.6,0,0,0,1.015,3.18,4.069,4.069,0,0,0,.59,1,1.454,1.454,0,0,0,1.253.58,2.618,2.618,0,0,0,1.761-1.15,19.835,19.835,0,0,0,1.709-2.289c1.26-1.9,2.764-4.523,4.423-7.6l.176-.311-.073-.342a277.443,277.443,0,0,1-3.615-89.814l.114-.9-.891-.176c-2.083-.4-6.08-1.17-6.08-1.17Zm.4,2.051c.47.092,2.814.545,4.775.922A277.157,277.157,0,0,0,628.9,815.2c-1.576,2.913-3.028,5.446-4.185,7.188a18.531,18.531,0,0,1-1.533,2.061c-.223.247-.176.208-.279.28a2.327,2.327,0,0,1-.114-.207,19.52,19.52,0,0,1-.911-2.869c-.652-2.568-1.355-6.331-2.041-10.876-1.372-9.09-2.68-21.337-3.48-33.746a283.39,283.39,0,0,1-.445-34.741,65.064,65.064,0,0,1,1.719-12.088c.8-2.95,1.92-4.6,2.869-5.075Z"/>
      </g>
      <g id="Group_3142" data-name="Group 3142" transform="translate(522.15 -381.79)">
        <path id="Path_803" data-name="Path 803" d="M-101.621,926.929l21.888-9.173,4.69,31.167L-96.527,957.4Z" fill="#fff"/>
        <path id="Path_804" data-name="Path 804" d="M-78.8,916.1l-24.117,10.107.15.913,5.329,31.9,23.691-9.344Zm-1.864,3.327,4.328,28.758-19.276,7.605-4.7-28.145Z"/>
      </g>
      <path id="Path_805" data-name="Path 805" d="M380.133,470.358s.6,16.012,9.587,24.143,90.74,59.037,90.74,59.037l38.732,113.169s62.334-27.233,65.36-29.654-62.939-114.985-65.965-117.4-71.524-88.908-71.524-88.908c-30.09,3.092-47.829,22.24-66.929,39.618Z" fill="#2bb65e"/>
      <path id="Path_806" data-name="Path 806" d="M527.14,533.021l-61.684,11.117c8.767,5.508,15,9.4,15,9.4l13.288,38.828,38.835-50.342C530.506,538.549,528.852,535.832,527.14,533.021Z" stroke="#000" stroke-width="0.265"/>
      <path id="Path_807" data-name="Path 807" d="M414.283,440.72c-13.076,7.886-23.838,18.679-34.936,28.777l-.4.364.011.536s.439,16.342,9.972,24.968c2.45,2.217,9.172,6.836,18.11,12.759s20,13.054,30.786,19.927c21.387,13.632,41.326,26.044,41.664,26.255l39,113.979,1.165-.513s15.59-6.807,31.557-13.92c7.983-3.557,16.052-7.187,22.33-10.084,3.139-1.449,5.832-2.717,7.84-3.7,1-.492,1.836-.908,2.479-1.251a9.024,9.024,0,0,0,1.413-.851,1.424,1.424,0,0,0,.513-.927,2.211,2.211,0,0,0,0-.675,7.158,7.158,0,0,0-.337-1.364,43.176,43.176,0,0,0-1.688-4.077c-1.539-3.355-3.886-7.971-6.795-13.447-5.817-10.952-13.878-25.322-22.128-39.7s-16.685-28.765-23.253-39.705c-3.284-5.47-6.1-10.08-8.191-13.407-1.048-1.663-1.917-3-2.578-3.978-.331-.488-.6-.878-.837-1.188a3.38,3.38,0,0,0-.665-.764c.054.042-.491-.5-1.148-1.251s-1.55-1.807-2.628-3.1c-2.156-2.589-5.084-6.16-8.506-10.382-6.844-8.444-15.678-19.474-24.428-30.435-5.071-6.353-6.053-7.607-10.035-12.616l-1.807,1.483c3.887,4.888,4.955,6.248,10.015,12.586,8.752,10.963,17.591,22.005,24.441,30.458,3.425,4.226,6.35,7.8,8.519,10.409,1.084,1.3,1.986,2.359,2.664,3.138a12.344,12.344,0,0,0,1.45,1.539c-.135-.108.07.08.265.337s.457.633.774,1.1c.636.939,1.485,2.264,2.525,3.915,2.08,3.3,4.889,7.9,8.168,13.357,6.557,10.922,14.988,25.3,23.23,39.666s16.3,28.732,22.091,39.642c2.9,5.455,5.24,10.047,6.742,13.321a40.86,40.86,0,0,1,1.575,3.826,5.492,5.492,0,0,1,.176.652c-.186.114-.272.178-.639.374-.6.321-1.413.743-2.4,1.228-1.979.969-4.661,2.219-7.791,3.664-6.26,2.889-14.338,6.527-22.317,10.081-15.368,6.846-29.285,12.922-30.372,13.4L481.432,552.769l-.351-.229s-20.437-12.715-41.992-26.454c-10.777-6.869-21.838-13.995-30.756-19.9s-15.783-10.7-17.826-12.543c-8.194-7.413-9.069-21.948-9.118-22.816,11.171-10.19,21.83-20.79,34.7-28.409Z"/>
      <path id="Path_808" data-name="Path 808" d="M483,422.666l-44.064,1.655-17.547,8.986,3.8,3.1a74.347,74.347,0,0,1,21.876-5.673s33.492,50.05,24.5,32.769c-.945-1.817,1.012-2.562,1.912-1.231,4.057,6,6.7,8.571,11.369,14.419l61.207,7.139L425.665,522.745c1.284,39.8,23.538,65.474,23.538,65.474s110.867-65.257,154.925-93.172c16.276-11.565,15.127-18.694-6.007-40.344-3-3-86.026-31.226-86.026-31.226Z" fill="#2bb65e"/>
      <path id="Path_809" data-name="Path 809" d="M483,422.666l-44.064,1.655-17.547,8.986,3.8,3.1c.037-.011.075-.032.112-.042-17.906,7.625-31.182,21.269-45.166,33.993,0,0,.6,16.013,9.588,24.143.975.882,2.818,2.275,5.315,4.048l115.537-75.114Z" fill="#5a7983"/>
      <path id="Path_810" data-name="Path 810" d="M482.954,421.5l-23.131.87.675,2.313,22.509-.847,28.879.808c.167.058,20.671,7.027,41.711,14.427,10.562,3.715,21.217,7.525,29.409,10.587,4.1,1.531,7.577,2.876,10.111,3.925,1.267.525,2.3.975,3.038,1.33s1.26.744,1.135.619h0c10.521,10.78,15.9,17.937,16.7,23.3a9.617,9.617,0,0,1-1.926,7.407c-1.72,2.447-4.6,5-8.615,7.854l-.005,0c-43.708,27.689-152.342,91.645-153.946,92.589-1.687-2.011-21.083-25.9-22.588-63.114l119.5-38.623-.2-2.27-63.346-8.608,1.979,2.628,55.968,7.6L424.468,521.9l.032.877c1.3,40.216,23.823,66.2,23.823,66.2l.639.738.837-.5s110.847-65.244,154.958-93.192l.026-.021.026-.021c4.12-2.928,7.2-5.6,9.177-8.42a12.217,12.217,0,0,0,2.327-9.1c-.98-6.5-6.748-13.734-17.352-24.6l-.005,0,0-.005a5.66,5.66,0,0,0-1.781-1.069c-.806-.388-1.867-.853-3.157-1.387-2.58-1.068-6.077-2.418-10.187-3.955-8.219-3.073-18.882-6.883-29.452-10.6-21.14-7.435-41.9-14.493-41.9-14.493l-.169-.058L483,421.492Z" fill="#fff"/>
      <path id="Path_811" data-name="Path 811" d="M668.126,289.9c-8.364-26.789,24.459-43.6,28.575-19.335,1.791,10.559-5.066,23.555-29.9,27.319l1.509-4.007S687,293.2,688.467,278.245s-14.722-4.137-15.483,5.121-4.859,6.533-4.859,6.533Z" fill="#add3d8"/>
      <path id="Path_812" data-name="Path 812" d="M693.4,258.931c-3.943-1.585-8.547-.823-12.621,1.576-8.149,4.8-14.464,16.3-10.132,30.171l.125.388.338.238a3.644,3.644,0,0,0,3.252.3,4.58,4.58,0,0,0,2.239-2.389,15.638,15.638,0,0,0,1.188-5.329c.328-3.992,4.377-8.894,7.93-10.682,1.777-.894,3.2-.969,4.015-.388s1.548,2.2,1.2,5.741c-.686,7-5.289,10.515-9.919,12.459a29.262,29.262,0,0,1-9.119,2.114l-.776.038-2.489,6.592,1.976-.288c12.6-1.909,20.8-6.188,25.63-11.483A20.171,20.171,0,0,0,701.5,270.8c-1.075-6.341-4.151-10.285-8.093-11.871Zm-.876,2.164c3.108,1.25,5.672,4.3,6.655,10.095a17.707,17.707,0,0,1-4.678,15.223c-4.059,4.452-11.35,8.148-22.153,10.157l.475-1.288a26.4,26.4,0,0,0,9.106-2.1c5.082-2.133,10.553-6.441,11.333-14.4q.578-5.9-2.177-7.868c-1.832-1.307-4.235-.9-6.417.2-4.364,2.2-8.786,7.317-9.219,12.584a13.771,13.771,0,0,1-.963,4.528c-.4.861-.781,1.117-1.038,1.226a.683.683,0,0,1-.663-.063c-3.654-12.622,2.1-22.7,9.181-26.869,3.6-2.12,7.449-2.676,10.557-1.426Z"/>
      <path id="Path_813" data-name="Path 813" d="M613.367,295.721s11.4,26.3,34.355,26.48c0,0,18.79-7.491,21.767-10.054,2.678-2.306,13.461-15.252,5.828-36.363-3.086-16.839-48.772,13.8-61.95,19.937Z" fill="#add3d8"/>
      <path id="Path_814" data-name="Path 814" d="M665.558,267.1,605.8,295.143l.45,1.038s11.582,27,35.425,27.194h.225l.213-.088s4.718-1.877,9.807-4.078c2.544-1.1,5.173-2.289,7.38-3.365a25.468,25.468,0,0,0,4.916-2.815c1.746-1.5,5.768-6.177,7.78-13.872s1.86-18.331-4.966-31.284Zm-.238,2.926c5.985,11.95,6.242,21.607,4.428,28.545a27.306,27.306,0,0,1-7.055,12.7,29.77,29.77,0,0,1-4.416,2.477c-2.153,1.049-4.767,2.222-7.293,3.315-4.9,2.121-9.181,3.835-9.444,3.94-21.126-.294-31.7-23.005-32.51-24.78Z" fill="#2bb65e"/>
      <path id="Path_815" data-name="Path 815" d="M417.351,174.838s2-30.811,40.358-35.946,44.953,35.946,44.953,35.946l-46.408-.008Z" fill="#fff"/>
      <path id="Path_816" data-name="Path 816" d="M451.45,153.816a5.575,5.575,0,0,0-4.866.2,8.83,8.83,0,0,0-2.026,1.8c-.118.1.005.052-.011.05a2.378,2.378,0,0,1-.763-.425,5.764,5.764,0,0,0-4.928-.588,12.062,12.062,0,0,0-2.527.963,1.167,1.167,0,1,0,1.113,2.051,9.873,9.873,0,0,1,1.989-.751,3.75,3.75,0,0,1,2.965.213,3.886,3.886,0,0,0,1.926.863,2.467,2.467,0,0,0,1.714-.563c.786-.64,1.09-1.23,1.726-1.6a3.3,3.3,0,0,1,2.7-.1,1.167,1.167,0,1,0,.988-2.114ZM475.3,140.07a13.414,13.414,0,0,0-1.066,1.608c-.032.04-.021.039-.021.046a2.325,2.325,0,0,1-.817-.251,5.761,5.761,0,0,0-4.941.453,12.1,12.1,0,0,0-2.27,1.469,1.167,1.167,0,1,0,1.516,1.774,9.979,9.979,0,0,1,1.79-1.148,3.746,3.746,0,0,1,2.942-.41,3.886,3.886,0,0,0,2.065.44,2.47,2.47,0,0,0,1.559-.91,19.211,19.211,0,0,1,1.354-1.926,2.419,2.419,0,0,1,.371-.275q-1.2-.475-2.482-.87Z" fill="#2bb65e"/>
      <path id="Path_817" data-name="Path 817" d="M457.555,137.729c-19.482,2.608-29.949,11.848-35.4,20.439a38.926,38.926,0,0,0-5.967,16.6l-.087,1.238h1.251l38.9-.013,47.783.013-.225-1.351a56.978,56.978,0,0,0-8.268-20.364c-6.606-9.871-18.394-19.185-37.989-16.561Zm.312,2.327c18.765-2.512,29.457,6.15,35.737,15.536a50.317,50.317,0,0,1,7.555,18.075H418.965c.1-1.057.442-6.8,5.166-14.247,5.138-8.1,14.858-16.836,33.736-19.363Z"/>
      <path id="Path_818" data-name="Path 818" d="M475.788,153.122a5.575,5.575,0,0,0-4.717,1.213,8.825,8.825,0,0,0-1.605,2.185c-.1.119.021.049,0,.051a2.382,2.382,0,0,1-.835-.257,5.764,5.764,0,0,0-4.942.455,12.063,12.063,0,0,0-2.27,1.47,1.167,1.167,0,1,0,1.518,1.773,9.871,9.871,0,0,1,1.788-1.15,3.75,3.75,0,0,1,2.944-.412,3.886,3.886,0,0,0,2.064.441,2.467,2.467,0,0,0,1.558-.909,19.228,19.228,0,0,1,1.354-1.927,3.3,3.3,0,0,1,2.621-.663,1.167,1.167,0,1,0,.525-2.274Z" fill="#2bb65e"/>
      <path id="Path_819" data-name="Path 819" d="M301.988,132.648a22.324,22.324,0,0,0-8.415,30.381c8.674,15.375,19.824,9.478,27.1,22.382a3.938,3.938,0,0,0,5.376,1.5l10.054-5.672a3.942,3.942,0,0,0,1.5-5.38c-7.178-12.723,2.925-20.466-5.145-34.771a22.324,22.324,0,0,0-30.414-8.474l-.06.033Z" fill="#f09b00"/>
      <path id="Path_820" data-name="Path 820" d="M323.394,154.79a1.37,1.37,0,0,0-.892.291,1.219,1.219,0,0,0-.359.531,1.487,1.487,0,0,0-.1.607,23.993,23.993,0,0,1-.114,3.507c-.067.266-.073.156.081.093s.059.029-.4-.19a3.3,3.3,0,0,0-2-.464,1.845,1.845,0,0,0-1.048.549,2.061,2.061,0,0,0-.47.932,11.639,11.639,0,0,0,.2,4.024c.021.162.026.12.026.123a4.858,4.858,0,0,1-1.594-.2,23.9,23.9,0,0,1-2.3-.778c-.348-.133-.654-.259-.923-.355-.134-.047-.263-.091-.393-.127a1.22,1.22,0,0,0-.56-.075c-.005,0-.49.138-.494.14s-.478.474-.48.477-.144.5-.145.5a2.887,2.887,0,0,0,.021.321,1.082,1.082,0,0,0,.188.479,4.421,4.421,0,0,0,.385.522c.3.376.741.867,1.277,1.45,1.071,1.166,2.54,2.7,4.03,4.235,2.979,3.064,6.03,6.115,6.03,6.115a1.173,1.173,0,0,0,1.66-1.657s-3.046-3.046-6.01-6.094c-1.024-1.054-1.886-1.963-2.759-2.888a5.244,5.244,0,0,0,2.691.184,2.277,2.277,0,0,0,1.356-.946,2.587,2.587,0,0,0,.316-1.723,22.444,22.444,0,0,1-.206-2.726.725.725,0,0,1,.208.079,2.744,2.744,0,0,0,2.29.244,2.347,2.347,0,0,0,1.291-1.66c.678,1.584,1.387,3.258,2.185,5.294,2.116,5.4,4.227,11.182,4.227,11.182a1.171,1.171,0,1,0,2.2-.8s-2.128-5.8-4.258-11.238c-1.065-2.719-2.122-5.335-2.939-7.129a15.06,15.06,0,0,0-1.059-2.055,2.364,2.364,0,0,0-.3-.366,1.075,1.075,0,0,0-.862-.413Z" fill="#fff"/>
      <g id="Group_3143" data-name="Group 3143" transform="translate(9.611 -406.861) rotate(-38.2)">
        <path id="Path_821" data-name="Path 821" d="M-118.744,668.727h9.53a3.727,3.727,0,0,1,3.735,3.735,3.727,3.727,0,0,1-3.735,3.735h-9.53a3.727,3.727,0,0,1-3.735-3.735A3.727,3.727,0,0,1-118.744,668.727Z" fill="#2bb65e"/>
        <path id="Path_822" data-name="Path 822" d="M-118.748,667.317a5.163,5.163,0,0,0-5.135,5.15,5.15,5.15,0,0,0,5.135,5.135h9.532a5.163,5.163,0,0,0,5.15-5.135,5.176,5.176,0,0,0-5.15-5.15Zm0,2.816h9.532a2.3,2.3,0,0,1,2.334,2.334,2.29,2.29,0,0,1-2.334,2.319h-9.532a2.278,2.278,0,0,1-2.319-2.319A2.29,2.29,0,0,1-118.748,670.133Z" fill="#2bb65e"/>
      </g>
      <g id="Group_3144" data-name="Group 3144" transform="translate(9.611 -406.861) rotate(-38.2)">
        <path id="Path_823" data-name="Path 823" d="M-122.478,661.258h17a3.727,3.727,0,0,1,3.735,3.735,3.727,3.727,0,0,1-3.735,3.735h-17a3.727,3.727,0,0,1-3.735-3.735A3.727,3.727,0,0,1-122.478,661.258Z" fill="#2bb65e"/>
        <path id="Path_824" data-name="Path 824" d="M-122.483,659.848a5.163,5.163,0,0,0-5.135,5.15,5.15,5.15,0,0,0,5.135,5.135h17a5.163,5.163,0,0,0,5.15-5.135,5.176,5.176,0,0,0-5.15-5.15Zm0,2.816h17A2.3,2.3,0,0,1-103.148,665a2.29,2.29,0,0,1-2.334,2.319h-17A2.278,2.278,0,0,1-124.8,665,2.29,2.29,0,0,1-122.483,662.664Z" fill="#2bb65e"/>
      </g>
      <path id="Path_825" data-name="Path 825" d="M432.5,273.7s-56.905,25.088-60.234,28.114S351.387,369.9,351.387,369.9s6.657,4.539,36.614,5.447l-7.867,95.014s1.513,3.329,4.236,1.21,34.865-42.529,127.725-48.092l-5.135-76.6,24.82-4.279s-22.252-45.788-25.248-48.784-37.658-17.973-37.658-17.973Z" fill="#f09b00"/>
      <path id="Path_826" data-name="Path 826" d="M472.54,396.349l-40.367,10.012L382.38,443.213l-2.247,27.145s1.513,3.329,4.236,1.211c1.714-1.333,15.1-17.83,47.923-31.266Z" fill="#f42a1b"/>
      <path id="Path_827" data-name="Path 827" d="M432.5,273.7s-3.551,1.569-8.125,3.6c3.221,10.114,11.34,29.624,27.168,34.483,21.61,6.633,29.741-9.414,28.029-21.4a74.367,74.367,0,0,0-2.37-10.882c-4.651-2.06-8.33-3.667-8.33-3.667Z" fill="#f42a1b"/>
      <path id="Path_828" data-name="Path 828" d="M425.279,276.906c-1.01.449-1.042.466-2.241,1,2.274,5.937,5.847,14.1,9.211,19.249,4.5,6.885,10.671,13.206,18.951,15.747,11.1,3.406,19.113.986,23.942-4.015s6.5-12.343,5.593-18.663a95.345,95.345,0,0,0-2.383-10.2c-.9-.4-2.007-.9-2.813-1.258a107.824,107.824,0,0,1,2.879,11.8c.809,5.662-.74,12.34-4.951,16.7s-11.065,6.642-21.579,3.415c-7.548-2.317-13.354-8.187-17.677-14.8C430.928,290.853,427.417,282.6,425.279,276.906Z" fill="#f42a1b"/>
      <path id="Path_829" data-name="Path 829" d="M453.04,331.045s21.824,57.77,29.1,92.861c0,0,33.378-7.275,44.077,8.131,0,0-4.279-66.757-13.694-107.41,0,0-35.946-17.117-59.482,6.419Z" fill="#a0bfce"/>
      <path id="Path_830" data-name="Path 830" d="M491.74,317.843c-12.138-1.361-27.449.293-39.527,12.371l-.538.538.275.7s21.813,57.8,29.045,92.69l.238,1.163,1.151-.263a89.733,89.733,0,0,1,17.775-1.676c9.528.105,20.117,2.167,25.092,9.331l2.4,3.452-.275-4.19s-4.262-66.749-13.722-107.6l-.125-.551-.5-.238a73.679,73.679,0,0,0-21.29-5.729Zm-.263,2.327a67.28,67.28,0,0,1,20,5.366c8.993,39.271,13.119,100.4,13.372,104.235-6.108-6.379-15.789-8.645-24.667-8.744A80.024,80.024,0,0,0,483,422.666c-7.4-34.932-28.053-89.857-28.57-91.226,11.369-10.979,25.514-12.564,37.051-11.27Zm-54.805-73.32L432.5,273.7s14.122,31.667,29.741,28.029,4.493-44.077,4.493-44.077Z" fill="#fff"/>
      <path id="Path_831" data-name="Path 831" d="M540.766,300.662c-5.563,25.89,1.211,89.492,3.851,106.126,0,0-14.122,5.991-18.4,25.248,0,0-6.847-66.329-13.694-107.41,0,0,10.7-32.523,28.243-23.964Z" fill="#add3d8"/>
      <path id="Path_832" data-name="Path 832" d="M534.483,298.092a13.949,13.949,0,0,0-6.079,1.676c-3.729,1.983-6.81,5.386-9.307,9.006a68.361,68.361,0,0,0-7.68,15.486l-.1.275.048.288c6.834,41,13.684,107.337,13.684,107.337l2.3.125c4.172-18.775,17.725-24.417,17.725-24.417l.838-.363-.15-.9c-1.308-8.242-3.653-28.308-4.978-49.484s-1.594-43.557,1.126-56.214l.188-.888-.826-.413a14.2,14.2,0,0,0-6.792-1.514Zm5.029,3.628c-2.613,13.343-2.36,34.839-1.063,55.551,1.312,20.956,3.6,40.4,4.941,49-1.19.55-11.392,6.093-16.586,21.09-.543-5.218-6.527-63.127-13.072-102.559a64.9,64.9,0,0,1,7.293-14.7c2.372-3.44,5.27-6.561,8.481-8.268,2.99-1.59,6.283-1.666,10.007-.113Z" fill="#fff"/>
      <path id="Path_833" data-name="Path 833" d="M432.1,235.584l-.213,1.4-.6,36.877.138.313a95.412,95.412,0,0,0,9.144,15.6,44.157,44.157,0,0,0,9.769,10.069c3.687,2.573,7.863,4.03,12.171,3.027,4.4-1.025,6.942-4.73,8.156-9.256s1.258-10.018.838-15.373a127.349,127.349,0,0,0-3.64-20.89l-.163-.588Zm1.889,3.152,31.713,19.79a117.493,117.493,0,0,1,3.477,19.889c.408,5.21.318,10.519-.776,14.6s-3.02,6.786-6.429,7.58c-3.5.816-6.941-.323-10.295-2.664a42.276,42.276,0,0,1-9.219-9.544,90.22,90.22,0,0,1-8.744-14.9Z"/>
      <path id="Path_834" data-name="Path 834" d="M431.886,236.985l-.775,27.669a52.253,52.253,0,0,0,37.717-2.176c-.386-2.228-.759-4.045-1.125-5.716a41.8,41.8,0,0,0-7.523-7.367Z" fill="#2bb65e"/>
      <path id="Path_835" data-name="Path 835" d="M429.932,226.63s.856,20.113,15.405,29.741,33.164,4.707,34.876,2.568,25.248-59.91,20.754-74.46-40.225-8.131-40.225-8.131l-22.466,1.284-3,24.392Z" fill="#fff"/>
      <path id="Path_836" data-name="Path 836" d="M438.306,211.644c3.415.55,4.924,2.349,5.662-3.85l3.341-28.073s16.644,11.392,41.036,9.68,50.282-24.392,33.592-40.011-32.523,10.484-47.714,16.047-39.37,5.777-39.37,5.777-8.626-7.629-17.048-2.084c-12.714,8.372-8.567,24.952,3.675,34.713-17.166,11.416-9.548,28.185,1.07,21.4-2.949,11.56,8.62,13.165,8.289-1.952-.076-3.488,7.116-6.806,7.467-11.643Z" fill="#2bb65e"/>
      <path id="Path_837" data-name="Path 837" d="M438.533,214.972s.278-23.753-12.667-23.432-16.31,26.109,1.191,30.613c2.159.3,3.1,1.532,3.451,6.065C431.341,225.569,446.071,217.993,438.533,214.972Z" fill="#fff"/>
      <path id="Path_838" data-name="Path 838" d="M422.458,201.885c-2.793,1.428-2.428,9.313,2.421,7.338,5.45-1.872,5.031-.983,5.031-.983l1.551.983-.265-3.934-4.425-3.48-4.161.114Z" fill="#f09b00"/>
      <path id="Path_839" data-name="Path 839" d="M425.835,190.367a10.769,10.769,0,0,0-8.645,5.18,19.107,19.107,0,0,0-2.949,10.756,18.383,18.383,0,0,0,3.8,11.21,16.312,16.312,0,0,0,7.071,5.068c1.9.8,2.7-1.393,1.187-2.033a13.923,13.923,0,0,1-6.431-4.487,16.107,16.107,0,0,1-3.3-9.793,16.954,16.954,0,0,1,2.575-9.432,8.305,8.305,0,0,1,6.755-4.127,7.693,7.693,0,0,1,6.507,3.1,20.426,20.426,0,0,1,3.515,7.632,45.17,45.17,0,0,1,1.215,7.043c.211,2.1,2.5,1.553,2.364-.172a55.345,55.345,0,0,0-1.319-7.473,22.358,22.358,0,0,0-3.978-8.519A10.266,10.266,0,0,0,425.835,190.367Zm75.588-3.571c-.645.056-1.26.674-1.1,1.91a46.444,46.444,0,0,1-.536,6.95l2.009,2.429a47.944,47.944,0,0,0,.894-9.833,1.237,1.237,0,0,0-1.271-1.456Zm-7.609,33.013c-.65,2.068-1.324,4.137-2.009,6.182-2.759,8.238-5.713,16.1-8.082,22.029-1.185,2.962-2.221,5.433-3.012,7.228-.4.9-.735,1.632-.99,2.155s-.517.923-.427.811a7.246,7.246,0,0,1-.963.563,17.642,17.642,0,0,1-2.552.89,37.953,37.953,0,0,1-8.241,1.238c-6.507.286-14.545-.867-21.552-5.5-11.051-7.313-13.917-21.075-14.632-26.47-.111-1.986-2.652-2.036-2.383.047.7,5.657,3.638,20.382,15.714,28.373,7.543,4.991,16.087,6.183,22.952,5.881a40.129,40.129,0,0,0,8.757-1.314,20,20,0,0,0,2.916-1.013,4.469,4.469,0,0,0,1.814-1.238,5.85,5.85,0,0,0,.7-1.241c.276-.566.623-1.322,1.026-2.237.807-1.831,1.849-4.322,3.042-7.3,2.385-5.964,5.352-13.864,8.128-22.154.677-2.02,1.34-4.062,1.982-6.106Z"/>
      <g id="Group_3145" data-name="Group 3145">
        <path id="Path_840" data-name="Path 840" d="M495.96,192.327a9.394,9.394,0,0,0-8.314,2.784,17.2,17.2,0,0,0-4.8,9.4,17.723,17.723,0,0,0,1.175,10.589,9.85,9.85,0,0,0,6.753,5.829,9.422,9.422,0,0,0,8.326-2.792,17.167,17.167,0,0,0,4.785-9.389,17.75,17.75,0,0,0-1.163-10.6A9.856,9.856,0,0,0,495.96,192.327Zm-.345,1.906a7.843,7.843,0,0,1,5.364,4.725,15.845,15.845,0,0,1,1.011,9.4,15.356,15.356,0,0,1-4.229,8.35,7.486,7.486,0,0,1-6.638,2.308,7.826,7.826,0,0,1-5.354-4.723,15.85,15.85,0,0,1-1.021-9.407,15.359,15.359,0,0,1,4.239-8.348A7.469,7.469,0,0,1,495.614,194.233Z"/>
        <path id="Path_841" data-name="Path 841" d="M502.94,208.553c-1.336,7.37-6.7,12.482-11.988,11.418s-8.486-7.9-7.151-15.273,6.7-12.482,11.988-11.418S504.275,201.182,502.94,208.553Z" fill="none"/>
      </g>
      <path id="Path_842" data-name="Path 842" d="M475.01,216.142a58.7,58.7,0,0,0,17.677.122c9.022-1.463,12.191.244,11.338,4.267s-9.875,11.216-18.9,9.875-10.607-12.8-10.119-14.264Z" fill="#2bb65e"/>
      <g id="Group_3146" data-name="Group 3146" transform="translate(-224.87 -184.975)">
        <path id="Path_843" data-name="Path 843" d="M689.678,372.339a15.729,15.729,0,1,0,15.734,15.734A15.75,15.75,0,0,0,689.678,372.339Zm0,1.937a13.8,13.8,0,1,1-13.8,13.8A13.783,13.783,0,0,1,689.678,374.276Z"/>
        <path id="Path_844" data-name="Path 844" d="M704.443,388.07a14.764,14.764,0,1,1-14.764-14.764A14.763,14.763,0,0,1,704.443,388.07Z" fill="none"/>
      </g>
      <g id="Group_3147" data-name="Group 3147" transform="translate(456.991 -379.317)">
        <path id="Path_845" data-name="Path 845" d="M-93.6,751.87s-1.926,47.072-2.14,50.71,5.991,21.61,11.554,24.178,39.707-7.341,100.225-50.006c0,0,18.311-4.341,19.809-4.768s5.777-14.122,5.777-15.406-6.847-17.759-7.917-16.9-9.414,11.768-10.484,11.982-10.484,1.926-10.484,1.926l-3.851-7.489s-2.782,14.336-3.423,16.475-65.9,20.113-65.9,20.113l.428-26.959Z" fill="#fff"/>
        <path id="Path_846" data-name="Path 846" d="M33.986,738.48a1.449,1.449,0,0,0-1.013.275,6.482,6.482,0,0,0-.864.887c-.345.4-.76.9-1.238,1.476-.956,1.154-2.143,2.614-3.316,4.041s-2.335,2.823-3.263,3.866c-.464.521-.871.955-1.165,1.238-.13.125-.231.208-.3.261-1.1.215-8.186,1.522-9.459,1.754L8.38,742.545l-.635,3.316s-.7,3.584-1.476,7.43c-.75,3.722-1.586,7.631-1.867,8.641-.084.051-.151.081-.3.152-.454.22-1.16.519-2.065.861-1.81.683-4.412,1.562-7.506,2.552-6.189,1.98-14.4,4.416-22.588,6.794-15.632,4.539-29.789,8.445-31.186,8.83l.609-24.931c-.758-.048-1.522-.1-2.307-.159l-.692,28.181,1.5-.41s16.316-4.493,32.721-9.257c8.2-2.382,16.426-4.826,22.654-6.818,3.114-1,5.737-1.878,7.619-2.588.941-.355,1.691-.675,2.264-.953a5.837,5.837,0,0,0,.748-.414,1.222,1.222,0,0,0,.7-.874c.394-1.313,1.2-5.288,1.976-9.144.433-2.152.551-2.746.827-4.153L12.1,754.88l.851-.149s9.321-1.7,10.508-1.939a1.427,1.427,0,0,0,.761-.374,5.974,5.974,0,0,0,.526-.463c.372-.358.8-.818,1.287-1.364.971-1.091,2.159-2.517,3.339-3.952s2.36-2.879,3.3-4.018c.422-.51.772-.936,1.076-1.287.192.293.374.54.626,1,.762,1.389,1.713,3.386,2.628,5.454s1.789,4.215,2.439,5.9c.325.845.595,1.569.774,2.111.09.272.161.5.2.652a1.126,1.126,0,0,1,.026.156c0-.091-.032.251-.139.7-.114.471-.294,1.1-.5,1.827-.418,1.448-.99,3.278-1.612,5.077s-1.29,3.57-1.877,4.878a14.205,14.205,0,0,1-.774,1.539,1.033,1.033,0,0,1-.281.291c-.755.2-5.509,1.353-10.15,2.462-4.764,1.138-9.333,2.227-9.333,2.227l-.225.05-.189.139c-30.209,21.3-53.819,34.4-70.523,41.852a126.025,126.025,0,0,1-19.811,7.241,35.007,35.007,0,0,1-5.868,1.039,7.029,7.029,0,0,1-2.853-.238,11.288,11.288,0,0,1-3.69-3.928,47.727,47.727,0,0,1-3.664-7.155,67.6,67.6,0,0,1-2.641-7.4,20.456,20.456,0,0,1-.887-4.567c.193-3.281,1.746-39.541,2.217-50.58-.811-.135-1.558-.256-2.317-.387-.475,11.056-2.051,47.829-2.227,50.828a17.9,17.9,0,0,0,.976,5.342A69.681,69.681,0,0,0-93.2,815.52a49.632,49.632,0,0,0,3.852,7.516c1.416,2.189,2.89,3.954,4.676,4.779a8.182,8.182,0,0,0,3.991.437,36.883,36.883,0,0,0,6.278-1.1,128.112,128.112,0,0,0,20.192-7.38c16.84-7.509,40.509-20.667,70.7-41.929.166-.039,4.493-1.07,9.171-2.188,4.766-1.139,9.553-2.279,10.508-2.552.908-.259,1.041-.745,1.35-1.241a15.421,15.421,0,0,0,.937-1.814c.637-1.42,1.317-3.238,1.953-5.077s1.22-3.7,1.651-5.193c.216-.747.387-1.4.513-1.926a4.855,4.855,0,0,0,.225-1.287,2.237,2.237,0,0,0-.113-.712c-.06-.228-.139-.491-.238-.791-.2-.6-.481-1.347-.814-2.214-.667-1.734-1.558-3.9-2.489-6s-1.891-4.14-2.714-5.639a13.849,13.849,0,0,0-1.152-1.827,2.725,2.725,0,0,0-.649-.652,1.4,1.4,0,0,0-.639-.248Z"/>
        <path id="Path_847" data-name="Path 847" d="M-33.974,656.059a1.169,1.169,0,0,0-.45.1s-12.7,5.524-25.518,11.433c-6.411,2.954-12.848,6-17.762,8.506-2.457,1.255-4.534,2.381-6.054,3.3a20.026,20.026,0,0,0-1.864,1.238,2.352,2.352,0,0,0-1.126,1.376c-.914,3.047-19.976,66.871-19.976,66.871l-.338,1.138,1.138.325s24.072,6.688,59.316,6.992l1.138.013,1.251-42.592a1.169,1.169,0,0,0-.32-.836,1.169,1.169,0,0,0-.818-.364,1.169,1.169,0,0,0-1.2,1.126l-1.176,40.228c-32.949-.445-54.787-6.145-56.389-6.58.667-2.235,18.728-62.707,19.614-65.658-.131.435-.035.092.325-.188a18.392,18.392,0,0,1,1.639-1.088c1.43-.867,3.474-1.973,5.9-3.215,4.861-2.483,11.279-5.521,17.675-8.468,12.792-5.9,25.48-11.42,25.48-11.42a1.169,1.169,0,0,0,.6-1.539,1.169,1.169,0,0,0-1.088-.7Z" fill="#f42a1b"/>
      </g>
      <path id="Path_848" data-name="Path 848" d="M396.052,376.723l-32.561,11.634,1.14-15.609Z" fill="#2bb65e"/>
      <g id="Group_3148" data-name="Group 3148" transform="translate(456.991 -379.317)">
        <path id="Path_849" data-name="Path 849" d="M81.635,727.264s-11.34-4.279-11.554-2.782-1.07,14.336,0,16.475,6.847,10.7,8.345,10.7c16.883-7.038,12.844-25.648,7.7-31.667l-4.707-5.135Z" fill="#fff"/>
        <path id="Path_850" data-name="Path 850" d="M80.193,711.8l.25,13.822c-.99-.363-2.065-.778-4.165-1.426a35.524,35.524,0,0,0-4.1-1.051A6.427,6.427,0,0,0,70.549,723a1.992,1.992,0,0,0-.851.238,1.608,1.608,0,0,0-.776,1.076c-.142,1-.38,4.432-.488,8.131-.054,1.849-.069,3.715,0,5.291a9.212,9.212,0,0,0,.6,3.74,56.128,56.128,0,0,0,4.115,6.329,39.431,39.431,0,0,0,2.627,3.265,10.4,10.4,0,0,0,1.176,1.138,2.1,2.1,0,0,0,1.476.613h.225l.225-.088c8.81-3.672,12.339-10.59,12.821-17.212s-1.832-12.952-4.691-16.3L87,719.214Zm2.452,6.129,2.627,2.852-.038-.026c2.282,2.672,4.574,8.663,4.14,14.61-.424,5.825-3.346,11.538-11.045,14.935a8.558,8.558,0,0,1-.826-.8,38.217,38.217,0,0,1-2.464-3.077,60.776,60.776,0,0,1-3.915-5.979,15.5,15.5,0,0,1-.363-2.8c-.065-1.48-.053-3.314,0-5.129.1-3.288.326-6.139.425-7.117a3.886,3.886,0,0,1,.588.051,34.535,34.535,0,0,1,3.815.988c2.815.868,5.629,1.926,5.629,1.926l1.614.613-.025-1.726Z"/>
      </g>
      <path id="Path_851" data-name="Path 851" d="M396.474,402.2a1.171,1.171,0,0,0-.213.037L385.666,405a1.17,1.17,0,1,0,.588,2.264l10.595-2.777a1.164,1.164,0,0,0-.375-2.289Z"/>
      <path id="Path_852" data-name="Path 852" d="M455.988,174.83a1.169,1.169,0,0,0-.859.235c-2.866,2.25-8.087,4.144-12.532,5.378s-8.108,1.869-8.108,1.869a1.167,1.167,0,1,0,.393,2.3s3.773-.64,8.342-1.909,9.937-3.113,13.355-5.8a1.165,1.165,0,0,0-.592-2.078Z" fill="#fff"/>
      <path id="Path_853" data-name="Path 853" d="M437.615,200.962l-.188,2.339,11.871.963.188-2.339Zm41.141,3.79-.163,2.327,5.216.363.163-2.339Zm-56.27-4.443a1.168,1.168,0,0,0,.625,2.252,4.877,4.877,0,0,1,4.215.4,8.224,8.224,0,0,1,3.1,4.706c-.124-.074-.54-.613-.673-.678a4.139,4.139,0,0,0-2.852-.338c-4.537,1.163-2.47,9.564,2.539,8.644a1.17,1.17,0,1,0-.425-2.3c-2.4.441-2.9-3.728-1.539-4.078a1.667,1.667,0,0,1,1.238.163A4.674,4.674,0,0,1,430,210.1a9.117,9.117,0,0,1,1.276,1.839,1.169,1.169,0,0,0,2.214-.6s-.11-.418-.112-.45a16.99,16.99,0,0,0-1.489-5.867,9.232,9.232,0,0,0-3.315-4.04,7.431,7.431,0,0,0-6.092-.675Z"/>
      <path id="Path_854" data-name="Path 854" d="M504.487,336.606a1.169,1.169,0,0,0-1.076.725,38.315,38.315,0,0,1-2.927,5.879,6.82,6.82,0,0,1-1.676,1.876.624.624,0,0,1-.35.125c-.037,0-.073.013-.238-.15a10.1,10.1,0,0,0-4.215-2.889,3.373,3.373,0,0,0-2.5.288,4.9,4.9,0,0,0-1.889,2.2c-.442.9-.924,1.949-1.426,2.839a6.021,6.021,0,0,1-1.4,1.8c-.162.1-.2.105-.25.1s-.171-.032-.425-.275a12.294,12.294,0,0,1-2.189-4.278,23.652,23.652,0,0,0-2.239-5.1,2.513,2.513,0,0,0-1.276-1.126,1.713,1.713,0,0,0-1.076-.013,1.735,1.735,0,0,0-.751.525,5.155,5.155,0,0,0-.988,2.639c-.207,1.007-.384,2.129-.575,3.09a.753.753,0,0,1-.112.337,3.709,3.709,0,0,1-1.163-.663,18.844,18.844,0,0,1-2.377-2.452,1.167,1.167,0,0,0-1.839,1.439,19.587,19.587,0,0,0,2.752,2.827,4.433,4.433,0,0,0,2.6,1.238,2.257,2.257,0,0,0,1.639-.626,3.069,3.069,0,0,0,.8-1.639c.206-1.039.375-2.163.563-3.077a3.18,3.18,0,0,1,.15-.513,22.549,22.549,0,0,1,1.689,3.89c.912,2.6,1.74,4.193,2.764,5.179a3.135,3.135,0,0,0,1.789.913,2.764,2.764,0,0,0,1.789-.45,7.021,7.021,0,0,0,2.164-2.627c.574-1.019,1.062-2.1,1.476-2.94a2.713,2.713,0,0,1,.951-1.2.868.868,0,0,1,.763-.064,9.566,9.566,0,0,1,3.165,2.3,2.8,2.8,0,0,0,1.739.813,2.937,2.937,0,0,0,1.7-.463,8.137,8.137,0,0,0,2.414-2.6,39.18,39.18,0,0,0,3.14-6.267,1.17,1.17,0,0,0-1.088-1.614Zm38.3,45.146a1.169,1.169,0,0,0-1.076.725,38.316,38.316,0,0,1-2.927,5.879,6.822,6.822,0,0,1-1.676,1.876.623.623,0,0,1-.35.125c-.037,0-.073.011-.238-.15a10.1,10.1,0,0,0-4.215-2.889,3.375,3.375,0,0,0-2.5.287,4.9,4.9,0,0,0-1.889,2.2c-.443.9-.924,1.949-1.426,2.839a6.022,6.022,0,0,1-1.4,1.8c-.162.1-.2.105-.25.1s-.171-.032-.425-.275a12.3,12.3,0,0,1-2.189-4.278,23.652,23.652,0,0,0-2.239-5.1,2.514,2.514,0,0,0-1.276-1.126,1.7,1.7,0,0,0-1.076-.011,1.737,1.737,0,0,0-.751.525,5.156,5.156,0,0,0-.988,2.639c-.207,1.007-.384,2.129-.575,3.09a.748.748,0,0,1-.112.337,3.713,3.713,0,0,1-1.163-.663,18.85,18.85,0,0,1-2.377-2.452,1.167,1.167,0,0,0-1.839,1.439,19.586,19.586,0,0,0,2.752,2.827,4.433,4.433,0,0,0,2.6,1.238,2.257,2.257,0,0,0,1.639-.626,3.07,3.07,0,0,0,.8-1.639c.206-1.039.375-2.163.563-3.077a3.182,3.182,0,0,1,.15-.513,22.549,22.549,0,0,1,1.689,3.89c.912,2.6,1.74,4.193,2.764,5.179a3.135,3.135,0,0,0,1.789.913,2.764,2.764,0,0,0,1.789-.45,7.021,7.021,0,0,0,2.164-2.627c.574-1.019,1.062-2.1,1.476-2.94a2.712,2.712,0,0,1,.951-1.2.869.869,0,0,1,.763-.064,9.565,9.565,0,0,1,3.165,2.3,2.8,2.8,0,0,0,1.739.813,2.936,2.936,0,0,0,1.7-.463,8.139,8.139,0,0,0,2.414-2.6,39.182,39.182,0,0,0,3.14-6.267,1.169,1.169,0,0,0-1.088-1.614ZM422.843,454.228a1.27,1.27,0,0,0-1.292,1.658,44.417,44.417,0,0,1,1.763,14.35,23.172,23.172,0,0,1-3.15,10.971,17.622,17.622,0,0,1-10.473,7.592,1.257,1.257,0,1,0,.713,2.41,20.37,20.37,0,0,0,11.9-8.669,25.553,25.553,0,0,0,3.527-12.155,46.531,46.531,0,0,0-1.885-15.279,1.258,1.258,0,0,0-1.1-.875Z" fill="#fff"/>
      <path id="Path_855" data-name="Path 855" d="M555.834,479.077a1.638,1.638,0,0,0-.3.072L543.89,482.8a1.636,1.636,0,1,0,.982,3.122l11.628-3.631a1.647,1.647,0,0,0-.666-3.211Z"/>
      <g id="Group_3149" data-name="Group 3149" transform="translate(519.89 -383.13)">
        <path id="Path_856" data-name="Path 856" d="M-77.027,896.508l22.68,69.324-16.491,5.355s-24.82-25.223-24.491-67.817Z" fill="#add3d8"/>
        <path id="Path_857" data-name="Path 857" d="M-77.166,895.348a1.172,1.172,0,0,0-.275.075l-18.3,6.855a1.169,1.169,0,0,0-.751,1.088c-.333,43.052,24.817,68.648,24.817,68.648a1.169,1.169,0,0,0,1.2.288l16.486-5.354a1.169,1.169,0,0,0,.682-.583,1.169,1.169,0,0,0,.068-.895l-22.678-69.323a1.169,1.169,0,0,0-1.251-.8Zm-.6,2.677,21.94,67.059-14.56,4.728c-.748-.77-23.666-24.713-23.679-65.658Z"/>
      </g>
      <path id="Path_858" data-name="Path 858" d="M518.321,668.056l76.854-13.625s1.858-30.335.657-30.837-82.384,24.6-82.384,24.6Z" fill="#add3d8"/>
      <path id="Path_859" data-name="Path 859" d="M596.009,622.436c-.069-.011-.119-.005-.164-.011a1.935,1.935,0,0,0-.219,0c-.119.011-.217.032-.333.053-.231.037-.508.092-.85.172-.686.163-1.631.407-2.805.728-2.348.642-5.616,1.594-9.51,2.737-7.787,2.285-18.046,5.37-28.271,8.477-20.45,6.214-40.755,12.493-40.755,12.493a1.169,1.169,0,0,0-.791,1.395l4.878,19.857a1.169,1.169,0,0,0,1.335.879l76.86-13.629a1.169,1.169,0,0,0,.962-1.085s.457-7.589.772-15.251c.158-3.831.283-7.679.288-10.623,0-1.472-.026-2.712-.094-3.646a8.7,8.7,0,0,0-.144-1.19,2.517,2.517,0,0,0-.159-.526,1.189,1.189,0,0,0-.723-.748,2.648,2.648,0,0,0-.277-.078Zm-1.048,2.49c.011.091.016.12.026.224.06.821.085,2.034.082,3.476-.005,2.884-.12,6.708-.277,10.523-.295,7.166-.674,13.445-.725,14.286l-74.875,13.272-4.342-17.713c1.007-.311,19.761-6.117,39.676-12.168,10.221-3.106,20.486-6.2,28.259-8.479,3.886-1.14,7.144-2.074,9.465-2.709,1.156-.316,2.076-.561,2.712-.712ZM488.6,424.992a1.165,1.165,0,0,0-.225.011c-36.534,4.287-62.715,15.915-79.956,26.493a150.831,150.831,0,0,0-19.338,14.022c-2.163,1.853-3.809,3.378-4.953,4.428-.572.525-1.025.934-1.326,1.188a.759.759,0,0,0-.087.064,1.87,1.87,0,0,1-.926-.563,3.145,3.145,0,0,1-.45-.588l1.188-12.021a1.169,1.169,0,0,0-2.327-.225l-1.226,12.446a1.169,1.169,0,0,0,.15.688,7.032,7.032,0,0,0,.963,1.3,3.762,3.762,0,0,0,2.864,1.388,1.055,1.055,0,0,0,.851-.312,5.94,5.94,0,0,0,.513-.388c.364-.308.813-.723,1.388-1.251,1.15-1.055,2.775-2.555,4.9-4.378a148.041,148.041,0,0,1,19.026-13.81c16.992-10.426,42.841-21.923,79.017-26.168a1.17,1.17,0,0,0-.05-2.327Z"/>
      <g id="Group_3150" data-name="Group 3150" transform="translate(519.796 -331.83)">
        <path id="Path_860" data-name="Path 860" d="M-189.75,608.087a8.381,8.381,0,0,1-8.381,8.381,8.381,8.381,0,0,1-8.381-8.381,8.381,8.381,0,0,1,8.381-8.381A8.381,8.381,0,0,1-189.75,608.087Z" fill="#fff"/>
        <path id="Path_861" data-name="Path 861" d="M-198.125,598.541a9.568,9.568,0,0,0-9.557,9.544,9.579,9.579,0,0,0,9.557,9.557,9.568,9.568,0,0,0,9.544-9.557A9.558,9.558,0,0,0-198.125,598.541Zm0,2.339a7.182,7.182,0,0,1,7.205,7.205,7.193,7.193,0,0,1-7.205,7.217,7.2,7.2,0,0,1-7.217-7.217A7.193,7.193,0,0,1-198.125,600.88Z" fill="#f09b00"/>
      </g>
      <path id="Path_862" data-name="Path 862" d="M610.156,552.169a9.55,9.55,0,1,0,9.544,9.544A9.568,9.568,0,0,0,610.156,552.169Zm0,2.339a7.211,7.211,0,1,1-7.218,7.205A7.182,7.182,0,0,1,610.156,554.508Z" fill="#2bb65e"/>
      <g id="Group_3151" data-name="Group 3151" transform="translate(651.113 -127.375)">
        <path id="Path_863" data-name="Path 863" d="M-121.732,390.113a5.377,5.377,0,0,1-5.377,5.377,5.377,5.377,0,0,1-5.377-5.377,5.377,5.377,0,0,1,5.377-5.377A5.377,5.377,0,0,1-121.732,390.113Z" fill="#2bb65e"/>
        <path id="Path_864" data-name="Path 864" d="M-127.105,383.989a6.139,6.139,0,0,0-6.131,6.123,6.145,6.145,0,0,0,6.131,6.131,6.138,6.138,0,0,0,6.123-6.131A6.132,6.132,0,0,0-127.105,383.989Zm0,1.5a4.608,4.608,0,0,1,4.622,4.622,4.614,4.614,0,0,1-4.622,4.63,4.621,4.621,0,0,1-4.63-4.63,4.614,4.614,0,0,1,4.63-4.622Z" fill="#2bb65e"/>
      </g>
      <path id="Path_865" data-name="Path 865" d="M540.657,210.782a1.458,1.458,0,0,0-1.466,1.45v4.14a1.456,1.456,0,0,0,2.912,0v-4.14A1.454,1.454,0,0,0,540.657,210.782Zm-8.34,8.324a1.456,1.456,0,0,0,0,2.912h4.14a1.456,1.456,0,0,0,0-2.912Zm12.523,0a1.456,1.456,0,0,0,0,2.912h4.14a1.456,1.456,0,0,0,0-2.912Zm-4.183,4.2a1.455,1.455,0,0,0-1.466,1.446v4.14a1.456,1.456,0,0,0,2.912,0v-4.14A1.451,1.451,0,0,0,540.657,223.305Zm85.586,283.6a1.458,1.458,0,0,0-1.466,1.45v4.14a1.456,1.456,0,0,0,2.912,0v-4.14A1.454,1.454,0,0,0,626.243,506.908Zm-8.34,8.324a1.456,1.456,0,0,0,0,2.912h4.14a1.456,1.456,0,0,0,0-2.912Zm12.523,0a1.456,1.456,0,0,0,0,2.912h4.14a1.456,1.456,0,0,0,0-2.912Zm-4.183,4.2a1.455,1.455,0,0,0-1.466,1.446v4.14a1.456,1.456,0,0,0,2.912,0v-4.14A1.451,1.451,0,0,0,626.243,519.431Z"/>
      <path id="Path_866" data-name="Path 866" d="M711.281,389.745c-2.312,10.008-31.715,9.566-65.673-.988s-59.613-27.222-57.3-37.231,31.715-9.566,65.673.988,59.613,27.223,57.3,37.231Z" fill="#a0bfce"/>
      <path id="Path_867" data-name="Path 867" d="M658.675,358.347c-17.046-5.3-32.948-8.067-44.955-8.247-6-.09-11.029.454-14.8,1.708s-6.439,3.273-7.156,6.375.726,6.4,3.449,9.671a54.434,54.434,0,0,0,12.079,10.061c10.476,6.807,25.441,13.63,42.487,18.928s32.948,8.067,44.954,8.247c6,.09,11.029-.454,14.8-1.708s6.439-3.272,7.156-6.375-.726-6.4-3.449-9.671a54.432,54.432,0,0,0-12.079-10.06c-10.476-6.807-25.441-13.631-42.487-18.928Zm-.522,2.259c16.912,5.256,31.762,12.039,42.025,18.707a52.941,52.941,0,0,1,11.617,9.645c2.5,3,3.387,5.541,2.948,7.443s-2.3,3.587-5.761,4.736-8.337,1.7-14.218,1.616c-11.762-.177-27.549-2.9-44.461-8.159s-31.759-12.051-42.022-18.719a52.842,52.842,0,0,1-11.606-9.642c-2.5-3-3.4-5.544-2.958-7.446s2.315-3.584,5.772-4.733,8.326-1.708,14.208-1.619c11.762.177,27.546,2.915,44.458,8.171Z" fill="#2bb65e"/>
      <path id="Path_868" data-name="Path 868" d="M689.879,392.79c-1.554,6.727-21.317,6.43-44.141-.664s-40.068-18.3-38.513-25.024,21.317-6.43,44.141.664,40.068,18.3,38.513,25.024Z" fill="#f9f9f9"/>
      <path id="Path_869" data-name="Path 869" d="M656.316,370.874c-11.479-3.567-22.181-5.433-30.292-5.555a31.219,31.219,0,0,0-10.039,1.167c-2.584.859-4.509,2.265-5.036,4.547s.531,4.628,2.4,6.871a36.809,36.809,0,0,0,8.191,6.832c7.076,4.6,17.149,9.189,28.628,12.756s22.192,5.436,30.3,5.558a31.219,31.219,0,0,0,10.039-1.167c2.584-.859,4.512-2.277,5.039-4.559s-.534-4.616-2.4-6.859a36.811,36.811,0,0,0-8.191-6.832c-7.076-4.6-17.159-9.192-28.638-12.759Zm-.522,2.259c11.345,3.526,21.313,8.079,28.176,12.538a35.314,35.314,0,0,1,7.729,6.416c1.642,1.972,2.15,3.55,1.9,4.631s-1.372,2.165-3.645,2.921a30.041,30.041,0,0,1-9.459,1.075c-7.866-.118-18.461-1.956-29.806-5.482s-21.3-8.076-28.165-12.535a35.31,35.31,0,0,1-7.729-6.416c-1.642-1.972-2.147-3.562-1.9-4.643s1.37-2.153,3.642-2.909A30.043,30.043,0,0,1,626,367.655c7.866.118,18.45,1.953,29.8,5.479Z"/>
      <g id="Group_3152" data-name="Group 3152">
        <path id="Path_870" data-name="Path 870" d="M665.641,268.094c1.717,3.362-10.066,12.2-26.319,19.743S608.5,298.766,606.783,295.4s10.066-12.2,26.319-19.743S663.923,264.731,665.641,268.094Z" fill="#2bb65e"/>
        <path id="Path_871" data-name="Path 871" d="M632.573,274.62a116.73,116.73,0,0,0-20.1,11.56,30.3,30.3,0,0,0-5.54,5.065,7.555,7.555,0,0,0-1.3,2.286,3.059,3.059,0,0,0,.1,2.365,3.318,3.318,0,0,0,1.892,1.534,8.368,8.368,0,0,0,2.685.421,32.279,32.279,0,0,0,7.605-1.021,119.115,119.115,0,0,0,21.947-7.951,116.722,116.722,0,0,0,20.1-11.56,30.119,30.119,0,0,0,5.523-5.07,7.606,7.606,0,0,0,1.32-2.28,3.06,3.06,0,0,0-.1-2.365,3.317,3.317,0,0,0-1.892-1.534,8.471,8.471,0,0,0-2.7-.427,32.2,32.2,0,0,0-7.588,1.027A119.117,119.117,0,0,0,632.573,274.62Zm1.064,2.083a117.349,117.349,0,0,1,21.493-7.8,30.5,30.5,0,0,1,6.992-.957,6.391,6.391,0,0,1,1.908.272c.4.146.507.278.551.364s.09.245-.039.638a5.756,5.756,0,0,1-.952,1.6,28.574,28.574,0,0,1-5.1,4.655,114.994,114.994,0,0,1-19.7,11.316,117.346,117.346,0,0,1-21.493,7.8,30.5,30.5,0,0,1-6.992.957,6.391,6.391,0,0,1-1.908-.272c-.4-.146-.507-.278-.551-.364s-.09-.245.039-.638a5.756,5.756,0,0,1,.952-1.6,28.578,28.578,0,0,1,5.1-4.655A115,115,0,0,1,633.637,276.7Z" fill="#2bb65e"/>
      </g>
      <path id="Path_872" data-name="Path 872" d="M651.909,281.964c-14.385,5.921-24.692,1.072-35.49,2.05-18.966,1.864-16.4,29.723-11.407,25.435,4.4-4.159,3.677-13.18,7.454-12.849S638.282,291.253,651.909,281.964Z" fill="#f09b00"/>
      <path id="Path_873" data-name="Path 873" d="M650.553,281.4a45.723,45.723,0,0,1-21.22,3.035c-5.866-.714-11.438-2.1-17.1-1.589h-.011a16.374,16.374,0,0,0-11.27,5.779,21.372,21.372,0,0,0-4.453,10.22,20.335,20.335,0,0,0,.325,9.056,4.9,4.9,0,0,0,1.714,2.727,2.441,2.441,0,0,0,1.614.425,2.853,2.853,0,0,0,1.539-.713l.026-.026.011-.013c2.53-2.391,3.444-5.908,4.278-8.618a15.774,15.774,0,0,1,1.238-3.19c.41-.667.551-.768,1.038-.725a29.05,29.05,0,0,0,6.279-.625c2.938-.5,6.613-1.284,10.607-2.377,7.865-2.152,16.9-5.528,23.854-10.182.053-.021.1-.016.15-.038l-.011-.025c.069-.046.169-.053.238-.1,6.929-4.484,3.762-3.506,1.156-3.021Zm-38.119,3.773c5.136-.465,10.573.841,16.612,1.576a50.643,50.643,0,0,0,8.368.288c-4.418,1.888-8.574,4.306-12.859,5.479-3.918,1.072-7.529,1.843-10.382,2.327a32.473,32.473,0,0,1-5.692.588,3.569,3.569,0,0,0-3.24,1.839A16.275,16.275,0,0,0,603.765,301c-.846,2.748-1.769,5.81-3.628,7.58a.963.963,0,0,1-.238.15s.042.025-.026-.026a3.54,3.54,0,0,1-.826-1.515,18.577,18.577,0,0,1-.25-7.956,19.182,19.182,0,0,1,3.94-9.106,13.852,13.852,0,0,1,9.694-4.953Z"/>
      <g id="Group_3153" data-name="Group 3153" transform="translate(881.824 -269.352)">
        <path id="Path_874" data-name="Path 874" d="M-189.75,608.087a8.381,8.381,0,0,1-8.381,8.381,8.381,8.381,0,0,1-8.381-8.381,8.381,8.381,0,0,1,8.381-8.381A8.381,8.381,0,0,1-189.75,608.087Z" fill="#fff"/>
        <path id="Path_875" data-name="Path 875" d="M-198.125,598.541a9.568,9.568,0,0,0-9.557,9.544,9.579,9.579,0,0,0,9.557,9.557,9.568,9.568,0,0,0,9.544-9.557A9.558,9.558,0,0,0-198.125,598.541Zm0,2.339a7.182,7.182,0,0,1,7.205,7.205,7.193,7.193,0,0,1-7.205,7.217,7.2,7.2,0,0,1-7.217-7.217A7.193,7.193,0,0,1-198.125,600.88Z" fill="#f09b00"/>
      </g>
      <path id="Path_876" data-name="Path 876" d="M309.474,243.871a1.169,1.169,0,0,0-.814.374,65.689,65.689,0,0,1-11.746,9.644,117.786,117.786,0,0,0-13.636,10.4,1.166,1.166,0,1,0,1.566,1.728,117.009,117.009,0,0,1,13.321-10.144,67.991,67.991,0,0,0,12.222-10.045,1.166,1.166,0,0,0-.914-1.953Zm.851,10.693a1.169,1.169,0,0,0-.639.228l-17.974,13.272a1.167,1.167,0,1,0,1.387,1.877l17.974-13.262a1.171,1.171,0,0,0-.748-2.115Zm101.425-4.641a1.169,1.169,0,0,0-.814.374,65.688,65.688,0,0,1-11.746,9.644,117.786,117.786,0,0,0-13.635,10.4,1.166,1.166,0,1,0,1.566,1.728,117.01,117.01,0,0,1,13.321-10.144,68,68,0,0,0,12.222-10.045,1.166,1.166,0,0,0-.914-1.953Zm.851,10.693a1.169,1.169,0,0,0-.638.228l-17.974,13.271a1.167,1.167,0,1,0,1.386,1.877l17.974-13.262a1.171,1.171,0,0,0-.748-2.115Z" fill="#add3d8"/>
      <path id="Path_877" data-name="Path 877" d="M741.258,503.468a1.169,1.169,0,0,0-1,.612l-.076.136-75.826,38.967a1.169,1.169,0,0,0,.275,2.178l29.8,7.039,11.021,32.255-.066.106a1.169,1.169,0,1,0,1.975,1.251l14.4-22.926,20.3,9.79a1.169,1.169,0,0,0,1.675-1.076l-1.271-66.291a1.442,1.442,0,0,0-1.2-2.042Zm-1.066,5.59,1.165,60.88L714,556.756Zm-5.163.437-40.208,40.6-26.576-6.282Zm.423,3.181L711.16,556.054a1.17,1.17,0,0,0-.126.351l-4.713,23.564-9.535-27.906Zm-22.522,46.159,6.705,3.233-10.793,17.18Z" fill="#3fbd6d"/>
    </g>
  </g>
</svg>
