<svg xmlns="http://www.w3.org/2000/svg" viewBox="0 0 1000 1000"><path fill="#c2d8f2" d="M324.94 811.73S172.64 616.2 175.87 519.4c3.23-96.8 357.76-353.26 449.53-339.44 91.77 13.83 118.17 231.32 44 389.72-74.17 158.4 106.86 44 123.2-51.54s186.06 117-37.72 293.59H324.94z"/><path fill="#9bd" d="M652.87 287.11c-6.52 0-11.82-5.3-11.82-11.82s5.3-11.82 11.82-11.82 11.82 5.3 11.82 11.82-5.31 11.82-11.82 11.82zm0-19.66c-4.32 0-7.84 3.52-7.84 7.84s3.52 7.84 7.84 7.84 7.84-3.52 7.84-7.84-3.52-7.84-7.84-7.84zm-476.7 114.54c-6.52 0-11.82-5.3-11.82-11.82 0-6.52 5.3-11.82 11.82-11.82 6.52 0 11.82 5.3 11.82 11.82 0 6.52-5.31 11.82-11.82 11.82zm0-19.66c-4.32 0-7.84 3.52-7.84 7.84s3.52 7.84 7.84 7.84 7.84-3.52 7.84-7.84-3.52-7.84-7.84-7.84zm287.98-111.07c-5.15 0-9.34-4.19-9.34-9.34 0-5.15 4.19-9.34 9.34-9.34 5.15 0 9.34 4.19 9.34 9.34 0 5.15-4.19 9.34-9.34 9.34zm0-14.71c-2.96 0-5.37 2.41-5.37 5.37s2.41 5.37 5.37 5.37 5.37-2.41 5.37-5.37-2.41-5.37-5.37-5.37zm413.96 250.99c-6.52 0-11.82-5.3-11.82-11.82 0-6.52 5.3-11.82 11.82-11.82s11.82 5.3 11.82 11.82c0 6.52-5.3 11.82-11.82 11.82zm0-19.66c-4.32 0-7.84 3.52-7.84 7.84s3.52 7.84 7.84 7.84 7.84-3.52 7.84-7.84-3.52-7.84-7.84-7.84zm-69.96-53.36-30.43-109.29 86.86-40.1 3.23 116.65-59.66 32.74zm-25.69-107.1 28.18 101.21 53.15-29.16-3-108.2-78.33 36.15zM732.3 418.91 675.62 316.9l95.17-9.78 29.53 109.54-68.02 2.25zm-50.28-98.67 52.57 94.62 60.59-2-27.35-101.44-85.81 8.82z"/><path fill="#9bd" d="m796.79 417.09-29.92-109.2 14.62-4.01 29.92 109.2-14.62 4.01zm-25.04-106.42 27.82 101.54 6.95-1.91-27.82-101.54-6.95 1.91z"/><path fill="#9bd" d="m688.88 317.48-3.11-2.47 6.29-7.93.51-.19c25.02-9.65 45.6-11.31 58.46-11 14.03.34 22.06 2.96 22.39 3.07l1.01.34 2.19 7.98-3.83 1.05-1.61-5.89c-2.51-.68-9.68-2.35-20.44-2.59-12.38-.28-32.14 1.34-56.23 10.54l-5.63 7.09z"/><path fill="#9bd" d="m772.78 308.32-2.19-7.98.7-.8c.23-.27 5.8-6.62 17.7-14.06 10.91-6.82 29.46-15.88 55.9-20.34l.53-.09 9.46 3.62-1.42 3.71-8.45-3.23c-44.04 7.55-65.93 28.04-70.02 32.24l1.61 5.89-3.82 1.04z"/><path fill="#9bd" d="m691.8 310.06-16.3-18.17 6.82 2.08c.1.03 11.34 3.09 45.09-3.58 35.88-7.09 46.61 8.7 47.05 9.38l-3.32 2.18c-.02-.04-2.45-3.56-8.85-6.26-5.99-2.53-16.78-4.82-34.11-1.4-22.13 4.37-34.87 4.67-41.37 4.26l7.95 8.87-2.96 2.64zM771.914 318.798l10.936-2.998 1.05 3.83-10.937 2.997zM774.364 327.748l10.937-2.997 1.05 3.829-10.937 2.997zM794.198 399.633l10.916-3.072 1.076 3.821-10.916 3.073zM791.672 390.651l10.915-3.074 1.076 3.821-10.915 3.074z"/><path fill="#9bd" d="M769.52 304.91c-2.89-.34-5.77-.54-8.65-.72-2.88-.16-5.76-.25-8.64-.31-1.44-.02-2.88-.05-4.32-.04-.72 0-1.44-.03-2.16-.01-.72.01-1.44.02-2.17.01-.72-.01-1.44.02-2.17.02l-2.17.02c-1.45.01-2.9.05-4.36.01 1.43-.29 2.86-.53 4.3-.74 1.44-.17 2.89-.37 4.34-.47 1.45-.13 2.91-.2 4.36-.25.73-.02 1.46-.05 2.19-.05l2.19.01c2.91.06 5.83.26 8.72.65 1.45.19 2.89.43 4.31.73 1.43.32 2.85.65 4.23 1.14zm-24.8 2.36c-3.96.03-7.9.23-11.83.48-3.93.26-7.85.62-11.76 1.04-.98.11-1.95.23-2.93.35l-1.47.17-1.46.2-2.93.38c-.97.15-1.95.3-2.92.43l-1.46.21c-.49.07-.97.16-1.46.23l-2.92.46c-1.95.3-3.89.67-5.86.94.94-.3 1.89-.58 2.84-.86l1.43-.41c.48-.14.95-.27 1.44-.38 1.93-.46 3.85-.97 5.8-1.33.97-.2 1.94-.39 2.92-.58l2.93-.49 1.47-.23 1.47-.19c.98-.12 1.97-.26 2.95-.37 3.95-.43 7.91-.67 11.88-.71 3.96-.06 7.94.07 11.87.66zm29.86-4.72c2.31-2.1 4.76-4.03 7.26-5.88 2.5-1.85 5.07-3.62 7.69-5.29 2.62-1.68 5.32-3.24 8.06-4.72 2.75-1.46 5.58-2.79 8.5-3.89l-7.92 4.9-7.84 4.96-7.83 4.99c-2.62 1.67-5.24 3.33-7.92 4.93zm15.39-5.27c3.59-2.48 7.3-4.77 11.06-6.98.94-.56 1.88-1.1 2.83-1.64.95-.54 1.9-1.07 2.85-1.6 1.91-1.06 3.84-2.07 5.76-3.09l2.92-1.47c.97-.49 1.95-.98 2.93-1.45 1.97-.94 3.94-1.86 5.94-2.74 4-1.74 8.06-3.36 12.23-4.65-3.94 1.87-7.84 3.77-11.74 5.7-.97.5-1.94.99-2.91 1.47-.97.48-1.93.99-2.9 1.48-1.94.97-3.87 1.98-5.8 2.98l-2.9 1.49-2.89 1.51-5.78 3.01c-3.84 2.03-7.7 4.03-11.6 5.98zM194.75 807.41l-3.09-.27c.08-.97 9.1-97.45 58.41-170.35l2.57 1.74c-48.86 72.24-57.8 167.93-57.89 168.88zm-14.86-.03-3.09-.21c.11-1.65 10.94-165.26-5.5-215.5l2.94-.96c16.63 50.81 6.1 209.92 5.65 216.67zm-19.82-.02c-.05-.83-5.26-83.73-59.67-117.28l1.62-2.64c55.8 34.41 61.09 118.9 61.14 119.75l-3.09.17z"/><path fill="#9bd" d="m209.06 807.63-3.02-.71c.06-.24 5.65-24.03 11.78-47.33 3.22-12.23 9.78-15.7 15.06-18.49 5.23-2.77 9.01-4.76 8.44-14.49-.35-5.89-1.04-10.24-1.6-13.74-1.47-9.18-2.14-13.38 6.23-25.02 4.9-6.82 9.24-9.01 12.41-10.62 4.11-2.08 6.18-3.12 6.51-13.35.09-2.95.14-5.43.18-7.56.21-11.87.24-13.39 7.85-24.27 2.02-2.88 1.04-5.94-.13-8-2.9-5.09-10.81-10.21-18.42-9.63-5.5.42-9.61 3.8-11.88 9.77-7.44 19.51-12 22.81-20.26 28.8-1.84 1.33-3.92 2.84-6.24 4.7-11.85 9.48-15.48 13.96-13.07 30.82 1.49 10.39-4.12 22.17-9.06 32.56-3.42 7.19-6.66 13.99-6.42 18.35.62 11.13-3.7 65.63-3.89 67.94l-3.09-.25c.05-.57 4.49-56.6 3.88-67.53-.29-5.15 2.96-11.97 6.71-19.86 4.76-9.99 10.15-21.32 8.79-30.79-2.62-18.3 1.81-23.78 14.2-33.68 2.38-1.9 4.49-3.44 6.36-4.79 7.78-5.64 12.07-8.75 19.19-27.4 2.7-7.06 7.86-11.24 14.54-11.75 8.05-.62 17.42 4.29 21.35 11.18 2.29 4.01 2.28 8.02-.02 11.31-7.07 10.1-7.09 11.04-7.29 22.54-.04 2.14-.08 4.64-.18 7.6-.37 11.5-3.21 13.49-8.21 16.01-3.04 1.54-6.83 3.45-11.29 9.66-7.62 10.61-7.1 13.91-5.69 22.72.57 3.56 1.28 8 1.64 14.05.69 11.71-4.54 14.48-10.08 17.41-4.99 2.64-10.64 5.63-13.51 16.54-6.12 23.31-11.71 47.07-11.77 47.3zm-58.18-.08c-.05-.31-5.61-31.26-17.33-39.47-12.88-9.01-16.75-15.79-18.01-31.51-.17-2.14-.29-4.05-.41-5.76-.69-10.62-.82-12.54-8-15.89-2.5-1.17-4.84-1.77-7.1-2.35-5.84-1.5-10.89-2.79-12.37-13.12-.73-5.09-3.02-7.22-5.67-9.69-3.51-3.26-7.49-6.96-6.73-17.87.39-5.62 3.5-7.67 6.05-8.41 10.29-2.99 31.43 10.5 37.03 18.13 4.18 5.7 7.48 6.88 11.31 8.24 2.14.76 4.36 1.55 6.86 3.14.59.38 1.2.75 1.81 1.13 6.42 3.99 14.42 8.96 15.63 20.46l.16 1.57c1.12 10.73 1.79 17.21 8.42 22.13 7.68 5.69 7.04 17.05 6.42 28.03l-.13 2.42c-.61 11.57.47 38.2.48 38.47l-3.1.13c-.01-.27-1.09-27.05-.48-38.76l.13-2.43c.6-10.63 1.16-20.67-5.18-25.37-7.73-5.73-8.5-13.12-9.66-24.3l-.16-1.57c-1.05-9.99-7.73-14.14-14.18-18.15-.62-.39-1.24-.77-1.84-1.15-2.21-1.4-4.26-2.13-6.24-2.84-3.95-1.41-8.03-2.86-12.77-9.32-5.08-6.93-24.96-19.51-33.67-16.99-1.5.43-3.53 1.49-3.82 5.65-.65 9.43 2.32 12.19 5.75 15.39 2.69 2.5 5.74 5.34 6.63 11.52 1.19 8.28 4.53 9.14 10.07 10.56 2.28.59 4.87 1.25 7.64 2.54 8.85 4.13 9.08 7.75 9.78 18.5.11 1.69.23 3.59.4 5.71 1.19 14.93 4.47 20.66 16.69 29.22 12.77 8.94 18.37 40.15 18.61 41.47l-3.02.54z"/><path fill="#9bd" d="M166.21 748.03c0-.19-.11-18.93-6.04-34.58-6.34-16.72-7.44-23.67-3.7-44.2 1.91-10.51-1.3-18.12-4.7-26.17-3.03-7.17-6.16-14.59-5.86-24.41.3-9.73 2.95-13.73 5.29-17.25 2.62-3.95 4.69-7.08 2.53-18.38-1.48-7.71 6.06-14.48 13.88-16.32 8.06-1.9 18.91.89 22.86 15.02 4.85 17.32 5.35 28 5.68 35.07.34 7.22.51 10.84 4.49 15.1 5.44 5.83 4.41 12.62 3.21 20.48-.86 5.63-1.83 12-.48 19.07l-3.04.58c-1.45-7.59-.43-14.25.46-20.12 1.12-7.36 2.01-13.17-2.41-17.9-4.75-5.09-4.97-9.6-5.32-17.07-.35-7.34-.82-17.4-5.57-34.38-3.36-12-12.09-14.49-19.17-12.84-6.44 1.51-12.68 6.81-11.55 12.72 2.4 12.54-.22 16.49-2.99 20.67-2.21 3.34-4.5 6.78-4.77 15.63-.28 9.15 2.72 16.25 5.62 23.11 3.43 8.12 6.97 16.51 4.89 27.93-3.6 19.78-2.54 26.47 3.55 42.55 6.14 16.19 6.24 34.88 6.25 35.67l-3.11.02z"/><g fill="#9bd"><path d="m818.28 807.33-2.93-1.01c1.39-4.02 34.55-98.49 84.29-109.05l.64 3.03c-48.02 10.2-81.66 106.06-82 107.03zm-14.85-.07-2.97-.87c.35-1.18 34.39-119.21 16.76-209.52l3.04-.59c17.77 91.05-16.48 209.79-16.83 210.98zm-16.61-.01c-.18-.64-18.65-64.22-46.19-74.05-6.89-2.46-13.9-1.26-20.83 3.55l-1.77-2.54c7.8-5.42 15.75-6.74 23.64-3.93 29.04 10.36 47.37 73.43 48.13 76.11l-2.98.86z"/><path d="M775.22 807.63c-.08-.13-8.1-13.26-14.8-22.39-2.53-3.45-6.21-4.16-9.77-4.84-5.05-.97-10.76-2.07-10.35-11.85l.05-1.24c.36-8.47.63-14.59-1.77-16.91-1.14-1.1-3.01-1.51-5.91-1.28-4.42.34-8.46-.38-12.02-1.02-5.17-.92-9.64-1.72-13.98.76-1.98 1.13-3.22.72-3.91.17-1.22-.96-1.44-2.84-.64-5.58 1.9-6.52 11.38-21.36 27.17-22.96 21.05-2.13 24.97-1.23 32.32 7.39 3.14 3.69 4.76 5.91 5.93 7.54 2.3 3.17 2.54 3.5 9.81 7.94 10.11 6.18 13.96 11.83 12.47 18.34-1.41 6.21 4 34.46 6.2 44.82l-3.03.64c-.33-1.55-8.04-38.01-6.19-46.15.77-3.37.2-8.12-11.07-15-7.51-4.59-8.13-5.22-10.7-8.77-1.15-1.58-2.72-3.75-5.78-7.35-6.3-7.39-8.83-8.43-29.65-6.32-10.3 1.04-18.26 8.83-22.28 15.78-2.12 3.66-2.6 6.09-2.58 7.03.11-.04.24-.11.39-.2 5.32-3.04 10.53-2.1 16.06-1.12 3.55.63 7.21 1.29 11.24.98 3.84-.3 6.48.38 8.3 2.15 3.4 3.28 3.13 9.64 2.71 19.27l-.05 1.24c-.3 7.11 2.77 7.7 7.84 8.68 3.76.72 8.44 1.62 11.69 6.05 6.78 9.24 14.86 22.48 14.94 22.61l-2.64 1.59z"/><path d="m791.85 785.42-2.93-1c.05-.13 4.56-13.6 6.38-31.78.83-8.26-1.52-13.05-3.8-17.68-2.68-5.46-5.45-11.1-2.61-21.55 2.73-10.07 6.39-11.81 9.32-13.2 2.48-1.18 4.11-1.96 4.73-9.13.58-6.82-1.48-9.3-3.67-11.92-2.77-3.32-5.63-6.75-2.2-17.39 2.47-7.65 5.12-10.84 7.25-13.4 2.77-3.32 4.44-5.33 3.13-17.09-1.07-9.6-4.16-13.41-6.65-16.47-2.85-3.51-5.31-6.54-2.63-15.29 3.99-13.05 8.84-24.4 23.98-19.9 12.31 3.65 17.28 16.93 12.98 34.67-1.53 6.3 1.35 14.3 4.39 22.77 3.97 11.05 8.47 23.58 3.83 35.05-2.5 6.18-4.4 9.66-5.65 11.96-2.6 4.78-2.6 4.78-.76 17.4.71 4.85 1.33 8.33 1.79 10.87 1.43 7.95 1.49 8.95-.95 18.44l-3-.77c2.34-9.1 2.26-9.56.9-17.12-.46-2.56-1.09-6.07-1.81-10.97-1.94-13.26-1.9-13.8 1.11-19.33 1.29-2.37 3.06-5.62 5.5-11.64 4.2-10.38.1-21.8-3.87-32.84-3.2-8.92-6.23-17.35-4.49-24.55 3.93-16.21-.13-27.78-10.85-30.97-10.31-3.06-15.01 1.11-20.13 17.84-2.2 7.18-.59 9.16 2.07 12.43 2.6 3.2 6.16 7.58 7.33 18.08 1.39 12.49-.36 15.25-3.83 19.41-1.96 2.36-4.4 5.29-6.68 12.37-2.9 9.01-.9 11.41 1.63 14.45 2.38 2.85 5.07 6.08 4.38 14.17-.71 8.32-3.03 10.02-6.49 11.66-2.49 1.18-5.31 2.52-7.67 11.22-2.53 9.32-.24 13.98 2.41 19.37 2.35 4.78 5.01 10.21 4.1 19.35-1.87 18.57-6.5 32.35-6.54 32.48z"/><path d="m827.61 807.15-3.03-.66c4.81-22.22 11.87-28.85 18.1-34.7 3.43-3.22 6.38-6 8.47-11.14 1.02-2.52 1.89-4.69 2.64-6.59 3.75-9.43 5.01-12.61 10.38-19.35 3.36-4.22 6.12-4.49 9.31-4.81 3.28-.33 7.36-.74 14.41-6.14 7.17-5.5 6.98-9.31 6.84-12.1-.12-2.45-.26-5.22 4.9-6.31 2.7-.57 6.13-.64 9.46-.71 5.12-.11 10.93-.23 12.31-2.27.45-.66.42-1.68-.09-3.03-1-2.66-3.09-4.55-6.22-5.62-5.95-2.03-14.88-.63-21.26 3.32-5.04 3.12-8.83 1.83-12.18.71-3.9-1.32-7.27-2.45-13.23 2.27-4.91 3.9-6.71 8.46-8.3 12.49-2.14 5.42-4.21 10.55-13.18 10.11-6.51-.34-8.01 3.88-10.25 11.96-1.55 5.57-3.3 11.88-8.05 17.04-10.28 11.17-19.52 55.11-19.61 55.55l-3.03-.63c.38-1.84 9.51-45.22 20.36-57.01 4.25-4.62 5.89-10.54 7.35-15.78 2.1-7.55 4.08-14.68 13.39-14.23 6.84.36 8.06-2.86 10.15-8.15 1.65-4.17 3.7-9.36 9.26-13.78 7.28-5.77 11.99-4.18 16.15-2.78 3.22 1.08 5.77 1.95 9.56-.41 7.22-4.47 17.04-5.96 23.89-3.61 3.99 1.36 6.8 3.95 8.12 7.47.88 2.35.8 4.32-.25 5.85-2.28 3.37-8.37 3.5-14.81 3.63-3.18.07-6.47.14-8.88.65-2.57.54-2.56.89-2.44 3.13.16 3.28.41 8.22-8.05 14.71-7.75 5.94-12.51 6.42-15.99 6.76-2.9.29-4.65.47-7.2 3.66-5.08 6.38-6.21 9.21-9.93 18.57-.76 1.91-1.62 4.09-2.65 6.61-2.34 5.77-5.69 8.91-9.22 12.24-5.9 5.52-12.59 11.81-17.2 33.08z"/></g><path fill="#576c89" d="M900.29 820.57H100.83c0-8.93 7.24-16.16 16.16-16.16h767.13c8.93 0 16.17 7.23 16.17 16.16z"/><g fill="#9bd"><path d="M335.84 426.53c-.43 0-.86 0-1.29-.01-24.72-.34-47.83-10.28-65.07-27.99-17.24-17.72-26.55-41.08-26.22-65.8.33-24.72 10.28-47.83 27.99-65.07 17.71-17.24 41.08-26.55 65.8-26.22 24.72.33 47.83 10.28 65.07 27.99s26.55 41.08 26.22 65.8c-.34 24.72-10.28 47.83-27.99 65.07-17.41 16.94-40.28 26.23-64.51 26.23zm-.05-181.08c-22.28 0-44.57 8.33-61.77 25.06-35 34.06-35.76 90.25-1.7 125.25 16.5 16.95 38.62 26.47 62.27 26.79 23.66.33 46.02-8.59 62.98-25.09 16.95-16.5 26.47-38.62 26.79-62.27.32-23.66-8.59-46.02-25.09-62.98-17.33-17.82-40.4-26.76-63.48-26.76z"/><path d="M335.83 407.91c-.34 0-.68 0-1.03-.01-19.74-.27-38.2-8.21-51.98-22.36-13.77-14.15-21.21-32.82-20.94-52.56.27-19.74 8.21-38.2 22.36-51.98 14.15-13.77 32.82-21.21 52.56-20.94 19.74.27 38.2 8.21 51.98 22.36 13.77 14.15 21.21 32.82 20.94 52.56-.27 19.74-8.21 38.2-22.36 51.98-13.9 13.53-32.17 20.95-51.53 20.95zm-.04-143.85c-17.6 0-35.2 6.58-48.78 19.79-27.64 26.9-28.24 71.28-1.34 98.92 13.69 14.07 31.91 21.13 50.14 21.13 17.6 0 35.2-6.58 48.78-19.79 13.39-13.03 20.9-30.5 21.16-49.18.25-18.68-6.78-36.35-19.82-49.74-13.69-14.06-31.91-21.13-50.14-21.13z"/><path d="m379.1 378.6-2.71-2.91c4.17-3.88 7.72-8.32 10.58-13.19l3.43 2.01c-3.05 5.2-6.85 9.94-11.3 14.09zm16.88-28.02-3.83-1.05c5.48-19.93-.07-41.51-14.47-56.3l2.85-2.77a62.44 62.44 0 0 1 15.86 28.49 62.665 62.665 0 0 1-.41 31.63zM262.53 425.8l-22.37-22.97 19.56-19.04 2.77 2.85-16.71 16.26 16.82 17.29 16.42-15.98 2.77 2.85z"/><path d="m147.57 548.04-32.72-33.62 122.98-119.69 32.72 33.62-122.98 119.69zm-27.1-33.54 27.18 27.93 117.28-114.15-27.18-27.93L120.47 514.5z"/></g><path fill="#c4e1ea" d="M442.08 399.9c8.76-.11 16.07 6.96 16.19 15.72.06 4.38-1.7 8.37-4.54 11.35-2.85 2.92-6.85 4.78-11.23 4.84l-21.34.28-85.67 1.12-18.3.24c-8.76.11-16.07-7.01-16.19-15.77-.06-4.38 1.69-8.37 4.54-11.3 2.9-2.93 6.85-4.78 11.23-4.84l28.04-.37 71.91-.94 25.36-.33z"/><path fill="#a3c1c9" d="M530.4 736.47c-.01-.01-.01-.01-.01-.02-.05-.42-.11-.84-.17-1.27-.05-.35-.1-.69-.17-1.03-.07-.45-.15-.9-.24-1.35-.05-.25-.1-.49-.16-.74-.04-.23-.09-.46-.15-.68-.08-.36-.16-.71-.25-1.06-.02-.09-.04-.2-.07-.29-.07-.29-.15-.57-.23-.87-.04-.17-.09-.33-.14-.5-.07-.27-.15-.55-.24-.82-.08-.27-.16-.53-.25-.79-.18-.56-.37-1.12-.57-1.68-.09-.25-.18-.5-.28-.75a52.46 52.46 0 0 0-3.86-8.1c-11.27-19.34-24.6-38.35-37.22-57.56-1.35-2.05-2.7-4.12-4.03-6.18-.44-.68-.89-1.37-1.33-2.07l-.01-.02c-14.13-22.01-26.83-44.38-34.01-67.89l-2.55-9.81c-8.47-32.37-28.53-107.89-23.29-140.9l-85.66 1.12c1.56 8.43 1.74 19.7 1 32.35-.48 8.23-1.34 17.06-2.46 26.06-.44 3.54-.92 7.11-1.43 10.67-2.42 16.99-5.54 34.05-8.5 48.55-1.86 9.19-3.67 17.35-5.17 23.8l-2.3 9.88c-13.14 47.4-48.46 90.8-73.08 135.66-17.47 31.78 1.96 71.33 37.77 77.1 34.25 5.54 68.83 8.07 103.37 7.62 34.59-.46 69.08-3.9 103.18-10.32 21.55-4.05 36.79-20.29 41.43-39.42a52.734 52.734 0 0 0 1.08-18.69z"/><path fill="#c4e1ea" d="M520.28 747.01c-.46 4.54-1.67 9.06-3.66 13.39-.05.12-.1.23-.17.34-5.83 12.52-16.93 21.15-30.49 23.7-2.63.49-5.26.97-7.89 1.43-5.03.88-10.07 1.69-15.12 2.44-3.2.47-6.41.92-9.62 1.34-3.59.47-7.19.9-10.79 1.31-1.64.18-3.28.36-4.92.53-3.68.39-7.37.73-11.06 1.04-12.49 1.06-25 1.72-37.5 1.98-1.5.04-2.99.06-4.49.08-4.32.06-8.64.07-12.96.03a591.08 591.08 0 0 1-88.62-7.51c-13.76-2.22-25.16-10.68-31.29-23.23-6.09-12.48-5.76-26.59.91-38.73 5.66-10.31 12.03-20.76 18.48-31.06 2.26-3.62 4.53-7.21 6.79-10.77.08-.14.17-.27.25-.41 4.99-7.9 10.02-15.86 14.9-23.92 1.53-2.52 3.04-5.05 4.52-7.58.68-1.15 1.35-2.3 2.01-3.45 1.49-2.57 2.95-5.14 4.37-7.73 1.31-2.36 2.59-4.74 3.84-7.12 2.04-3.88 3.99-7.78 5.85-11.71 5.28-11.14 9.75-22.51 12.98-34.13l2.4-10.3c.15-.65.39-1.67.68-3.03.71-3.19 1.77-8.19 3.04-14.52 1.8-8.93 4.02-20.51 6.21-33.27.57-3.38 1.16-6.84 1.72-10.37.25-1.56.5-3.13.75-4.71a774.587 774.587 0 0 0 2.92-20.13c.69-5.27 1.32-10.53 1.87-15.69 1.69-15.89 2.57-30.91 1.93-42.74l63.06-.82c-.52 32.61 10.91 92.23 19.32 127.87 1.23 5.23 2.4 9.95 3.45 13.99l2.47 9.49.62 2.37c1.46 4.79 3.14 9.51 4.98 14.18 2.99 7.56 6.44 14.99 10.21 22.31 2.07 4.02 4.25 8.01 6.5 11.96 6.18 10.85 12.93 21.46 19.82 31.92 3.18 4.83 6.39 9.62 9.57 14.39 9.11 13.62 18.52 27.69 26.61 41.56 4.55 7.83 6.44 16.61 5.55 25.28z"/><path fill="#fe875e" d="M505.8 726.9c5.27 9.06 5.77 19.72 1.41 29.26-4.36 9.59-12.83 16.2-23.17 18.14-32.76 6.2-66.23 9.53-99.58 9.96h-.05c-33.35.44-66.89-2.01-99.8-7.36-10.38-1.67-19.03-8.05-23.64-17.53-4.61-9.43-4.39-20.1.65-29.29 7.55-13.76 16.14-27.33 25.18-41.62 14.04-22.25 28.39-44.97 39-68.98 0 0 16.02-13.15 40.93-12.44 24.96.76 40 23.35 69.31 5.13 11.47 25.89 27.72 50.16 43.5 73.77 9.41 14.06 18.35 27.4 26.26 40.96z"/><linearGradient id="a" x1="764.783" x2="764.783" y1="1554.12" y2="1477.249" gradientTransform="rotate(-.81 -83438.191 30275.067)" gradientUnits="userSpaceOnUse"><stop offset="0"/><stop offset="1" stop-color="#fff"/></linearGradient><path fill="url(#a)" d="M442.08 399.9c8.76-.11 16.07 6.96 16.19 15.72.06 4.38-1.7 8.37-4.54 11.35-2.85 2.92-6.85 4.78-11.23 4.84l-21.34.28-85.67 1.12-18.3.24c-8.76.11-16.07-7.01-16.19-15.77-.06-4.38 1.69-8.37 4.54-11.3 2.9-2.93 6.85-4.78 11.23-4.84l28.04-.37 71.91-.94 25.36-.33z"/><linearGradient id="b" x1="763.476" x2="771.318" y1="1917.107" y2="1477.982" gradientTransform="rotate(-.81 -83438.191 30275.067)" gradientUnits="userSpaceOnUse"><stop offset="0"/><stop offset="1" stop-color="#fff"/></linearGradient><path fill="#f7cc7f" d="M345.07 728.05c.08 6.41-5.04 11.67-11.45 11.75-6.41.08-11.67-5.04-11.75-11.45-.08-6.41 5.04-11.67 11.45-11.75 6.41-.08 11.67 5.04 11.75 11.45zM377.5 684c.04 3.25-2.56 5.92-5.8 5.96-3.25.04-5.92-2.56-5.96-5.8-.04-3.25 2.56-5.92 5.8-5.96a5.884 5.884 0 0 1 5.96 5.8zm45.94 40.08c.06 4.78-3.76 8.71-8.54 8.77-4.78.06-8.71-3.76-8.77-8.54-.06-4.78 3.76-8.71 8.54-8.77 4.78-.07 8.71 3.76 8.77 8.54zm9.66-45.48a5.135 5.135 0 0 1-5.06 5.2 5.135 5.135 0 0 1-5.2-5.06 5.135 5.135 0 0 1 5.06-5.2 5.122 5.122 0 0 1 5.2 5.06zm-88.96-21.69a5.796 5.796 0 1 1-5.87-5.72c3.2-.05 5.83 2.52 5.87 5.72zm-54.82 80.53a2.945 2.945 0 0 1-2.9 2.98 2.945 2.945 0 0 1-2.98-2.9 2.945 2.945 0 0 1 2.9-2.98 2.932 2.932 0 0 1 2.98 2.9zm180.1-8.16a5.796 5.796 0 1 1-5.87-5.72c3.19-.05 5.82 2.52 5.87 5.72zm-48.17-97.81c.06 4.51-3.55 8.22-8.06 8.27-4.51.06-8.22-3.55-8.27-8.06-.06-4.51 3.55-8.22 8.06-8.27 4.5-.05 8.21 3.55 8.27 8.06z"/><path fill="#fff" d="M516.62 760.4c-.05.12-.1.23-.17.34l-186.8-186.81c1.69-7.68 5.51-26 9.25-47.79l139.62 139.62c3.18 4.83 6.39 9.62 9.57 14.39 9.11 13.62 18.52 27.69 26.61 41.56 6.98 11.96 7.69 26.05 1.92 38.69zM458.7 633.85 340.62 515.77c1.31-8.09 2.57-16.48 3.67-24.85l92.1 92.1.62 2.37c5.14 16.79 12.81 32.87 21.69 48.46zm-32.16 158.67c-13.98 1.19-28 1.88-41.99 2.06-4.32.06-8.64.07-12.96.03L271.06 694.08c2.35-3.75 4.71-7.48 7.04-11.18 4.99-7.9 10.02-15.86 14.9-23.92l133.54 133.54zm36.41-4.22a600.35 600.35 0 0 1-25.34 3.18L297.52 651.4c3.56-6.04 6.99-12.14 10.22-18.3l155.21 155.2z"/><path fill="#fff" d="M529.3 755.15c-1.17-.84-2.88-2.12-2.92-2.04l-6.1-6.1c.89-8.67-1-17.45-5.58-25.3-8.09-13.86-17.5-27.94-26.61-41.56-3.19-4.76-6.39-9.56-9.57-14.39-6.89-10.45-13.65-21.07-19.82-31.92-2.25-3.95-4.42-7.94-6.5-11.96l28.8 28.8.01.02c.44.69.89 1.38 1.33 2.07 1.33 2.07 2.68 4.12 4.03 6.18 12.62 19.21 25.95 38.22 37.22 57.56 1.55 2.65 2.83 5.36 3.86 8.1.09.25.19.5.28.75.2.56.39 1.12.57 1.68.09.26.17.52.25.79.09.28.17.55.24.82.05.17.09.33.14.5.09.29.16.57.23.87.03.09.05.2.07.29.09.35.17.71.25 1.06l.15.68a27.025 27.025 0 0 1 .4 2.09c.07.34.12.68.17 1.03.07.42.12.84.17 1.27v.01l.01.01c.79 6.34.39 12.66-1.08 18.69zM291.98 640.4l7.55 7.55c-.66 1.15-1.33 2.3-2.01 3.45-1.48 2.53-3 5.06-4.52 7.58-4.87 8.06-9.91 16.02-14.9 23.92-.09.14-.17.27-.25.41l-7.48-7.48c7.42-11.75 14.83-23.53 21.61-35.43zm21.61-19.01c-1.85 3.93-3.81 7.83-5.85 11.71-1.25 2.39-2.53 4.76-3.84 7.12l-7.59-7.59c3.42-6.28 6.62-12.61 9.53-18.99l7.75 7.75zm27.78-110.33c-.25 1.59-.49 3.16-.75 4.71-.57 3.53-1.15 6.99-1.72 10.37-2.2 12.77-4.41 24.34-6.21 33.27l-8.58-8.58c2.95-14.5 6.07-31.55 8.5-48.55l8.76 8.78zm4.8-35.83c-.55 5.16-1.18 10.42-1.87 15.69-.42 3.22-.87 6.43-1.33 9.63l-8.94-8.94c1.12-9 1.98-17.83 2.46-26.06l9.68 9.68zm117.11 145.64-21.29-21.29c-1.84-4.67-3.51-9.4-4.98-14.18l-.62-2.37-2.47-9.49c-1.05-4.04-2.23-8.76-3.45-13.99l14.15 14.15 2.37 9.11c3.98 12.98 9.64 25.63 16.29 38.06zm23.67 173.88c-8.14 1.51-16.3 2.87-24.48 4.04l-9.15-9.15c3.22-.42 6.42-.87 9.62-1.34 5.06-.74 10.1-1.56 15.12-2.44l8.89 8.89zm-44.42-3.8 9.28 9.28a601.278 601.278 0 0 1-52.74 4.3l-10.03-10.03c12.5-.25 25.01-.92 37.5-1.98 3.7-.31 7.38-.65 11.06-1.04 1.65-.17 3.28-.35 4.93-.53z"/><path fill="#fec65e" d="M472.52 792.89h158.43v12.17H472.52z"/><path fill="#fe875e" d="m552.14 776.36-78.82 16.53h157.63z"/><path fill="#fec65e" d="M536.12 765.01h32.03v13.85h-32.03zM536.14 737.28h32.03v13.85h-32.03z"/><path fill="#fe875e" d="M542.72 751.15h18.83V765h-18.83z"/><path fill="#fae0b2" d="M520.31 711.82a5.628 5.628 0 0 0-7.42 2.89l-6.46 14.69a5.628 5.628 0 0 0 2.89 7.42 5.628 5.628 0 0 0 7.42-2.89l6.46-14.69a5.63 5.63 0 0 0-2.89-7.42zm79.98-181.73a5.63 5.63 0 0 1-2.89-7.42l6.46-14.69a5.63 5.63 0 0 1 10.31 4.53l-6.46 14.69a5.628 5.628 0 0 1-7.42 2.89z"/><path fill="#fec65e" d="M549.63 739.43c-16.85 0-33.66-3.5-49.55-10.5-1.89-.83-2.76-3.05-1.92-4.94.83-1.89 3.05-2.76 4.94-1.92 28.26 12.44 59.67 13.13 88.45 1.94 28.78-11.19 51.48-32.91 63.91-61.18 25.68-58.34-.9-126.69-59.24-152.37-1.89-.83-2.76-3.05-1.92-4.94.83-1.89 3.05-2.76 4.94-1.92 62.12 27.34 90.42 100.13 63.08 162.25-13.24 30.09-37.42 53.23-68.06 65.14-14.46 5.64-29.56 8.44-44.63 8.44z"/><path fill="#466eb6" d="M469.33 674.87c.32 6.19 0 17.13 0 17.13l-.02.02c-20.49-19.73-33.23-47.41-33.23-78.08 0-2.97.12-5.92.37-8.82h.02c0 .63.15 4.99 4.14 8.82 4.31 4.12 6.16 5.65 9.26 7.36 3.09 1.71 12.35 7.26 12.35 7.26s1.88.61 7.11 7.41 10.18 9.28 11.43 12.98c1.24 3.7 3.7 7.09 3.7 7.09s-9.26 12.67-11.11 13.91c-1.85 1.21-4.31-1.25-4.02 4.92zm113.93 32.74c1.19 6.41 4 5.72 4.36 5.6v.02c-13.25 5.77-27.89 8.99-43.26 8.99 0 0 3.7-5.36 6.7-11.52 2.97-6.19-.51-4.34-1.75-16.69-1.24-12.35 0 0 .78-1.85.8-1.85 1.68-7.41 0-12.35-1.53-4.53-.27-3.87-.02-3.73-.71-.63-11.99-10.67-15.59-16.57-1.36-2.27-2.07-3.39-2.39-3.85.15-1.19.54-4.87.54-7.36 0-2.46-6.77-1.22-8.62-1.22-1.88 0-9.28 1.85-14.28 2.46-5.02.61-7.97 12.96-7.97 9.26 0-3.7-3.09-2.46-4.34-2.78-1.22-.29-3.07-4.02-4.31-7.09-1.24-3.09-3.09-1.85-5.55-4.95-2.48-3.09-4.34-4.34-6.8-11.13-2.48-6.77-4.34-4.31-9.26-14.2-4.95-9.87 0 0 1.22-4.73 1.24-4.73 3.09-2.68 7.48-6.38 4.36-3.7 6.11-1.24 6.11-1.24s4.31 3.09 6.8 7.62c2.46 4.53 10.5 3.51 10.5 3.51l-1.85-5.55c-.44-1.29-.66-2-.78-2.34l-.1-.32c-.07-.22-.19-.54-.37-1.07-1.24-3.7-8.65-12.96-2.46-19.76 6.16-6.8 6.16-4.31 10.5-11.11 4.31-6.8 8.65-4.95 13.57-4.34 4.95.63 3.73.63 11.74 0 8.04-.61 9.26-.61 11.74-9.26 2.46-8.65 0 0-1.24-8.04-1.24-8.01 0-6.77 0-13.64s-3.09-.56-7.41 0c-4.34.54-5.55.68-8.04 2.53-2.46 1.85-6.16 6.8-11.11 8.04-4.95 1.22-3.09 0-9.89-2.51-6.8-2.51 0-6.14 1.24-11.69 1.24-5.58 5.99 0 5.99 0s2.05-2.48 5.75-4.95c3.7-2.48 6.16-1.24 12.35-5.02 6.16-3.78 2.46 1.92 11.11 0 8.65-1.92 4.95-4.04 4.95-4.04v-4.02s-6.19.73-11.74.1c-5.55-.61-15.44 1.24-24.07 5.29-8.65 4.04-5.58 2.75-8.04.97-2.46-1.78-16.69-.68-25.26 0 17.95-13.25 40.15-21.07 64.17-21.07 29.52 0 56.3 11.79 75.81 30.96-1.41-1.19-14.67 3.65-15.91 7.33-1.22 3.7.63 4.95-3.7 9.26-4.31 4.34-4.31 4.34-14.2 8.04-9.89 3.7-8.65-1.85-14.2 6.8-5.55 8.62-6.8 10.47-5.55 14.81 1.24 4.31-.63 11.74 8.01 9.26 8.65-2.46 5.58-10.5 14.84-7.41s17.76 3.7 17.76 3.7-3.22-9.26 0-11.11c3.24-1.85 9.14 1.22 12.98 4.31 3.85 3.09 3.85 2.48 6.31 6.19 2.46 3.7 4.95 5.31 6.8 4.8 1.85-.49 8.65-10.35 8.65-10.35l4-5.9c3.48 9.43 5.7 19.49 6.43 29.94h-.02c-6.7-4.29-7.94-3.68-18.44-3.68s-11.74 2.41-21-.02c-9.26-2.44-8.65-4.29-19.76-3.68-11.11.61-9.26-1.39-16.05 3.63-6.8 5.02-10.5-.12-12.35 11.4-1.85 11.52-4.95 9.67 0 19.56 4.95 9.87 4.95 8.01 9.87 17.91 4.95 9.89 8.65 1.85 6.8 16.05-1.85 14.2-1.85 16.69-1.85 19.15 0 2.48-1.24 9.89-1.24 12.98-.03 3.1 3.65 1.15 4.91 8.05zm-.61-153.79v-9.87c-3.7 0 1.85-4.34-3.7 0-5.55 4.31-7.41 9.26-8.65 11.11-1.24 1.85-4.14 3.09-4.14 3.09l16.49-4.33z"/><path fill="#50bfa5" d="M550.08 692.16c-.78 1.85-2.02-10.5-.78 1.85s4.73 10.5 1.75 16.69c-3 6.16-6.7 11.52-6.7 11.52-29.16 0-55.59-11.5-75.05-30.21l.02-.02s.32-10.94 0-17.13c-.29-6.16 2.17-3.7 4.02-4.92 1.85-1.24 11.11-13.91 11.11-13.91s-2.46-3.39-3.7-7.09c-1.24-3.7-6.19-6.19-11.43-12.98s-7.11-7.41-7.11-7.41-9.26-5.55-12.35-7.26-4.95-3.24-9.26-7.36c-4-3.82-4.14-8.19-4.14-8.82h-.02c2.58-32.16 19.22-60.34 43.75-78.39 8.57-.68 22.8-1.78 25.26 0 2.46 1.78-.61 3.07 8.04-.97 8.62-4.04 18.51-5.9 24.07-5.29 5.55.63 11.74-.1 11.74-.1v4.02s3.7 2.12-4.95 4.04-4.95-3.78-11.11 0c-6.19 3.78-8.65 2.53-12.35 5.02-3.7 2.46-5.75 4.95-5.75 4.95s-4.75-5.58-5.99 0c-1.24 5.55-8.04 9.18-1.24 11.69 6.8 2.51 4.95 3.73 9.89 2.51 4.95-1.24 8.65-6.19 11.11-8.04 2.48-1.85 3.7-2 8.04-2.53 4.31-.56 7.41-6.87 7.41 0s-1.24 5.63 0 13.64c1.24 8.04 3.7-.61 1.24 8.04-2.48 8.65-3.7 8.65-11.74 9.26-8.01.63-6.8.63-11.74 0-4.92-.61-9.26-2.46-13.57 4.34-4.34 6.8-4.34 4.31-10.5 11.11-6.19 6.8 1.22 16.05 2.46 19.76.17.54.29.85.37 1.07l.1.32c.12.34.34 1.05.78 2.34l1.85 5.55s-8.04 1.02-10.5-3.51c-2.48-4.53-6.8-7.62-6.8-7.62s-1.75-2.46-6.11 1.24c-4.38 3.7-6.24 1.66-7.48 6.38-1.22 4.73-6.16-5.14-1.22 4.73 4.92 9.89 6.77 7.43 9.26 14.2 2.46 6.8 4.31 8.04 6.8 11.13 2.46 3.09 4.31 1.85 5.55 4.95 1.24 3.07 3.09 6.8 4.31 7.09 1.24.32 4.34-.93 4.34 2.78 0 3.7 2.95-8.65 7.97-9.26 4.99-.61 12.4-2.46 14.28-2.46 1.85 0 8.62-1.24 8.62 1.22 0 2.48-.39 6.16-.54 7.36-.17-.24-.24-.32-.27-.29 0 .1.19.54.19.66.02-.02.05-.17.07-.37.32.46 1.02 1.58 2.39 3.85 3.61 5.9 14.88 15.93 15.59 16.57-.24-.15-1.51-.8.02 3.73 1.69 4.93.81 10.48 0 12.33zm37.54 21.05c-.37.12-3.17.8-4.36-5.6-1.27-6.89-4.95-4.95-4.95-8.01 0-3.09 1.24-10.5 1.24-12.98 0-2.46 0-4.95 1.85-19.15s-1.85-6.16-6.8-16.05c-4.92-9.89-4.92-8.04-9.87-17.91-4.95-9.89-1.85-8.04 0-19.56s5.55-6.38 12.35-11.4c6.8-5.02 4.95-3.02 16.05-3.63 11.11-.61 10.5 1.24 19.76 3.68 9.26 2.44 10.5.02 21 .02s11.74-.61 18.44 3.68h.02c.17 2.53.27 5.07.27 7.65 0 44.43-26.75 82.61-65.02 99.29v-.03zm-8.67-169.26c5.55-4.34 0 0 3.7 0v9.87l-16.49 4.34s2.9-1.24 4.14-3.09c1.25-1.86 3.1-6.81 8.65-11.12zm66.99 32.38v.02l-4 5.9s-6.8 9.87-8.65 10.35c-1.85.51-4.34-1.1-6.8-4.8-2.46-3.7-2.46-3.09-6.31-6.19-3.85-3.09-9.74-6.16-12.98-4.31-3.22 1.85 0 11.11 0 11.11s-8.5-.61-17.76-3.7c-9.26-3.09-6.19 4.95-14.84 7.41-8.65 2.48-6.77-4.95-8.01-9.26-1.24-4.34 0-6.19 5.55-14.81 5.55-8.65 4.31-3.09 14.2-6.8 9.89-3.7 9.89-3.7 14.2-8.04 4.34-4.31 2.48-5.55 3.7-9.26 1.24-3.68 14.49-8.53 15.91-7.33 0 .02.02.02.02.02 11.3 11.09 20.17 24.58 25.77 39.69z"/><path fill="#13375b" d="M730.83 516.52c-56.23 7.71-103.06-10.73-103.06-10.73s29.88-3.66 52.23-1.34c19.8 2.06 50.83 12.07 50.83 12.07z"/><path fill="#355389" d="m734.17 484.36-3.35 32.15s-31.03-10.01-50.83-12.07c-22.35-2.33-52.23 1.34-52.23 1.34l3.35-32.15 3.35-32.15s26.68-12.29 53.08-9.54c24.49 2.55 49.98 20.27 49.98 20.27l-3.35 32.15z"/><path fill="#13375b" d="m789.89 466.16-54.86 18.29-.86-.09 3.35-32.15s-25.49-17.72-49.98-20.27c-26.41-2.75-53.08 9.54-53.08 9.54l-3.35 32.15-.84-.09-49.92-29.21 109.49-34.45 100.05 56.28z"/><path fill="#355389" d="m686.55 402.2-105.32 33.74-.88 8.4 105.31-33.13c2.67-.84 5.56-.54 8 .83l96.23 54.12.87-8.4-96.12-54.71c-2.46-1.41-5.4-1.72-8.09-.85z"/><path fill="#fec65e" d="M601.01 493.96s-3.99 7.33-3.34 13.43c.66 6.1 3.13 11.73 3.13 11.73l1.45.15-.76-6.75 2.03 9.04 2.4-.61-1.42-12.96 2.52 10.92s2.48-1.03 2.56-1.89c.09-.85-2.14-10.77-2.14-10.77l3.14 11.74s1.59 1.03 2.81-10.69c1.22-11.71-8.71-15.54-8.71-15.54l-3.67 2.2z"/><path fill="#fec65e" d="m645.7 415.28-7.57 2.43c-1.28-.29-2.86-.55-4.62-.74-7.99-.83-19.95.15-27.64 11.07-.54.77-1.06 1.58-1.55 2.45-1.42 2.46-2.5 4.91-3.31 7.35-4.01 12-1.4 23.61 1.34 35.78 1.49 6.62 3.03 13.47 3.44 20.43.08 1.4-.98 2.6-2.38 2.67-.14.01-.28.01-.42-.01-1.21-.13-2.19-1.11-2.26-2.36-.39-6.55-1.87-13.19-3.32-19.62-2.55-11.33-5.17-22.97-2.19-35.07.75-3.07 1.87-6.17 3.44-9.3.39-.8.81-1.58 1.27-2.38 13.74-24.03 43.22-14.21 43.52-14.1.77.27 1.52.81 2.25 1.4z"/><circle cx="603.54" cy="492.86" r="5.28" fill="#f7f07f"/><path fill="#fae0b2" d="M593.31 744.42h175.43s-3.06 12.7-3.06 26.5c0 13.41 3.06 26.5 3.06 26.5H593.31c-6.22 0-11.27-5.05-11.27-11.27V755.7c0-6.23 5.04-11.28 11.27-11.28z"/><path fill="#184655" d="M771.1 737.22c1.99 0 3.6 1.62 3.6 3.6 0 1-.4 1.9-1.06 2.55-.65.66-1.55 1.06-2.55 1.06H593.31c-6.22 0-11.27 5.05-11.27 11.28v30.45c0 6.22 5.05 11.27 11.27 11.27h177.8c1.99 0 3.6 1.61 3.6 3.6 0 1-.4 1.89-1.06 2.55-.65.65-1.55 1.06-2.55 1.06H593.3c-10.21 0-18.48-8.28-18.48-18.48V755.7c0-10.2 8.26-18.48 18.48-18.48h177.8z"/><path fill="#e5bd83" d="M604.88 754.68c10.39-.46 20.78-.78 31.17-.93 10.39-.19 20.78-.24 31.17-.27 10.39.02 20.78.07 31.17.26 10.39.16 20.78.47 31.16.94-10.39.47-20.78.78-31.16.94-10.39.19-20.78.24-31.17.26-10.39-.02-20.78-.08-31.17-.27-10.4-.15-20.79-.46-31.17-.93zm-6.5 16.24c3.93-.5 7.85-.76 11.78-.93 3.93-.19 7.85-.24 11.78-.27 3.93.02 7.85.07 11.78.26 3.93.18 7.85.44 11.78.94-3.93.5-7.85.76-11.78.94-3.93.19-7.85.24-11.78.26-3.93-.02-7.85-.08-11.78-.27-3.93-.17-7.86-.43-11.78-.93zm30.05 16.65c3.93-.5 7.85-.76 11.78-.93 3.93-.19 7.85-.24 11.78-.27 3.93.02 7.85.07 11.78.26 3.93.18 7.85.44 11.78.94-3.93.5-7.85.76-11.78.94-3.93.19-7.85.24-11.78.26-3.93-.02-7.85-.08-11.78-.27-3.93-.17-7.86-.43-11.78-.93zm24.78-9.74c9.07-.46 18.14-.78 27.21-.93 9.07-.19 18.14-.24 27.21-.27 9.07.02 18.14.07 27.21.26 9.07.16 18.14.47 27.21.94-9.07.47-18.14.78-27.21.94-9.07.19-18.14.24-27.21.26-9.07-.02-18.14-.08-27.21-.27-9.07-.16-18.14-.47-27.21-.93z"/><path fill="#50bfa5" d="M634.92 803a34.293 34.293 0 0 1 0-32.08h-30.05a34.293 34.293 0 0 0 0 32.08c3.56-2.73 7.52-5.61 11.87-8.55 5.67 2.94 11.73 5.82 18.18 8.55z"/><path fill="#fae0b2" d="M641.97 672.34s5.18 12.02-.19 26.79l-20.39-1.12-51.13-2.79v-.01s1.55-5.83 1.55-12.65c0-6.27-1.55-12.66-1.55-12.66v-.01l50.39 1.72 21.32.73z"/><path fill="#3c8f7c" d="m569.2 695.17 1.07.06 51.13 2.79 20.39 1.12c5.37-14.76.19-26.79.19-26.79l-21.31-.73-50.39-1.72-1.21-.04a2.996 2.996 0 0 1 .09-5.99h.13l75.69 2.8s9.99 16.6 0 38.09l-76.05-3.58a3.025 3.025 0 0 1-2.86-3.11c.06-1.62 1.41-2.89 3.02-2.89.03-.01.06-.01.11-.01zM569.27 663.86l207.42-2.61-1.14.04-130.59 5.37z"/><path fill="#184655" d="m647.49 666.56 128.06-5.27c6.38-.25 11.7 4.84 11.74 11.23l.08 15.95c.04 6.1-4.77 11.12-10.86 11.35l-131.55 4.93c9.99-21.49 0-38.09 0-38.09l2.53-.1z"/><path fill="#e5bd83" d="M641.59 682.65c-3.95.28-7.89.32-11.83.28-3.94-.03-7.86-.19-11.79-.39-3.92-.24-7.85-.51-11.76-.92-3.92-.39-7.83-.87-11.72-1.59 3.95-.28 7.89-.32 11.83-.28 3.94.03 7.86.19 11.79.39 3.92.24 7.85.51 11.76.92 3.91.39 7.83.87 11.72 1.59zm-41.77 6.29c-4.38.28-8.72.12-13.06-.15-4.33-.31-8.66-.74-12.96-1.61 4.38-.29 8.72-.12 13.06.15 4.34.32 8.66.74 12.96 1.61z"/><path fill="#f47458" d="M606.83 706.18c-3.99-5.88-3.59-19.84.74-25.48 7.85.23 15.4 1.2 23.25 1.42-4.33 5.64-4.44 18.86-.45 24.74-4.88-1.75-9.62-4-14.03-6.54-3.43 2.31-6.54 4.34-9.51 5.86z"/><path fill="#355389" d="m656.01 703.22 3.71.33c-9.22.67-16.15 8.68-15.48 17.91l.37 5.11c.56 7.7 6.25 13.8 13.49 15.2l-59.59-4.69c-9.93-.95-17.18-9.81-16.17-19.73l.28-2.75c.99-9.79 9.65-16.96 19.45-16.09h.01l53.93 4.71z"/><path fill="#355389" d="m799.48 700.16-139.76 3.39-3.71-.33-53.93-4.72h-.01l-.65-.06z"/><path fill="#86b1f2" d="m795.47 705.8-135.44 3.75a10.7 10.7 0 0 0-7.69 4.26c-1.62 2.16-2.28 4.89-2.08 7.6l.35 4.71c.4 5.5 5.02 9.88 10.52 9.96.31 0 .64-.01.95-.03l.14-.01 133.46-3.23 3.32-.08c1.56-.04 2.84 1.24 2.82 2.8l-.01.49a2.746 2.746 0 0 1-2.68 2.71l-136.61 3.3c-1.52.11-3 .02-4.43-.27-7.24-1.4-12.93-7.5-13.49-15.2l-.37-5.11c-.67-9.22 6.26-17.23 15.48-17.91l139.76-3.39a2.757 2.757 0 0 1 2.82 2.8 2.737 2.737 0 0 1-2.67 2.71l-4.15.14z"/><path fill="#fae0b2" d="m795.69 732.81-133.46 3.23-.14.01c-.31.02-.64.04-.95.03-5.5-.08-10.12-4.46-10.52-9.96l-.35-4.71c-.2-2.71.46-5.44 2.08-7.6 1.87-2.48 4.64-4.01 7.69-4.26l135.44-3.75c-.05.24-1.75 8.3-1.83 13.48-.08 5.15 2.04 13.53 2.04 13.53z"/><path fill="#e5bd83" d="M661.99 717.37c3.91-.66 7.83-1.08 11.75-1.42 3.92-.35 7.85-.56 11.77-.75 3.93-.14 7.86-.25 11.79-.22 3.94.01 7.87.11 11.82.45-3.91.66-7.82 1.08-11.75 1.42-3.92.35-7.85.56-11.77.75-3.93.14-7.86.25-11.79.22-3.93-.02-7.87-.12-11.82-.45zm32.33 10.93c3.91-.66 7.82-1.08 11.75-1.42 3.92-.35 7.85-.56 11.77-.75 3.93-.14 7.86-.25 11.79-.22 3.94.01 7.87.11 11.82.45-3.91.66-7.82 1.08-11.75 1.42-3.92.35-7.85.56-11.77.75-3.93.14-7.86.25-11.8.22-3.93-.01-7.87-.11-11.81-.45z"/><path fill="#50bfa5" d="M699.67 748.69c5.42-7.27 5.74-25.26.53-32.69-10.01-.14-18.91.93-28.93.78 5.2 7.43 3.76 24.19-1.65 31.47 6.32-1.95 12.48-4.57 18.25-7.56 4.26 3.14 8.11 5.9 11.8 8z"/><path fill="#e5bd83" d="M728.92 721.23c5.38-.66 10.76-1.08 16.15-1.42 5.39-.35 10.78-.57 16.17-.76 5.39-.14 10.79-.25 16.19-.23 5.4.01 10.8.11 16.21.45-5.38.66-10.76 1.09-16.15 1.43-5.39.35-10.78.57-16.17.75-5.39.14-10.79.25-16.19.22-5.4-.01-10.81-.11-16.21-.44z"/><path fill="#13375b" d="M592.95 456.49c-7.05 2.82-10.82 14.61-11.33 29.71-.51 15.11-9.1 34.95.33 40.07 9.43 5.12 25.24-7.12 37.45 3.62 12.21 10.74 29.99 11.73 29.99 11.73s11.09-8.79 6.73-33.93c-4.36-25.14-20.98-16.37-28.41-26.78s-10.95-33.95-34.76-24.42z"/><path fill="#f47458" d="M596.97 504.92s24.64-5.17 23.85 2.89c-.33 3.44-10.99 18.85-11.24 20.13-.16.94-.38 1.89-.57 2.83-.2.94-.41 1.89-.65 2.85-.24.96-.46 1.9-.72 2.86l-.84 2.89c-.13.48-.29.97-.46 1.46l-.5 1.47-.5 1.46-.59 1.5-.61 1.49c-.1.25-.2.49-.31.75l-.36.77-.73 1.54-.37.77-.19.38-.31.58c-.45.79-.89 1.59-1.41 2.33-.53.73-1.08 1.45-1.65 2.13-.59.64-1.2 1.27-1.82 1.87-.62.57-1.27 1.08-1.92 1.59-2.62 1.93-5.26 3.16-7.75 4.01-.62.19-1.26.43-1.85.57l-1.81.45c-1.17.24-2.35.45-3.47.57-2.26.28-4.44.38-6.53.35-4.19-.05-4.72-19.61-1.93-20.32 1.4-.34 2.7-.77 3.87-1.22.28-.12.59-.22.85-.35.26-.13.52-.25.78-.36l.69-.38c.24-.12.4-.26.6-.38.73-.51 1.12-2.26 1.12-2.26l.25-.9.13-.45c.04-.16.07-.33.11-.5l.22-1 .24-.99.2-1.07c.13-.73.28-1.4.39-2.16.26-1.48.77-6.62 1.41-13.42.67-7.29 5.97-12.9 14.38-14.73z"/><path fill="#f8c558" d="M643.62 563.48c.42-5.5 3.82-16.18 4.1-24.68.59-17.68.15-34.74-28.23-34.89a.36.36 0 0 0-.11-.02c-1.88-.32-3.27-.46-3.92-.52l-.42-.03c-13.26-.38-22.77 1.01-23.92 10.64-.7 5.88-5.54 8.45-6.43 14.77-1.15 8.23 1.17 9.6 3.28 16.45 1.67 5.42-13.01 42.09-13.01 42.09l70.5 1.36c.02 0-2.84-12.09-1.84-25.17z"/><path fill="#587cf8" d="M615.47 503.37c.66.06 2.04.2 3.92.52-1.28-.25-2.59-.42-3.92-.52z"/><path fill="#fae0b2" d="m618.78 487.95-18.29 3.14 2.43 6.93.01.02.67 1.91.64 1.83.13.38 2.2.25-1.45 1.41s.71 2.87 6.47 2.87 7.81-2.82 7.81-2.82l-.62-15.92z"/><path fill="#fae0b2" d="M619.37 482.36c.4 8.59-4.32 15.69-12.57 18.15-6.31 1.88-11.18-.76-18.55-16.69-3.61-7.81 6.24-15.89 14.83-16.29 8.59-.41 15.88 6.23 16.29 14.83z"/><path fill="#fe875e" d="M605.74 504.85s-.41-.34-.63-1.02c-.24-.74-1.29-2.83-1.29-2.83s9.88-1.16 12.18-7.76c-.01.01 1.75 8.13-10.26 11.61z"/><path fill="#f47458" d="M632.84 506.95c20.83-.25 14.3 49.45-1.04 56.05-18.89 8.14-30.29 5.37-30.29 5.37l-.14-11.37c.11-.05 22.39-3.57 22.93-10.62 1.18-15.44-10.27-38.1 8.54-39.43z"/><path fill="#d1d1d1" d="m578.65 573.03 27.64-.02c-.58 0-1.11.2-1.49.52-.39.32-.62.76-.62 1.25 0 .98.95 1.78 2.11 1.78l-56.83.04c-1.16 0-2.11-.8-2.11-1.78 0-.49.24-.93.62-1.25.39-.32.91-.52 1.49-.52l29.19-.02z"/><path fill="#9e9e9e" d="M637.26 572.99c.98 0 1.78.79 1.78 1.77 0 .49-.2.93-.52 1.26-.32.32-.77.52-1.26.52l-31.34.02c-.98 0-1.78-.8-1.78-1.78 0-.49.2-.93.52-1.25.32-.32.77-.52 1.26-.52l30.68-.02h.66z"/><path fill="#d1d1d1" d="M607.8 572.08a2.5 2.5 0 0 1-1.94.93h-2.24c.76 0 1.46-.34 1.94-.93.48-.59.66-1.35.5-2.1l-7.45-35.48a2.534 2.534 0 0 0-2.46-1.99h2.24c1.18 0 2.22.84 2.46 1.99l7.45 35.48c.16.75-.02 1.51-.5 2.1z"/><path fill="#f4f4f4" d="M605.56 572.08a2.5 2.5 0 0 1-1.94.93l-53.93.04c-1.18 0-2.22-.84-2.46-1.99l-7.45-35.48c-.15-.74.03-1.5.51-2.1.47-.59 1.19-.93 1.94-.93l53.93-.04c1.18 0 2.22.84 2.46 1.99l7.45 35.48c.15.75-.03 1.51-.51 2.1z"/><path fill="#fff" d="M575.84 552.78a2.926 2.926 0 1 1-2.93-2.92c1.62 0 2.93 1.3 2.93 2.92z"/><path fill="#13375b" d="M619.62 478.7s-19.4 6.46-29.82-3.95c0 0 6.62 7.52 11.2 6.72 0 0-6.49 2.01-11.2-5.37 0 0-1.3 6.8-4.68 8.18 0 0-3.09-18.93 13.22-21.28 16.31-2.36 20.49 8.23 21.28 15.7z"/><path fill="#fae0b2" d="M506.33 637.13s-4.79 5.17-6.68 4.13l19.59 12.89 4.18-5.77-17.09-11.25z"/><path fill="#11442f" d="m492.71 638.85 5.5 1.91c1.15.4 2.42.34 3.53-.16l2.63-1.58 5.46 8.82 11.77 3.05-1.16 1.6-6.2-1.74 5.11 3.36c.85.56 1.09 1.71.53 2.57l-1.55 2.35c-.6.91-1.82 1.16-2.73.56l-5.86-3.85v-3.12l-4.2.35-18.41-12.11a.637.637 0 0 1-.05-1.03 5.87 5.87 0 0 1 5.63-.98z"/><path fill="#fae0b2" d="M545.46 669.15s-1.16 6.95-3.31 7.12h23.45l.32-7.12h-20.46z"/><path fill="#11442f" d="m535.03 678.07 5.65-1.43c1.18-.3 2.21-1.04 2.86-2.07l1.33-2.76 9.41 4.37 11.51-3.92-.09 1.98-6.13 1.95h6.12c1.02 0 1.85.83 1.85 1.85v2.82c0 1.09-.88 1.97-1.97 1.97h-7.01l-1.72-2.6-3.32 2.6h-22.04c-.43 0-.74-.42-.61-.84a5.888 5.888 0 0 1 4.16-3.92zm20.23-62.68-11.42 53.76h23.17l18.77-56.81s-6.73-3.07-16.22-7.1c-9.5-4.03-11.89 4.18-14.3 10.15z"/><path fill="#184655" d="M645.01 600.98c-2.77 15.99-10.75 19.9-31.85 17.46-26.46-3.06-41.15-12.26-41.15-12.26l-45.94 42.4-19.65-13.92s11.87-15.1 27.4-33.76c16.42-19.74 19.93-30.76 50.91-23.34 19.11 4.58 33.82 4.84 47.66 8 7.99 1.82 13.1 3.09 13.1 3.09a47.6 47.6 0 0 1-.48 12.33z"/><path fill="#11442f" d="M645.01 600.98c-16.39 1.04-12.63-15.42-12.63-15.42 7.99 1.82 13.1 3.09 13.1 3.09.38 4.09.23 8.28-.47 12.33zM507.95 632.5l20.35 14.64c.96.69 1.18 2.04.49 3s-2.04 1.18-3 .49l-20.35-14.64a2.156 2.156 0 0 1-.49-3c.7-.96 2.05-1.18 3-.49zm35.33 32.35h25.07c1.18 0 2.15.97 2.15 2.15s-.97 2.15-2.15 2.15h-25.07a2.16 2.16 0 0 1-2.15-2.15c0-1.18.97-2.15 2.15-2.15z"/><path fill="#fe875e" d="M571.99 613.89h225.36v52.38H571.99z"/><path fill="#f7a491" d="M594.22 613.89h13.34v52.38h-13.34zM775.118 666.28h-13.34V613.9h13.34z"/><path fill="#efefef" d="M571.99 635.82s-17.05 8.22-19.8 30.45l7.31-6.09 2.59 6.09s1.68-18.88 9.9-26.19v-4.26z"/><path fill="#a3bf50" d="M213.6 638.74h-11.35c0 7.61-5.42 13.96-12.62 15.38-.99.2-2.01.3-3.06.3l-.48-.02-3.86 127.44-.08 2.62h30.95l.31-2.62 11.06-92.92 5.98-50.2H213.6z"/><path fill="#7a8f3c" d="M230.44 638.74h11.35c0 7.27 4.59 13.39 12.72 15.17 1.55.34 3.23.52 5.03.52l16.8 127.43.35 2.62h-31.54l-.57-2.62-20.12-92.92 5.98-50.2z"/><path fill="#f8a492" d="M223.29 796.88s-4.18 2.03-2.78 6.37h9.21a5.557 5.557 0 0 0-2.69-4.13c-1.47-.87-2.67-1.59-3.74-2.24zm-41.14-5.97v6.49c8.44-.11 7.51-7.59 7.51-7.59-3.38-.22-5.39-.5-5.75-.56-.04 0-.06-.01-.06-.01h-.04c-.92 0-1.66.75-1.66 1.67z"/><path fill="#f47458" d="M213.38 790.65c-.68-.43-1.42-.9-2.23-1.41 0 0-.8.11-2.24.26-2.38.24-6.49.55-11.45.55-.42 0-.83 0-1.23-.01-2.55-.02-4.75-.11-6.57-.23 0 0 .93 7.49-7.51 7.59v5.85h38.36c-1.4-4.34 2.78-6.37 2.78-6.37-2.24-1.36-3.9-2.41-6.16-3.84-1.07-.69-2.28-1.46-3.75-2.39z"/><path fill="#b75742" d="M182.15 803.25v.21c0 1.16.94 2.11 2.1 2.11h43.85c.46 0 .87-.19 1.17-.49.3-.3.48-.71.48-1.17 0-.22-.02-.44-.04-.66h-47.56z"/><path fill="#fae0b2" d="M183.85 784.48v4.76s.02 0 .06.01c.65.07 6.51.7 12.32.78.4.01.81.01 1.23.01 4.97 0 9.08-.31 11.45-.55 1.38-.15 2.15-.26 2.15-.26v-4.76h-27.21z"/><path fill="#f8a492" d="M209.61 794.77c-.06 0-.13-.02-.18-.07-.1-.1-.1-.26 0-.36l3.77-3.86c.1-.1.26-.1.36 0 .1.1.1.26 0 .36l-3.77 3.86c-.05.04-.12.07-.18.07zm1.88 1.28c-.06 0-.13-.02-.18-.07-.1-.1-.1-.26 0-.36l3.77-3.86c.1-.1.26-.1.36 0 .1.1.1.26 0 .36l-3.77 3.86c-.05.04-.11.07-.18.07zm1.89 1.08c-.06 0-.13-.02-.18-.07-.1-.1-.1-.26 0-.36l3.75-3.84c.08-.11.24-.13.35-.05.11.08.13.24.05.35l-.02.02-3.77 3.87a.23.23 0 0 1-.18.08zm73.57-.25s-4.18 2.03-2.78 6.37h9.21a5.557 5.557 0 0 0-2.69-4.13c-1.47-.87-2.68-1.59-3.74-2.24zm-41.14-5.97v6.49c8.44-.11 7.51-7.59 7.51-7.59-3.38-.22-5.39-.5-5.75-.56-.04 0-.06-.01-.06-.01h-.04c-.92 0-1.66.75-1.66 1.67z"/><path fill="#f47458" d="M277.04 790.65c-.68-.43-1.42-.9-2.23-1.41 0 0-.81.11-2.24.26-2.38.24-6.49.55-11.45.55-.42 0-.83 0-1.23-.01-2.55-.02-4.75-.11-6.57-.23 0 0 .93 7.49-7.51 7.59v5.85h38.36c-1.4-4.34 2.78-6.37 2.78-6.37-2.24-1.36-3.9-2.41-6.16-3.84-1.07-.69-2.28-1.46-3.75-2.39z"/><path fill="#b75742" d="M245.81 803.25v.21c0 1.16.94 2.11 2.1 2.11h43.85c.46 0 .87-.19 1.17-.49.3-.3.48-.71.48-1.17 0-.22-.02-.44-.04-.66h-47.56z"/><path fill="#fae0b2" d="M247.51 784.48v4.76s.02 0 .06.01c.65.07 6.51.7 12.32.78.4.01.81.01 1.23.01 4.97 0 9.08-.31 11.45-.55 1.38-.15 2.15-.26 2.15-.26v-4.76h-27.21z"/><path fill="#f8a492" d="M273.27 794.77c-.06 0-.13-.02-.18-.07-.1-.1-.1-.26 0-.36l3.77-3.86c.1-.1.26-.1.36 0 .1.1.1.26 0 .36l-3.77 3.86c-.05.04-.11.07-.18.07zm1.88 1.28c-.06 0-.13-.02-.18-.07-.1-.1-.1-.26 0-.36l3.77-3.86c.1-.1.26-.1.36 0 .1.1.1.26 0 .36l-3.77 3.86c-.05.04-.11.07-.18.07zm1.89 1.08c-.06 0-.13-.02-.18-.07-.1-.1-.1-.26 0-.36l3.75-3.84c.08-.11.24-.13.35-.05.11.08.13.24.05.35l-.02.02-3.77 3.87a.23.23 0 0 1-.18.08z"/><path fill="#3f4411" d="m230.44 638.74-1.93 68.89-4.04-18.69zM186.57 638.74l-.48 15.67.48.02c1.05 0 2.07-.1 3.06-.3 7.2-1.42 12.62-7.77 12.62-15.38h-15.68zm70.91 0h-15.69c0 7.27 4.59 13.39 12.72 15.17 1.55.34 3.23.52 5.03.52l-2.06-15.69z"/><path fill="#171c51" d="M186.09 654.67c.99 0 2.53-.08 3.59-.29 7.43-1.47 12.82-8.04 12.82-15.63 0-.14-.11-.25-.25-.25s-.25.11-.25.25c0 7.35-5.22 13.71-12.42 15.14-.96.2-2.45.28-3.49.28-.14 0-.25.11-.25.25 0 .13.11.25.25.25zm68.53.24h.04c.14-.02.23-.15.21-.29l-.11-.75a.251.251 0 0 0-.29-.21c-.14.02-.23.15-.21.29l.11.75c.02.12.13.21.25.21zm18.21 127.37-.21-1.48c-.02-.14.08-.26.21-.28.14-.02.27.08.28.21l.21 1.48c.02.14-.08.26-.21.29h-.04c-.11 0-.22-.09-.24-.22zm-.42-2.96-.21-1.48c-.02-.14.08-.26.21-.28.14-.01.27.08.29.21l.21 1.48c.02.14-.08.26-.21.28h-.04c-.13 0-.24-.09-.25-.21zm-.43-2.97-.21-1.48c-.02-.14.08-.26.21-.29.14-.02.27.08.29.21l.21 1.48c.02.14-.08.26-.21.28h-.04a.227.227 0 0 1-.25-.2zm-.43-2.97-.21-1.48c-.02-.14.08-.26.21-.28.14-.02.27.08.28.21l.21 1.48c.02.14-.08.26-.21.28h-.04c-.12.01-.22-.08-.24-.21zm-.43-2.96-.21-1.48c-.02-.14.08-.26.21-.29.14-.02.27.08.28.21l.21 1.48c.02.14-.08.26-.21.29h-.04c-.12 0-.22-.09-.24-.21zm-.43-2.97-.21-1.48c-.02-.14.08-.26.21-.29.14-.02.27.08.29.21l.21 1.48c.02.14-.08.26-.21.28h-.04a.233.233 0 0 1-.25-.2zm-.43-2.97-.21-1.48c-.02-.14.08-.26.21-.28.14-.02.27.08.29.21l.21 1.48c.02.14-.08.26-.21.29h-.04c-.13 0-.23-.09-.25-.22zm-.43-2.97-.21-1.48c-.02-.14.08-.26.21-.29.14-.02.27.08.28.21l.21 1.48c.02.14-.08.26-.21.29h-.04c-.11.01-.22-.08-.24-.21zm-.43-2.96-.21-1.48c-.02-.14.08-.26.21-.29.14-.02.27.08.28.21l.21 1.48c.02.14-.08.26-.21.29h-.04c-.11 0-.22-.09-.24-.21zm-.43-2.97-.21-1.48c-.02-.14.08-.26.21-.28.14-.02.27.08.29.21l.21 1.48c.02.14-.08.26-.21.28h-.04c-.12 0-.23-.09-.25-.21zm-.43-2.97-.21-1.48c-.02-.14.08-.27.21-.29.14-.02.27.08.28.21l.21 1.48c.02.14-.08.27-.21.28h-.04c-.11.02-.22-.07-.24-.2zm-.43-2.97-.21-1.48c-.02-.14.08-.27.21-.28.14-.02.27.08.28.21l.21 1.48c.02.14-.08.27-.21.28h-.04c-.11.01-.22-.08-.24-.21zm-.43-2.96-.21-1.48c-.02-.14.08-.27.21-.28.14-.02.27.08.28.21l.21 1.48c.02.14-.08.27-.21.29h-.04a.276.276 0 0 1-.24-.22zm-.43-2.97-.21-1.48c-.02-.14.08-.27.21-.28.14-.02.27.08.29.21l.21 1.48c.02.14-.08.27-.21.29h-.04c-.12 0-.23-.09-.25-.22zm-.43-2.97-.21-1.48c-.02-.14.08-.27.21-.28.14-.02.27.07.28.21l.21 1.48c.02.14-.08.27-.21.29h-.04c-.11 0-.22-.09-.24-.22zm-.42-2.96-.21-1.48c-.02-.14.08-.27.21-.28.14-.02.27.08.28.21l.21 1.48c.02.14-.08.27-.21.28h-.04c-.12 0-.23-.09-.24-.21zm-.43-2.97-.21-1.48c-.02-.14.08-.27.21-.28.14-.02.27.07.28.21l.21 1.48c.02.14-.08.27-.21.28h-.04c-.12 0-.23-.09-.24-.21zm-.43-2.97-.21-1.48c-.02-.14.08-.27.21-.29.14-.02.27.08.29.21l.21 1.48c.02.14-.08.27-.21.29h-.04a.227.227 0 0 1-.25-.21zm-.43-2.97-.21-1.48c-.02-.14.08-.27.21-.29.14-.02.27.08.28.21l.21 1.48c.02.14-.08.27-.21.28h-.04c-.12.02-.23-.07-.24-.2zm-.43-2.96-.21-1.48c-.02-.14.08-.27.21-.29.14-.02.27.08.28.21l.21 1.48c.02.14-.08.27-.21.28h-.04c-.12.01-.22-.08-.24-.2zm-.43-2.97-.21-1.48c-.02-.14.08-.27.21-.29.14-.02.27.07.29.21l.21 1.48c.02.14-.08.27-.21.28h-.04c-.13.02-.23-.07-.25-.2zm-.43-2.97-.21-1.48c-.02-.14.08-.27.21-.28.14-.02.26.08.28.21l.21 1.48c.02.14-.08.27-.21.28h-.04c-.12.01-.22-.08-.24-.21zm-.43-2.96-.21-1.48c-.02-.14.08-.27.21-.28.14-.02.27.07.28.21l.21 1.48c.02.14-.08.26-.21.28h-.04c-.11 0-.22-.09-.24-.21zm-.43-2.97-.21-1.48c-.02-.14.08-.27.21-.28.14-.02.27.08.29.21l.21 1.48c.02.14-.08.27-.21.29h-.04a.277.277 0 0 1-.25-.22zm-.43-2.97-.21-1.48c-.02-.14.08-.27.21-.28.14-.02.27.08.29.21l.21 1.48c.02.14-.08.27-.21.29h-.04c-.12 0-.23-.09-.25-.22zm-.43-2.97-.21-1.48c-.02-.14.08-.27.21-.28.14-.02.27.08.28.21l.21 1.48c.02.14-.08.27-.21.29h-.04c-.11 0-.22-.09-.24-.22zm-.43-2.96-.21-1.48c-.02-.14.08-.27.21-.29.14-.02.27.08.28.21l.21 1.48c.02.14-.08.27-.21.28h-.04c-.11.01-.22-.08-.24-.2zm-.43-2.97-.21-1.48c-.02-.14.08-.27.21-.28.14-.02.27.08.29.21l.21 1.48c.02.14-.08.27-.21.28h-.04c-.12 0-.23-.09-.25-.21zm-.43-2.97-.21-1.48c-.02-.14.08-.27.21-.29.14-.02.27.08.29.21l.21 1.48c.02.14-.08.27-.21.28h-.04c-.12.02-.23-.07-.25-.2zm-.43-2.97-.21-1.48c-.02-.14.08-.27.21-.29.14-.02.27.08.28.21l.21 1.48c.02.14-.08.27-.21.28h-.04c-.11.02-.22-.07-.24-.2zm-.42-2.96-.21-1.48c-.02-.14.08-.27.21-.28.14-.02.27.08.28.21l.21 1.48c.02.14-.08.27-.21.28h-.04c-.12 0-.23-.09-.24-.21zm-.43-2.97-.21-1.48c-.02-.14.08-.27.21-.29.14-.02.27.08.29.21l.21 1.48c.02.14-.08.27-.21.28h-.04a.214.214 0 0 1-.25-.2zm-.43-2.97-.21-1.48c-.02-.14.08-.27.21-.28.14-.02.27.07.28.21l.21 1.48c.02.14-.08.27-.21.28h-.04a.224.224 0 0 1-.24-.21zm-.43-2.96-.21-1.48c-.02-.14.08-.27.21-.28.14-.02.26.08.28.21l.21 1.48c.02.14-.08.27-.21.29h-.04c-.12-.01-.23-.1-.24-.22zm-.43-2.97-.21-1.48c-.02-.14.08-.27.21-.28.14-.02.27.08.29.21l.21 1.48c.02.14-.08.27-.21.29h-.04a.267.267 0 0 1-.25-.22zm-.43-2.97-.21-1.48c-.02-.14.08-.27.21-.29.14-.02.27.08.29.21l.21 1.48c.02.14-.08.27-.21.29h-.04c-.13.01-.23-.08-.25-.21zm-.43-2.97-.21-1.48c-.02-.14.08-.27.21-.29.14-.02.27.08.28.21l.21 1.48c.02.14-.08.27-.21.29h-.04c-.12.01-.22-.08-.24-.21zm-.43-2.96-.21-1.48c-.02-.14.08-.27.21-.29.14-.02.27.08.28.21l.21 1.48c.02.14-.08.27-.21.28h-.04c-.11.01-.22-.08-.24-.2zm-.43-2.97-.21-1.48c-.02-.14.08-.27.21-.29.14-.02.27.08.29.21l.21 1.48c.02.14-.08.27-.21.29h-.04c-.12.01-.23-.09-.25-.21zm-.43-2.97-.21-1.48c-.02-.14.08-.27.21-.28.14-.02.26.08.28.21l.21 1.48c.02.14-.08.27-.21.28h-.04c-.11.01-.22-.08-.24-.21zm-.43-2.96-.21-1.48c-.02-.14.08-.27.21-.29.14-.02.27.08.28.21l.21 1.48c.02.14-.08.27-.21.28h-.04c-.11.01-.22-.08-.24-.2zm-.43-2.97-.21-1.48c-.02-.14.08-.27.21-.28.14-.02.27.08.28.21l.21 1.48c.02.14-.08.26-.21.28h-.04c-.11 0-.22-.09-.24-.21zm-.43-2.97-.21-1.48c-.02-.14.08-.26.21-.28.14-.02.27.08.29.21l.21 1.48c.02.14-.08.27-.21.28h-.04a.24.24 0 0 1-.25-.21zm18.6 127.07h.04c.14-.02.23-.15.21-.28l-.11-.75a.251.251 0 0 0-.29-.21c-.14.02-.23.15-.21.29l.11.75c.02.11.13.2.25.2z"/><path fill="#171c51" d="M244.33 781.86c0-.14.11-.25.25-.25h1.51c.14 0 .25.11.25.25s-.11.25-.25.25h-1.51c-.14 0-.25-.11-.25-.25zm3.02 0c0-.14.11-.25.25-.25h1.51c.14 0 .25.11.25.25s-.11.25-.25.25h-1.51c-.14 0-.25-.11-.25-.25zm3.02 0c0-.14.11-.25.25-.25h1.51c.14 0 .25.11.25.25s-.11.25-.25.25h-1.51c-.14 0-.25-.11-.25-.25zm3.02 0c0-.14.11-.25.25-.25h1.51c.14 0 .25.11.25.25s-.11.25-.25.25h-1.51c-.14 0-.25-.11-.25-.25zm3.02 0c0-.14.11-.25.25-.25h1.51c.14 0 .25.11.25.25s-.11.25-.25.25h-1.51c-.14 0-.25-.11-.25-.25zm3.01 0c0-.14.11-.25.25-.25h1.51c.14 0 .25.11.25.25s-.11.25-.25.25h-1.51c-.13 0-.25-.11-.25-.25zm3.02 0c0-.14.11-.25.25-.25h1.51c.14 0 .25.11.25.25s-.11.25-.25.25h-1.51c-.13 0-.25-.11-.25-.25zm3.02 0c0-.14.11-.25.25-.25h1.51c.14 0 .25.11.25.25s-.11.25-.25.25h-1.51c-.14 0-.25-.11-.25-.25zm3.02 0c0-.14.11-.25.25-.25h1.51c.14 0 .25.11.25.25s-.11.25-.25.25h-1.51c-.14 0-.25-.11-.25-.25zm3.02 0c0-.14.11-.25.25-.25h1.51c.14 0 .25.11.25.25s-.11.25-.25.25h-1.51c-.14 0-.25-.11-.25-.25zm3.02 0c0-.14.11-.25.25-.25h1.51c.14 0 .25.11.25.25s-.11.25-.25.25h-1.51c-.14 0-.25-.11-.25-.25zm-88.61 2.87c-.14 0-.25-.12-.24-.26l.02-.61c0-.14.13-.24.26-.24.14 0 .25.12.24.26l-.02.61c-.01.13-.12.24-.26.24zm.06-2.12c-.14 0-.25-.12-.24-.26l.04-1.51c0-.14.12-.25.26-.24.14 0 .25.12.24.26l-.04 1.51c-.01.13-.12.24-.26.24zm.09-3.02c-.14 0-.25-.12-.24-.26l.04-1.51c0-.14.12-.24.26-.24s.25.12.24.26l-.04 1.51c-.01.13-.12.24-.26.24zm.08-3.01c-.14 0-.25-.12-.24-.26l.04-1.51c0-.14.12-.25.26-.24.14 0 .25.12.24.26l-.04 1.51c0 .13-.12.24-.26.24.01 0 0 0 0 0zm.09-3.02c-.14 0-.25-.12-.24-.26l.04-1.51c0-.14.11-.24.26-.24.14 0 .25.12.24.26l-.04 1.51c-.01.13-.12.24-.26.24zm.08-3.02c-.14 0-.25-.12-.24-.26l.04-1.51c0-.14.12-.24.26-.24s.25.12.24.26l-.04 1.51c0 .13-.11.24-.26.24.01 0 .01 0 0 0zm.09-3.02c-.14 0-.25-.12-.24-.26l.04-1.51c0-.14.12-.25.26-.24.14 0 .25.12.24.26l-.04 1.51c-.01.14-.12.24-.26.24zm.09-3.01c-.14 0-.25-.12-.24-.26l.04-1.51c0-.14.12-.24.26-.24s.25.12.24.26l-.04 1.51c-.01.13-.12.24-.26.24zm.08-3.02c-.14 0-.25-.12-.24-.26l.04-1.51c0-.14.11-.25.26-.24.14 0 .25.12.24.26l-.04 1.51c0 .13-.12.24-.26.24.01 0 0 0 0 0zm.09-3.02c-.14 0-.25-.12-.24-.26l.04-1.51c0-.14.13-.24.26-.24.14 0 .25.12.24.26l-.04 1.51c-.01.13-.12.24-.26.24zm.08-3.01c-.14 0-.25-.12-.24-.26l.04-1.51c0-.14.12-.25.26-.24.14 0 .25.12.24.26l-.04 1.51c0 .13-.11.24-.26.24.01 0 .01 0 0 0zm.09-3.02c-.14 0-.25-.12-.24-.26l.04-1.51c0-.14.11-.25.26-.24.14 0 .25.12.24.26l-.04 1.51c-.01.13-.12.24-.26.24zm.09-3.02c-.14 0-.25-.12-.24-.26l.04-1.51c0-.14.12-.24.26-.24s.25.12.24.26l-.04 1.51c-.01.13-.12.24-.26.24zm.08-3.02c-.14 0-.25-.12-.24-.26l.04-1.51c0-.14.13-.24.26-.24.14 0 .25.12.24.26l-.04 1.51c0 .14-.12.24-.26.24.01 0 0 0 0 0zm.09-3.01c-.14 0-.25-.12-.24-.26l.04-1.51c0-.14.12-.24.26-.24s.25.12.24.26l-.04 1.51c-.01.13-.12.24-.26.24zm.08-3.02c-.14 0-.25-.12-.24-.26l.04-1.51c0-.14.12-.25.26-.24.14 0 .25.12.24.26l-.04 1.51c0 .13-.11.24-.26.24.01 0 .01 0 0 0zm.09-3.02c-.14 0-.25-.12-.24-.26l.04-1.51c0-.14.12-.24.26-.24s.25.12.24.26l-.04 1.51c-.01.13-.12.24-.26.24zm.09-3.02c-.14 0-.25-.12-.24-.26l.04-1.51c0-.14.11-.25.26-.24.14 0 .25.12.24.26l-.04 1.51c-.01.14-.12.24-.26.24zm.08-3.01c-.14 0-.25-.12-.24-.26l.04-1.51c0-.14.12-.24.26-.24s.25.12.24.26l-.04 1.51c0 .13-.12.24-.26.24.01 0 0 0 0 0zm.09-3.02c-.14 0-.25-.12-.24-.26l.04-1.51c0-.14.12-.25.26-.24.14 0 .25.12.24.26l-.04 1.51c-.01.13-.12.24-.26.24zm.08-3.02c-.14 0-.25-.12-.24-.26l.04-1.51c0-.14.12-.24.26-.24s.25.12.24.26l-.04 1.51c0 .14-.11.24-.26.24.01 0 .01 0 0 0zm.09-3.01c-.14 0-.25-.12-.24-.26l.04-1.51c0-.14.11-.26.26-.24.14 0 .25.12.24.26l-.04 1.51c-.01.13-.12.24-.26.24zm.09-3.02c-.14 0-.25-.12-.24-.26l.04-1.51c0-.14.13-.25.26-.24.14 0 .25.12.24.26l-.04 1.51c-.01.13-.12.24-.26.24zm.08-3.02c-.14 0-.25-.12-.24-.26l.04-1.51c0-.14.12-.24.26-.24s.25.12.24.26l-.04 1.51c0 .13-.12.24-.26.24.01 0 0 0 0 0zm.09-3.02c-.14 0-.25-.12-.24-.26l.04-1.51c0-.14.12-.25.26-.24.14 0 .25.12.24.26l-.04 1.51c-.01.14-.12.24-.26.24zm.08-3.01c-.14 0-.25-.12-.24-.26l.04-1.51c0-.14.11-.24.26-.24.14 0 .25.12.24.26l-.04 1.51c0 .13-.11.24-.26.24.01 0 .01 0 0 0zm.09-3.02c-.14 0-.25-.12-.24-.26l.04-1.51c0-.14.13-.25.26-.24.14 0 .25.12.24.26l-.04 1.51c-.01.13-.12.24-.26.24zm.09-3.02c-.14 0-.25-.12-.24-.26l.04-1.51c0-.14.12-.24.26-.24s.25.12.24.26l-.04 1.51c-.01.13-.12.24-.26.24zm.08-3.01c-.14 0-.25-.12-.24-.26l.04-1.51c0-.14.12-.25.26-.24.14 0 .25.12.24.26l-.04 1.51c0 .13-.11.24-.26.24.01 0 0 0 0 0zm.09-3.02c-.14 0-.25-.12-.24-.26l.04-1.51c0-.14.12-.24.26-.24s.25.12.24.26l-.04 1.51c-.01.13-.12.24-.26.24zm.08-3.02c-.14 0-.25-.12-.24-.26l.04-1.51c0-.14.13-.24.26-.24.14 0 .25.12.24.26l-.04 1.51c0 .13-.11.24-.26.24.01 0 .01 0 0 0zm.09-3.02c-.14 0-.25-.12-.24-.26l.04-1.51c0-.14.12-.25.26-.24.14 0 .25.12.24.26l-.04 1.51c0 .14-.12.24-.26.24.01 0 0 0 0 0zm.09-3.01c-.14 0-.25-.12-.24-.26l.04-1.51c0-.14.12-.24.26-.24s.25.12.24.26l-.04 1.51c-.01.13-.12.24-.26.24zm.08-3.02c-.14 0-.25-.12-.24-.26l.04-1.51c0-.14.12-.25.26-.24.14 0 .25.12.24.26l-.04 1.51c0 .13-.11.24-.26.24.01 0 0 0 0 0zm.09-3.02c-.14 0-.25-.12-.24-.26l.04-1.51c0-.14.11-.24.26-.24.14 0 .25.12.24.26l-.04 1.51c-.01.13-.12.24-.26.24zm.08-3.02c-.14 0-.25-.12-.24-.26l.04-1.51c0-.14.12-.25.26-.24.14 0 .25.12.24.26l-.04 1.51c0 .14-.11.24-.26.24.01 0 .01 0 0 0zm.09-3.01c-.14 0-.25-.12-.24-.26l.04-1.51c0-.14.12-.24.26-.24s.25.12.24.26l-.04 1.51c0 .13-.12.24-.26.24.01 0 0 0 0 0zm.09-3.02c-.14 0-.25-.12-.24-.26l.04-1.51c0-.14.12-.25.26-.24.14 0 .25.12.24.26l-.04 1.51c-.01.13-.12.24-.26.24zm.08-3.02c-.14 0-.25-.12-.24-.26l.04-1.51c0-.14.12-.24.26-.24s.25.12.24.26l-.04 1.51c0 .14-.11.24-.26.24.01 0 .01 0 0 0zm.09-3.01c-.14 0-.25-.12-.24-.26l.04-1.51c0-.14.13-.24.26-.24.14 0 .25.12.24.26l-.04 1.51c-.01.13-.12.24-.26.24zm.08-3.02c-.14 0-.25-.12-.24-.26l.04-1.51c0-.14.12-.25.26-.24.14 0 .25.12.24.26l-.04 1.51c0 .13-.11.24-.26.24.01 0 .01 0 0 0zm.09-3.02c-.14 0-.25-.12-.24-.26l.04-1.51c0-.14.12-.24.26-.24s.25.12.24.26l-.04 1.51c0 .13-.12.24-.26.24.01 0 0 0 0 0zm.09-3.02c-.14 0-.25-.12-.24-.26l.04-1.51c0-.14.12-.25.26-.24.14 0 .25.12.24.26l-.04 1.51c-.01.14-.12.24-.26.24zm.08-3.01c-.14 0-.25-.12-.24-.26l.04-1.51c0-.14.13-.24.26-.24.14 0 .25.12.24.26l-.04 1.51c0 .13-.11.24-.26.24.01 0 .01 0 0 0z"/><path fill="#171c51" d="M181.98 781.86c0-.14.11-.25.25-.25h.97c.14 0 .25.11.25.25s-.11.25-.25.25h-.97c-.14 0-.25-.11-.25-.25zm2.47 0c0-.14.11-.25.25-.25h1.51c.14 0 .25.11.25.25s-.11.25-.25.25h-1.51c-.14 0-.25-.11-.25-.25zm3.02 0c0-.14.11-.25.25-.25h1.51c.14 0 .25.11.25.25s-.11.25-.25.25h-1.51c-.14 0-.25-.11-.25-.25zm3.02 0c0-.14.11-.25.25-.25h1.51c.14 0 .25.11.25.25s-.11.25-.25.25h-1.51c-.14 0-.25-.11-.25-.25zm3.02 0c0-.14.11-.25.25-.25h1.51c.14 0 .25.11.25.25s-.11.25-.25.25h-1.51c-.14 0-.25-.11-.25-.25zm3.01 0c0-.14.11-.25.25-.25h1.51c.14 0 .25.11.25.25s-.11.25-.25.25h-1.51c-.13 0-.25-.11-.25-.25zm3.02 0c0-.14.11-.25.25-.25h1.51c.14 0 .25.11.25.25s-.11.25-.25.25h-1.51c-.13 0-.25-.11-.25-.25zm3.02 0c0-.14.11-.25.25-.25h1.51c.14 0 .25.11.25.25s-.11.25-.25.25h-1.51c-.14 0-.25-.11-.25-.25zm3.02 0c0-.14.11-.25.25-.25h1.51c.14 0 .25.11.25.25s-.11.25-.25.25h-1.51c-.14 0-.25-.11-.25-.25zm3.02 0c0-.14.11-.25.25-.25h1.51c.14 0 .25.11.25.25s-.11.25-.25.25h-1.51c-.14 0-.25-.11-.25-.25zm3.02 0c0-.14.11-.25.25-.25h1.51c.14 0 .25.11.25.25s-.11.25-.25.25h-1.51c-.14 0-.25-.11-.25-.25z"/><path d="m186.56 638.74 71.89 7.41-.97-7.41z" opacity=".4"/><path fill="#50bfa5" d="M230.44 552.06s24.53 3.51 36.47 17.36c11.94 13.85-4.13 13.6-8.56 13.09-4.42-.5-27.91-30.45-27.91-30.45z"/><path fill="#fae0b2" d="m207.55 536.86 2.16 17.36 15.74-2.41.12-.45.55-2.16.59-2.26.01-.03 2.12-8.18z"/><path fill="#fae0b2" d="M206.34 530.5c.36 9.9 6.57 19.05 16.48 18.7 9.9-.36 17.56-.31 19.38-19.99.91-9.87-8.67-17.64-18.57-17.28-9.91.35-17.64 8.66-17.29 18.57z"/><path fill="#13375b" d="M224.93 520.96c-3.06-1.44-6.55-1.71-9.75-.64-.5.17-.94.34-1.28.5-1.89.92-1.61 6.19-1.61 6.19s-2.51-1.98-3.24 1.46c-.73 3.45 2.49 3.97 2.49 3.97l-2.12 8.97s-3.37-5.47-5.66-15c-2.23-9.25 5.35-23.85 14.39-21.02 0 0 7.51-6.38 16.58-3.61 9.91 3.03 16.75 9.32 20.9 4.53 0 0-2.81 23.54-21.87 17.75l-8.83-3.1z"/><path fill="#fe875e" d="m225.04 553.83 1.09-4.63s-11.42.93-15.51-6c-.01 0 .06 9.43 14.42 10.63z"/><path fill="#96d9c9" d="m185.09 610.99-1.25-22.31c-1.01-17.89-.06-36.62 28.69-36.6.04-.01.08-.02.11-.02 1.91-.31 3.31-.44 3.97-.5l.43-.03c37.06 0 36.06 13.77 37.15 33.2l1.17 20.9 3.74 30.77a3.673 3.673 0 0 1-3.63 4.12l-67.98.31a3.678 3.678 0 0 1-3.69-3.86l1.29-25.98z"/><path fill="#587cf8" d="M216.62 551.56c-.66.06-2.07.19-3.97.5 1.29-.24 2.62-.41 3.97-.5z"/><path fill="#fe875e" d="M246.08 600.92c-.96-.93-3.36.48-2.43-.48l6.01-6.68a2.43 2.43 0 0 1 3.43-.05c.96.93.98 2.47.05 3.43l-3.63 3.73c-.93.96-2.48.98-3.43.05z"/><path fill="#7181aa" d="m254.77 612.09-1.46-.05a3.256 3.256 0 0 1-3.14-3.35l1.46-43.97a3.25 3.25 0 0 1 3.35-3.14l1.41.05a3.223 3.223 0 0 0-3.3 3.13l-1.46 43.97c-.05 1.8 1.36 3.3 3.14 3.36z"/><path fill="#96a4cd" d="m283.63 613.05-1.41-.05-27.44-.91a3.256 3.256 0 0 1-3.14-3.35l1.46-43.97a3.23 3.23 0 0 1 3.3-3.13c.02 0 .03-.01.05 0l27.39.91 1.46.05c1.79.06 3.19 1.56 3.14 3.35l-1.46 43.97a3.248 3.248 0 0 1-3.35 3.13z"/><path fill="#fff" d="M266.97 586.77c-.32 1.7.8 3.33 2.5 3.64 1.7.32 3.33-.8 3.64-2.5.32-1.7-.8-3.33-2.5-3.64-1.7-.31-3.33.81-3.64 2.5zm15.98-20.19c-.12.64.3 1.26.94 1.37.64.12 1.26-.3 1.37-.94.12-.64-.3-1.26-.94-1.37-.64-.13-1.25.3-1.37.94z"/><path fill="#fae0b2" d="m252.79 612.17-2.93.37c-3.83.49-7.36-2.24-7.85-6.07-.49-3.83 2.24-7.36 6.07-7.85l2.93-.37c3.83-.49 7.36 2.24 7.85 6.07.49 3.83-2.25 7.36-6.07 7.85z"/><path fill="#fae0b2" d="M250.02 600.83c-.17-1.32.78-2.54 2.1-2.71l5.17-.66c1.32-.17 2.54.78 2.71 2.1.17 1.32-.78 2.54-2.1 2.71l-5.17.66c-1.32.16-2.54-.78-2.71-2.1z"/><path fill="#fae0b2" d="M253.67 603.4c-.17-1.32.78-2.54 2.1-2.71l5.17-.66c1.32-.17 2.54.78 2.71 2.1.17 1.32-.78 2.54-2.1 2.71l-5.17.66c-1.32.17-2.54-.77-2.71-2.1z"/><path fill="#fae0b2" d="M252.82 606.57c-.17-1.32.78-2.54 2.1-2.71l5.17-.66c1.32-.17 2.54.78 2.71 2.1.17 1.32-.78 2.54-2.1 2.71l-5.17.66c-1.32.17-2.54-.78-2.71-2.1z"/><path fill="#fae0b2" d="M250.25 609.94c-.17-1.32.78-2.54 2.1-2.71l5.17-.66c1.32-.17 2.54.78 2.71 2.1.17 1.32-.78 2.54-2.1 2.71l-5.17.66c-1.32.17-2.54-.78-2.71-2.1z"/><path fill="#fe875e" d="m252.19 601.303 7.765-1.4.088.492-7.765 1.4zM254.894 605.605l7.607-1.371.089.492-7.608 1.371zM253.341 609.035l6.535-1.178.088.492-6.534 1.178z"/><path fill="#50bfa5" d="M198.18 556.61c-8.2.14-14.54 7.23-13.8 15.39.32 3.48.64 6.55.88 7.85.16.95.37 1.92.56 2.87.2.96.4 1.91.64 2.89.23.97.45 1.93.72 2.9l.83 2.93c.13.48.29.98.46 1.48l.5 1.49.5 1.48.59 1.53.6 1.52c.1.25.2.5.31.76l.36.79.73 1.57.37.78.19.39.31.59c.45.81.9 1.62 1.41 2.37.53.74 1.08 1.47 1.65 2.17.6.65 1.21 1.29 1.83 1.9.63.58 1.28 1.1 1.94 1.62 2.64 1.97 5.31 3.24 7.83 4.11.62.2 1.27.44 1.87.59l1.83.47c1.18.25 2.38.47 3.51.6 2.29.3 4.49.42 6.61.39 4.25-.02 8.24-.54 12.11-1.25 1.93-.39 3.83-.81 5.71-1.32.94-.26 1.87-.53 2.81-.82l1.4-.46 1.49-.51-2.47-13.65c-.12-.03-.35-.04-.54-.05l-.61-.04-1.24-.09c-.83-.05-1.66-.12-2.49-.19-1.66-.15-3.3-.29-4.92-.51-3.22-.38-6.36-.94-9.18-1.68-1.42-.35-2.73-.8-3.91-1.26-.28-.12-.6-.23-.85-.36-.26-.13-.53-.25-.79-.37l-.7-.39c-.24-.12-.4-.27-.6-.39-.74-.52-1.12-2.29-1.12-2.29l-.25-.91-.13-.45c-.04-.16-.07-.34-.11-.51l-.22-1.02-.23-1.01-.19-1.09c-.12-.74-.27-1.42-.38-2.19-.25-1.5-.93-8.84-1.53-15.74-.64-7.39-6.89-13.01-14.29-12.88z"/><path fill="#fae0b2" d="M282.86 595.62c-.15 1.33.82 2.53 2.15 2.68l5.18.57c1.33.15 2.53-.82 2.68-2.15.15-1.33-.82-2.53-2.15-2.68l-5.18-.57a2.44 2.44 0 0 0-2.68 2.15z"/><path fill="#fae0b2" d="M281.6 591.28c-.15 1.33.82 2.53 2.15 2.68l6.67.73c1.33.15 2.53-.82 2.68-2.15.15-1.33-.82-2.53-2.15-2.68l-6.67-.73a2.44 2.44 0 0 0-2.68 2.15z"/><path fill="#fae0b2" d="M283.3 587.71c-.15 1.33.82 2.53 2.15 2.68l5.18.57c1.33.15 2.53-.82 2.68-2.15.15-1.33-.82-2.53-2.15-2.68l-5.18-.57c-1.33-.14-2.54.82-2.68 2.15z"/><path fill="#fae0b2" d="M284.79 584.22c-.15 1.33.81 2.53 2.15 2.68l2.29.25c1.33.15 2.53-.81 2.68-2.15.15-1.33-.81-2.53-2.15-2.68l-2.29-.25c-1.34-.14-2.54.82-2.68 2.15z"/><path fill="#fe875e" d="m283.718 594.228.03-.5 8.045.48-.03.498zM283.552 589.38l.05-.497 8.636.875-.05.497zM285.048 585.896l.04-.499 6.09.497-.04.498z"/></svg>