<svg xmlns="http://www.w3.org/2000/svg" xmlns:xlink="http://www.w3.org/1999/xlink" viewBox="0 0 1920 1080"><g fill="#2A94F4"><path d="M1045.39 981.623c120.652-37.875 340.742-31.719 375.91-274.884 35.167-243.166-154.066-355.366-125.597-514.456 28.469-159.09-419.44-355.021-481.01 36.842S578.143 545.177 523.29 475.069s-162.03-49.415-193.848 34.018-6.391 419.982 202.63 466.311c209.021 46.329 392.666 44.1 513.318 6.225z" opacity=".1"/><ellipse cx="962.054" cy="1000.012" opacity=".1" rx="494.653" ry="79.988"/></g><path fill="#0E538C" d="M1196.103 1000.012h16.466l-54.249-351.918-15.433 15.005zM1033.623 1000.012h-16.496l51.771-351.918 15.434 15.005zM1121.316 673.636h-15.925l1.253 326.376h15.925zM1105.391 255.814h15.925v57.682h-15.925z"/><path fill="#FFBE55" d="M1148.237 654.132h-69.768v13.221h11.125v6.61h47.518v-6.61h11.125z"/><path fill="#0E538C" d="M1018.565 647.782h189.575v10.288h-189.575zM1138.391 302.399h-50.077V289.02h50.077z"/><path fill="#0E538C" d="M1130.406 295.71H1096.3v-13.38h34.107z"/><path fill="#F2F2F2" d="M1246.441 302.355H980.266a3.21 3.21 0 0 0-3.209 3.209v339.009a3.21 3.21 0 0 0 3.209 3.209h266.175a3.21 3.21 0 0 0 3.209-3.209V305.564a3.21 3.21 0 0 0-3.209-3.209z"/><defs><path id="a" d="M1246.441 302.355H980.266a3.21 3.21 0 0 0-3.209 3.209v339.009a3.21 3.21 0 0 0 3.209 3.209h266.175a3.21 3.21 0 0 0 3.209-3.209V305.564a3.21 3.21 0 0 0-3.209-3.209z"/></defs><clipPath id="b"><use overflow="visible" xlink:href="#a"/></clipPath><g clip-path="url(#b)"><path fill="#FFBE55" d="M1123.385 469.545s-8.325-45.695 16.259-69.164c19.344-18.807 30.866-10.881 50.435-27.162 19.569-16.281 49.51-66.703 74.598-63.072 25.088 3.63 17.604 40.459 13.097 60.636-5.309 23.774 9.876 44.281 15.048 66.464 4.198 18.011 4.386 39.163-4.534 56.113-9.622 18.283-37.516 23.566-41 44.958-3.326 20.426 33.106 53.316 11.289 86.214-25.705 38.759-76.98 61.06-122.482 48.111-42.48-12.089-79.141-67.384-52.014-108.315 21.787-39.866 49.878-27.574 39.304-94.783z"/><g fill="#CCE9FF"><path d="M1245.838 362.757c-13.299 21.897-25.397 44.615-36.628 67.67-11.191 23.087-21.423 46.639-30.201 70.699-8.744 24.053-16.167 48.625-20.874 73.669-2.412 12.503-4.087 25.136-4.696 37.78-.639 12.633-.314 25.296 1.524 37.694l.006.041a4.021 4.021 0 0 1-7.954 1.18l-.009-.063c-1.733-13.097-1.849-26.269-.985-39.296.836-13.04 2.76-25.946 5.42-38.653 5.204-25.456 13.115-50.185 22.318-74.315 9.239-24.132 19.908-47.66 31.519-70.682 11.663-23.007 24.128-45.559 37.884-67.422a1.585 1.585 0 0 1 2.696 1.664l-.02.034z"/><path d="M1206.248 477.518c4.646-4.589 10.255-7.799 16.062-10.422 5.831-2.654 12.232-3.664 18.48-4.756 6.263-1.106 12.622-1.625 18.949-1.663 6.335-.056 12.641.783 18.78 1.967a.316.316 0 0 1-.069.628l-.02-.001c-6.233-.173-12.407-.327-18.52.57-6.106.661-12.148 1.779-18.034 3.451-5.918 1.587-11.508 4.075-17.365 5.747-5.862 1.737-11.698 3.552-17.942 5.024l-.017.004a.327.327 0 0 1-.304-.549zM1168.372 462.307c-2.601-3.546-4.468-7.074-6.294-10.62-1.864-3.501-2.79-7.402-4.475-11.025-1.615-3.646-3.568-7.14-5.77-10.493-2.068-3.475-4.692-6.536-7.344-9.675l-.012-.014a.319.319 0 0 1 .428-.464c3.354 2.406 6.58 5.116 9.426 8.202 2.814 3.107 5.423 6.439 7.709 9.988 2.27 3.538 4.836 7.057 5.945 11.181 1.124 4.084 1.796 8.36 1.009 12.794a.341.341 0 0 1-.609.143l-.013-.017zM1162.125 622.176c4.196-4.649 9.338-8.044 14.69-10.935 5.368-2.924 11.386-4.33 17.239-5.892 5.866-1.571 11.861-2.64 17.866-3.348 6.018-.664 12.09-.647 18.063-.222a.318.318 0 0 1 .009.632l-.017.002c-5.939.588-11.81 1.236-17.535 2.714-5.738 1.306-11.387 2.946-16.862 5.058-5.511 2.034-10.655 4.869-16.16 6.835-5.504 2.027-11.001 4.071-16.948 5.688a.327.327 0 0 1-.413-.211.357.357 0 0 1 .068-.321zM1135.742 615.348c-3.244-3.645-5.845-7.317-8.453-10.967-2.642-3.595-4.49-7.689-7.128-11.325-2.557-3.687-5.604-6.992-8.887-10.073-3.227-3.189-7.018-5.689-10.964-8.101l-.018-.011a.317.317 0 0 1 .268-.571c4.406 1.506 8.737 3.527 12.678 6.196 3.87 2.735 7.584 5.804 10.823 9.319 3.235 3.487 6.681 6.994 8.702 11.371 2.024 4.334 3.565 8.955 3.578 13.954a.334.334 0 0 1-.584.225l-.015-.017z"/></g><path fill="#FFBE55" d="M986.981 361.892s-38.303 26.273-37.649 60.255c.273 26.978 14.014 29.576 16.238 54.935s-12.483 82.126 7.764 97.379c20.247 15.254 41.121-15.998 52.27-33.408 13.138-20.513 38.391-24.176 57.782-36.128 15.743-9.704 30.891-24.469 36.642-42.739 6.203-19.707-9.692-43.231 3.04-60.77 12.158-16.747 61.166-14.048 69.154-52.706 9.411-45.547-10.87-97.653-52.109-120.835-38.5-21.643-103.575-8.724-113.527 39.361-12.957 43.543 15.554 54.828-39.605 94.656z"/><g fill="#CCE9FF"><path d="M997.414 524.033c6.178-24.863 13.786-49.451 22.242-73.662 8.508-24.204 18.022-48.056 28.919-71.233 10.918-23.148 23.133-45.724 37.597-66.703 7.177-10.519 14.966-20.605 23.513-29.942 8.519-9.351 17.736-18.039 27.833-25.466l.034-.025a4.02 4.02 0 1 0-4.765-6.477l-.051.038c-10.518 7.994-19.951 17.188-28.59 26.976-8.668 9.777-16.475 20.233-23.623 31.07-14.407 21.623-26.39 44.655-37.039 68.183-10.624 23.555-19.813 47.699-27.979 72.157-8.118 24.483-15.349 49.216-21.182 74.379a1.584 1.584 0 0 0 3.08.741l.011-.036z"/><path d="M1051.001 415.102c.014 6.53 1.686 12.773 3.914 18.742 2.223 6.009 6.014 11.264 9.639 16.469 3.626 5.225 7.736 10.105 12.165 14.624 4.422 4.537 9.459 8.422 14.623 11.947a.316.316 0 0 0 .397-.491l-.014-.014c-4.513-4.302-8.971-8.577-12.639-13.549-3.831-4.801-7.292-9.877-10.251-15.233-3.042-5.319-5.212-11.04-8.151-16.375-2.896-5.385-5.717-10.806-9.07-16.276l-.009-.015a.326.326 0 0 0-.604.171zM1013.527 398.927c-4.349.651-8.169 1.81-11.972 3.011-3.798 1.142-7.22 3.233-10.979 4.588-3.726 1.422-7.582 2.495-11.512 3.294-3.923.979-7.945 1.273-12.041 1.6l-.019.002a.318.318 0 0 0-.028.63c4.07.687 8.266 1.068 12.461.915 4.187-.19 8.391-.685 12.52-1.562 4.111-.88 8.416-1.537 12.124-3.654 3.691-2.079 7.199-4.613 9.793-8.294a.34.34 0 0 0-.327-.533l-.02.003zM1122.619 281.897c-.345 6.253.866 12.294 2.583 18.13 1.705 5.871 4.945 11.133 7.958 16.388 3.016 5.271 6.479 10.28 10.206 15.041 3.767 4.739 8.056 9.039 12.564 12.979a.317.317 0 0 0 .454-.439l-.01-.013c-3.765-4.63-7.441-9.255-10.423-14.36-3.114-4.993-5.928-10.159-8.285-15.533-2.438-5.344-4.048-10.994-6.529-16.286-2.438-5.335-4.858-10.676-7.899-16.038a.328.328 0 0 0-.441-.145.363.363 0 0 0-.178.276zM1099.191 267.976c-4.872.265-9.311 1.003-13.739 1.723-4.412.656-8.621 2.228-13.06 2.916-4.418.781-8.91.946-13.41.785-4.537-.045-8.981-.976-13.472-2.078l-.021-.005a.317.317 0 0 0-.217.592c4.172 2.067 8.658 3.718 13.328 4.636 4.667.821 9.462 1.297 14.238 1.12 4.754-.159 9.67-.183 14.201-1.831 4.502-1.616 8.868-3.776 12.426-7.288a.335.335 0 0 0-.252-.573l-.022.003z"/></g></g><path fill="#FFBE55" d="M1105.391 255.814h7.962v26.517h-7.962z"/><path fill="#0E538C" d="M1148.237 654.132h-69.768v13.221h11.125v6.61h47.518v-6.61h11.125z"/><path fill="#2A94F4" d="M1105.391 255.814h7.962v26.517h-7.962z"/><path fill="#0B4870" d="m633.025 570.888 4.553-5.604 2.653 6.976-12.447 65.329-7.205-1.373zM602.807 577.758l1.871-3.752 3.249 2.965 10.1 65.732-5.119.787zM589.177 564.135l1.003-2.823 1.583 1.863a17.733 17.733 0 0 1 4.012 8.787 3.592 3.592 0 0 1-1.046 3.122l6.259 58.283-1.863.48-8.303-57.995a5.01 5.01 0 0 1-2.418-3.562 16.76 16.76 0 0 1 .773-8.155z"/><path fill="#0B4870" d="m596.703 577.698.382-2.728 1.022 1.949c1.372 2.617 2.362 5.72 2.861 8.964.177 1.149.033 2.274-.386 3.021l7.425 58.103-1.025.351-8.566-57.955c-.789-.842-1.38-2.196-1.609-3.686-.422-2.739-.457-5.495-.104-8.019zM612.999 584.254c.42-.99 1.798-1.111 2.412-.228a8.068 8.068 0 0 1 1.35 3.393c.177 1.149.033 2.274-.386 3.021l7.425 58.103-1.025.351-8.566-57.955c-.789-.842-1.38-2.196-1.609-3.686-.181-1.174.062-2.205.399-2.999z"/><path fill="#0B4870" d="m624.064 580.714 1.108-2.18.451 1.909c.605 2.562.712 5.428.308 8.278-.143 1.009-.587 1.913-1.192 2.425l-8.674 50.653-1.08.017 7.538-50.837c-.528-.918-.727-2.212-.542-3.521.342-2.41 1.057-4.727 2.083-6.744z"/><path fill="#FFBE55" d="M600.261 664.728h34.803l.097-.782c6.809-54.822 6.809-55.055 6.809-55.131v-.904l-.904.013c-.47.006-46.999.639-47.605.639h-1.024l7.824 56.165z"/><path fill="#F2F2F2" d="M657.604 603.7h30.61c.782 0 1.417.634 1.417 1.417v55.109h-33.443v-55.109c0-.783.634-1.417 1.416-1.417z"/><path fill="#FFBE55" d="M667.083 591.459h11.651c.759 0 1.375.616 1.375 1.375V603.7h-14.401v-10.866c0-.76.616-1.375 1.375-1.375z"/><path fill="#0B4870" d="M660.779 626.562h.573c.808 0 1.489-.565 1.688-1.348 1.677-6.614 5.559-11.253 10.089-11.253s8.412 4.639 10.089 11.253c.199.784.88 1.348 1.688 1.348h.133c.956 0 1.731.775 1.731 1.731v10.22c0 .956-.775 1.731-1.731 1.731h-.636c-.744 0-1.425.463-1.655 1.171-1.866 5.735-5.47 9.63-9.619 9.63s-7.753-3.895-9.619-9.63c-.23-.708-.911-1.171-1.655-1.171h-1.076a1.731 1.731 0 0 1-1.731-1.731v-10.22c0-.956.775-1.731 1.731-1.731z"/><g fill="#0B4870"><path d="M719.159 1002.33c.259 0 .519-.022.784-.064 2.565-.418 4.297-2.772 3.867-5.261l-59.616-317.426c-.436-2.484-2.885-4.159-5.423-3.752-2.566.418-4.298 2.772-3.868 5.261l59.616 317.426c.386 2.232 2.384 3.816 4.64 3.816zM565.392 1002.33c2.263 0 4.254-1.584 4.64-3.816l63.58-317.426c.43-2.489-1.302-4.843-3.868-5.261-2.581-.38-4.993 1.268-5.423 3.752l-63.58 317.426c-.431 2.489 1.302 4.843 3.867 5.261.266.043.525.064.784.064z"/><path d="M723.875 687.827H568.11v-29.555h155.766zM699.417 890.727h-114.62v-8.986h114.62z"/></g><path fill="#CCE9FF" d="M1233.92 993.935h63.663l.177-1.382c12.455-96.85 12.455-97.261 12.455-97.397v-1.596l-1.653.023c-.859.01-85.974 1.129-87.081 1.129h-1.874l14.313 99.223z"/><path fill="#FFBE55" d="m1229.651 894.611 41.675-.541v11.058c0 3.142-3.931 4.562-5.939 2.146-2.366-2.847-6.98-1.637-7.644 2.005l-1.514 8.302c-.778 4.268-6.611 4.95-8.354.977l-4.401-10.034c-1.138-2.594-4.947-2.144-5.449.643l-.842 4.667c-.783 4.341-6.973 4.439-7.893.125l-4.114-19.29 4.475-.058zM912.843 751.798h-37.001l4.309 89.546h28.383z"/><path fill="#FFBE55" d="m884.371 825.553 2.586 147.438h14.77l2.587-147.438z"/><ellipse cx="892.008" cy="757.47" fill="#FFBE55" rx="77.315" ry="32.822"/><g fill="#FFBE55"><path d="M942.794 976.744h-89.857v-9.426h89.857z"/><path d="M925.562 988.864c0 7.437 5.511 13.466 12.309 13.466 6.798 0 12.309-6.029 12.309-13.466 0-7.437-5.511-13.466-12.309-13.466-6.798 0-12.309 6.029-12.309 13.466zM885.557 988.864c0 7.437 5.511 13.466 12.309 13.466 6.798 0 12.309-6.029 12.309-13.466 0-7.437-5.511-13.466-12.309-13.466-6.798 0-12.309 6.029-12.309 13.466zM845.552 988.864c0 7.437 5.511 13.466 12.309 13.466 6.798 0 12.309-6.029 12.309-13.466 0-7.437-5.511-13.466-12.309-13.466-6.798 0-12.309 6.029-12.309 13.466z"/></g><path fill="#3D2210" d="M1071.771 704.615c18.157 11.116 7.338 30.012 7.338 30.012l-31.381-15.006-6.177-22.899 30.22 7.893z"/><path fill="#EDAC90" d="m964.027 1038.131.747 18.358-13.312 2.04-.534-20.249z"/><path fill="#0B4870" d="M951.177 1043.284s55.089 0 63.308 12.327c5.992 8.988-64.049 12.7-64.049 12.7l.741-25.027z"/><path fill="#EDAC90" d="m1003.855 937.841-9.421 15.775-12.257-5.578 10.635-17.238z"/><path fill="#0B4870" d="M989.362 936.392s42.556 19.446 47.159 43.691c2.015 10.614-60.559-24.422-60.559-24.422l13.4-19.269zM980.194 494.206c21.615-13.303-5.972-24.799 19.379-23.524 5.736.287 11.968.845 16.752-2.332 6.217-4.13 7.345-12.944 5.792-20.245-3.714-17.498-20.364-31.365-38.248-31.86-24.3-.672-45.405 20.299-69.684 19.068-9.262-.468-17.999-4.171-26.886-6.826-25.903-7.74-59.239-3.622-72.088 20.168-3.44 6.369-5.088 13.625-8.877 19.794-10.756 17.513-34.363 20.95-51.652 32.064-19.215 12.353-30.621 35.897-28.409 58.635.923 9.469 4.449 19.29 12.141 24.891 0 0 26.155 33.357 85.361 0 59.21-33.359 156.419-89.833 156.419-89.833z"/><path fill="#2A94F4" d="M930.319 557.688c9.224-10.475 150.61 144.426 180.787 160.733 30.182 16.307 23.255 0 23.255 0l-60.568-67.555-116.475-130.628-26.999 37.45z"/><path fill="#2A94F4" d="M948.369 499.097c-25.614-12.421-56.143-9.245-78.445 8.448-.233.185-.465.37-.698.558-38.902 31.12-88.039 92.27-73.48 197.096l137.439-16.307s-19.325-23.353 5.578-92.491c13.703-38.032 25.784-73.542 25.784-73.542l-16.178-23.762z"/><path fill="#2A94F4" d="M874.949 549.125s11.645 123.461 58.236 139.768c46.591 16.307 129.718 14.183 129.718 14.183s7.175-6.466-82.002-27.768c-3.703-.884-7.57-1.792-11.61-2.721 0 0-50.561-29.215-47.949-118.54.12-4.05-.042-8.099-.651-12.1-2.01-13.144-8.364-39.525-26.889-37.083-24.576 3.239-18.853 44.261-18.853 44.261z"/><path fill="#F7F7F7" d="M874.949 549.125s11.645 123.461 58.236 139.768c46.591 16.307 129.718 14.183 129.718 14.183s7.175-6.466-82.002-27.768c-3.703-.884-7.57-1.792-11.61-2.721 0 0-50.561-29.215-47.949-118.54.12-4.05-.042-8.099-.651-12.1-2.01-13.144-8.364-39.525-26.889-37.083-24.576 3.239-18.853 44.261-18.853 44.261z" opacity=".21"/><path fill="#0E538C" d="M795.746 705.199s104.826 125.794 125.791 163.065c20.968 37.271 11.648 169.721 18.638 173.381 6.987 3.661 33.745.042 33.745.042l1.657-100.515 1.128-52.637a195.78 195.78 0 0 0-12.804-73.963l-28.388-74.432s115.883 7.2 95.513 65.226c-25.602 72.915-48.922 128.123-48.922 128.123l23.296 9.316s109.383-137.439 83.859-198.004c-25.518-60.568-156.075-55.91-156.075-55.91l-137.438 16.308z"/><path fill="#3D2210" d="m1022.272 465.773-18.507 39.042c-4.121 8.695-14.524 12.38-23.198 8.217l-5.121-2.457-8.656 9.755c-6.086 6.861-16.582 7.489-23.44 1.4l-4.112-3.646c-7.928-7.035-8.653-19.167-1.619-27.098l42.775-48.212 41.878 22.999z"/><path fill="#0B4870" d="M954.947 499.378s17.274 4.222 25.247-5.172c0 0-8.967-23.524.272-23.589 9.235-.066 9.824 17.895 9.824 17.895s6.546-18.976 11.586-20.929c0 0 22.643 20.033 30.807 3.464 0 0-1.224-11.287-14.745-24.718-13.514-13.428-40.409-6.396-40.409-6.396l-22.582 59.445z"/><path fill="#0B4870" d="M927.366 489.739s12.947 9.191 27.581 9.639c14.638.445 24.058-61.285 24.058-61.285l-51.639 51.646z"/><path fill="#3D2210" d="M1141.117 717.605c8.576 4.823 19.942-3.562 20.336 1.255.837 10.234 2.275 5.789 5.117 1.396 4.039-6.245 6.834 28.448-12.492 23.554s-25.718-19.717-25.718-19.717.724-3.082 4.167-5.271c6.173-3.926 8.59-1.217 8.59-1.217z"/><path fill="#0B4870" d="m1184.495 673.409 2.563-2.734-.152 3c-.204 4.028-1.272 8.289-3.084 12.31-.642 1.424-1.681 2.563-2.79 3.058l-34.408 70.808-1.596-.437 32.816-71.565c-.385-1.577-.125-3.564.708-5.412 1.529-3.396 3.571-6.498 5.943-9.028z"/></svg>